<?xml version="1.0" standalone="no"?>
<!DOCTYPE svg PUBLIC "-//W3C//DTD SVG 20010904//EN"
 "http://www.w3.org/TR/2001/REC-SVG-20010904/DTD/svg10.dtd">
<svg version="1.0" xmlns="http://www.w3.org/2000/svg"
 width="528.000000pt" height="528.000000pt" viewBox="0 0 528.000000 528.000000"
 preserveAspectRatio="xMidYMid meet">
<metadata>
Created by potrace 1.11, written by Peter Selinger 2001-2013
</metadata>
<g transform="translate(0.000000,528.000000) scale(0.100000,-0.100000)"
fill="#000000" stroke="none">
<path d="M915 4487 c-111 -37 -211 -121 -254 -212 -32 -67 -39 -181 -17 -257
32 -113 149 -218 281 -253 188 -51 401 39 482 204 25 50 28 67 28 156 0 91 -3
105 -30 158 -35 71 -114 145 -193 183 -48 24 -72 28 -157 31 -64 2 -115 -2
-140 -10z"/>
<path d="M2968 3420 c-426 -50 -796 -370 -936 -810 -49 -155 -65 -272 -64
-475 1 -476 143 -794 447 -1004 205 -142 467 -211 749 -198 256 12 474 104
661 279 l65 60 0 -141 0 -141 375 0 375 0 0 1160 0 1160 -349 0 c-324 0 -350
-1 -355 -17 -3 -10 -13 -58 -22 -108 -9 -49 -18 -91 -19 -93 -1 -1 -34 29 -72
66 -166 164 -332 239 -578 262 -114 11 -181 11 -277 0z m507 -625 c164 -42
308 -150 379 -285 l36 -68 0 -274 0 -273 -36 -62 c-132 -223 -383 -332 -639
-278 -179 38 -335 163 -418 336 -54 113 -71 184 -70 304 2 188 57 322 187 450
83 83 152 125 243 150 67 18 245 18 318 0z"/>
<path d="M640 2150 l0 -1160 375 0 375 0 0 1160 0 1160 -375 0 -375 0 0 -1160z"/>
</g>
</svg>
