<?xml version="1.0" encoding="utf-8"?>
<!-- Generator: Adobe Illustrator 19.0.0, SVG Export Plug-In . SVG Version: 6.00 Build 0)  -->
<svg version="1.1" id="Layer_1" xmlns="http://www.w3.org/2000/svg" xmlns:xlink="http://www.w3.org/1999/xlink" x="0px" y="0px"
	 viewBox="0 0 16 16" style="enable-background:new 0 0 16 16;" xml:space="preserve">
<g id="XMLID_2_">
	<path id="XMLID_3_" d="M2.3,2.7c0.3-0.2,0.5-0.3,0.9-0.3c0.3,0,0.6,0.1,0.8,0.3c0.2,0.2,0.4,0.5,0.4,0.8c0,0.3-0.1,0.6-0.4,0.8
		C3.7,4.5,3.5,4.6,3.2,4.6c-0.3,0-0.6-0.1-0.9-0.3S1.9,3.8,1.9,3.5C1.9,3.2,2,2.9,2.3,2.7z M4.2,6v7H2V6H4.2z"/>
	<path id="XMLID_6_" d="M14,6v7h-2.2v-0.9c-0.7,0.7-1.5,1.1-2.3,1.1c-1,0-1.9-0.3-2.5-0.9c-0.6-0.6-1-1.5-1-2.8c0-0.8,0.2-1.4,0.5-2
		c0.3-0.6,0.7-1,1.3-1.4c0.5-0.3,1.1-0.5,1.7-0.5c0.6,0,1.1,0.1,1.5,0.3c0.4,0.2,0.7,0.5,1,0.8L12,6H14z M11.8,10.3V8.6
		c-0.1-0.3-0.3-0.6-0.7-0.8S10.4,7.5,10,7.5C9.5,7.5,9.1,7.6,8.8,8C8.4,8.4,8.2,8.8,8.2,9.4c0,0.4,0.1,0.7,0.3,1s0.4,0.5,0.7,0.7
		c0.3,0.2,0.6,0.3,0.9,0.3C10.9,11.3,11.4,11,11.8,10.3z"/>
</g>
</svg>
