<svg xmlns="http://www.w3.org/2000/svg" viewBox="-454 306 50 50"><path d="M-433.8 315.7h-9.7v12.9h9.7C-433.8 328.6-433.8 315.7-433.8 315.7zM-435.4 327h-6.4v-9.7h6.4V327z"/><rect x="-430.6" y="315.7" width="11.3" height="1.6"/><rect x="-430.6" y="321.3" width="11.3" height="1.6"/><rect x="-430.6" y="327" width="11.3" height="1.6"/><rect x="-443.5" y="332.6" width="24.2" height="1.6"/><rect x="-443.5" y="338.3" width="18.6" height="1.6"/><rect x="-443.5" y="347.9" width="11.3" height="1.6"/><path d="M-405.2 328.1c-1.3-1.3-4-1.8-5.7 0l-3.6 3.6v-20.9h-4.8V306h-33.9v45.2h4.8v4.8h33.9v-12.8l9.3-9.3C-403.6 332.3-403.6 329.7-405.2 328.1zM-448.4 349.6h-3.2v-41.9h30.6v3.2h-27.4C-448.4 310.8-448.4 349.6-448.4 349.6zM-416.1 354.4h-30.6v-41.9h30.6v20.9l-13.2 13.2 -1.4 7.1 7.1-1.4 7.5-7.5L-416.1 354.4 -416.1 354.4zM-427.4 347l2.3-2.3 3.4 3.4 -2.3 2.3L-427.4 347zM-425.6 351l-3 0.6 0.6-3L-425.6 351zM-420.6 347l-3.4-3.4 13.7-13.7 3.4 3.4L-420.6 347zM-405.9 332l-3.2-3.2c0.9-0.4 2-0.3 2.7 0.5C-405.6 330-405.4 331.1-405.9 332z"/><rect x="-413.4" y="331.5" transform="matrix(-0.7071 -0.7071 0.7071 -0.7071 -941.6179 281.0932)" width="1.6" height="8.1"/></svg>