<svg xmlns="http://www.w3.org/2000/svg" viewBox="0 0 214.9 88.2"><style>.st0,.st2,.st3{fill-rule:evenodd;clip-rule:evenodd;fill:none}.st2,.st3{fill:#004990}.st3{stroke:#004990;stroke-width:.1469;stroke-miterlimit:3.8637}</style><g id="Foreground"><path class="st0" d="M3.8 4h80.6v80.6H3.8z"/><path class="st0" d="M0 0h88.2v88.2H0z"/><circle cx="44" cy="44.1" r="35.3" fill-rule="evenodd" clip-rule="evenodd" fill="none" stroke="#004990" stroke-width="2" stroke-miterlimit="3.8637"/><path class="st2" d="M50.6 70.9c.5-.2 1.4-.9 1.5-1.2.1-.3.4-.2.5 0 .1.2.3.9.4 1.1.1.2.1.4-.1.5-.2.1-.8 0-1.1.2-.4.2-.8.3-1.1.5-.3.2-.5.2-.8.2-.4 0-.6.2-.8.2H48c-.3 0-.7.1-1 .1-.2 0-.5-.2-.2-.4.2-.2.5-.3.8-.3.3 0 .7-.1.9-.3l.3-.3s.7 0 1.1-.1c.4-.1.2.1.7-.2zM44.2 57.7c.3.2 1 .5 1 .8 0 .3-.3 1.1-.8 1.1-.4 0-2.4-1.1-2.1-1.6.7-.9 1.4-.6 1.9-.3zM58.1 31.2c-.5-.1-1.1-.3-.7-.7.5-.4.3-.8.6-1.1.2-.3.5-.6.4-.8-.1-.3-.6-.6-.3-.9.3-.3.8-1 1-1.6.2-.6 1.3-3.1 1.5-3.7.2-.5.2-1.1.5-1.4.3-.3 1.6-2.2 2.4-2.4.7-.1 1.3 0 1.3 0s1.8 1.4 2.2 1.8c.5.5 4.2 5.1 4.6 5.8.2.4 3.1 5.8 3.5 7.2.2.5.7 2 .9 2.8.1.3.7 4.3.7 4.3s-1.4.7-1.6-.3c-.1-.5-.5-2.5-.6-2.9-.1-.4-.6-1.2-.7-1.6-.1-.4-.4-1.4-.5-1.8-.1-.4-1-2.5-1.2-3s-.4-1.2-.5-1.4c-.1-.3-1-1.8-.1-2.1.9-.2-.9-2.2-1.3-2.3-.9-.2-2.9-1-3.7-.8-.3.1-.5.6-.3.9.2.3 1.8.6 2.2.8.3.2 1.1.5 1 1 0 .3-.4.7.1 1 .4.3 1 .3.9 1.2-.1.9.2 1.2.5 1.8.3.5.4 1.3.6 1.7.2.4-1 .1-1.2-.3-.2-.5-.8-1.9-1.2-2.2-.3-.3-.8 0-.8.3.1.3.8 1.8 1.1 2.2.4.5 1.5 1 1.8 1.5.3.5.8 1.2 1 1.6.2.3 1 1.1 1.1 2.5.1 1 .5 1.9.6 2.3.1.3-.6.5-.9.2-.4-.4-.7-.8-.7-1.4 0-.7-.5-2.6-1.1-3.5-.8-1.1-1.2-1.5-1.5-1.8-.3-.3-1.4-1.2-1.7-1.7-.4-.5-1-1.5-1.2-2.2-.2-.7-.9-.5-1 .1-.1.6-.1 1.1.6 2 .7.9 1 1.6 1.6 1.7.6.1 1 0 1.4.8.5.8 1.7 2.9 1.7 3.3.1.5-1.2.4-1.4-.3-.2-.6-.7-1.9-.9-2.3-.2-.3-.4-.8-.8-.5-.4.3.2 1.1.3 1.4.2.4-.6.7-1 .3-.3-.4-.6-1.2-.8-1.6-.2-.3-.6-.8-.9-.7-.5.2-.2 1 0 1.5.1.5-.3.8-.7.5-.5-.4-.4-1.4-.8-1.9-.3-.5-.9-.8-1-1.2-.1-.5 0-1.1.3-1.4.5-.4.3-.9.2-1.2-.1-.3-.2-.5-.3-.9 0-.5.3-.6.5-.8.1-.3.1-.7 0-1-.1-.3-.4-.7.2-.9.5-.1.8 0 1.1.1.3.1 1.2.6 1.4.6.3 0 1.3 0 1.1-.8 0-.2-.8-.7-1-.5-.3.1-.8.2-1.1-.1-.4-.3-1.5-1.4-1.6-1.5-.1-.1.5-1.4 1.1-1.6.5-.2 1.3-.4 1.1-.8-.2-.5-1-.6-1.2-.9-.2-.3-.8-.9-1.2-.6-.4.3-.9.3-1.2.4-.3.1-.7.5-.9 1-.1.5-1.3 2.7-1.4 3.4 0 .3-.9 1-.7 1.3.1.3.4.2.7.3.3.1.1.6-.2 1-.3.4-.4.9-.5 1.1-.2.3-.8.2-.9.5.3.6 0 1-.5 1.2zM62.4 17.2s-2.2 1.2-2.6 1.7c-.3.4-.8 2.4-.9 2.6-.2.2-.3.6-.3 1s.1.6-.3 1.6-.7 1.5-.8 2.3c-.2.7.3 1.2-.1 1.9s-.8 1.1-.8 1.5c-.1.4-.4.9-.6 1.2-.2.4-1.2.8-1 .1.2-.7.9-2.7 1.3-5 .5-2.3.5-3.5 1.3-5.9.7-2.2 3.6-3.9 3.6-3.9l1.2.9z"/><path class="st2" d="M54.9 54.8c-.3.3-.8.8-1.2 1-.4.2-.5.9-.5 1.4 0 .5.8 1 1 .9.2-.1.2-.6.1-1s.2-.8.6-.9c.4-.1.3.4.6 1.3s1 1.3 1.4 1.3c.4 0 .8-.1 1.6.1.6.2 1.2.3 1.1.7-.1.4.3 1 .5.9.2-.1.6-.6.6-.9-.1-.3-1-1.2-1.8-1.6-.8-.4-1.2-.4-1.8-1.1-.5-.7-.2-1.9-.2-2.8.1-.9-.3-1.2-.8-1.1-.5.1-.8.3-.7.8.1.5-.1.7-.5 1zm-5.3 3.3c-.8-.2-.6.2-.6.4s.5.6.6.8c.1.1-.2 1.1.6.8.2-.1.4.2.6.5.2.3.1.7.1.9 0 .2.4.4.7.7.5.6 1.5.7 2.1.7.7 0 1.6 0 2.3-.4.6-.3 1.5-.6 1.8-.7.3-.1 1 .2 1.2 0 .3-.2.2-.6 0-.8-.2-.2-.6-.3-.9-.3-.2 0-.5 0-.9-.2-.4-.1-.6-.3-1.2-.2-.6.2-2 .2-2.7-.1-.7-.3-1-1-1.2-1.5-.2-.5-.8.1-1.2 0-.2-.1-.7-.5-1.3-.6zm3.7 7.8c0 .4.3.9.5 1.1.1.2.6.8 1 .9.2.1 1-.1 1.3-.1.6-.1.7-.9 0-1.1-.5-.1-.9-.2-1-.9-.1-.6-.1-.9-.8-.8-.4 0-1 0-1 .9zm3.5-1.7c.3-.1 1.9-.2 2.1-.1.2.1.6.5.7.8 0 .1.6.9.4 1.3-.2.4-.4.6-.4 1.1 0 .4.5.6 1 .4.5-.2.2-.6.9-.9.2-.1.2-1.5.2-1.6 0-.2-.3-1-.4-1.2-.2-.2-.6-.4-.6-.6 0-.2-.2-.6-.6-.6-.4 0-2 .2-2.6.4-.6.2-.9.7-1 .8-.2.1-.2.4.3.2zm12.2-11c-.1.1-.3.4-.2.7.1.3.6.9.9 1.3.3.4.4 1.9.2 2.7-.1.5.4.6.4 1.2.1.6-.5.6-.5.8 0 .2.4 1 0 1.6-.4.4-.1 1.5.2 1.5.5 0 1.1-.6 1.4-1 .3-.3 1.4-2.2 1.2-2.6-.3-.6-.7-.6-.6-1.2 0-.3.4-1.1.3-1.3-.1-.2-.3-.3-.6-.8s-.5-1.1-.6-1.4c-.1-.3-.4-.8-.5-.8-.1 0-.2-.1-.3-.3-.3-.1-.7-.6-1.3-.4zm3.9-.6c-.5-.3-.6-1.1-.8-1.3-.1-.2-1-1.6-1.3-1.7-.3-.1-1.3-1.3-2.3-1.8-1-.5-1.9-.4-3-.3-1.2.1-3.2 1.4-3.5 1.5-.3.1-.7-.4-1.1-.7-.4-.2-.7-.1-1.1-.2-.4-.1-.6-.3-1.1-.6-.5-.3-.8-.1-1.2 0-.4.2.1.5.6.7.5.2 1.1.2 1.4.6.3.4-.2.6-.5.6s-.7-.2-.9-.4c-.2-.2-.6.4-.5.7.1.3.5.3.7.4.3.1 1.3-.2 1.5 0 .2.1.1.6 0 .8-.1.2.1.7.4.9.3.2-1.9-.1-2 .3-.2.7.6.7 1 .7.6-.1.3 0 2.1-.1 2.4-.1 3.9.9 4.6 1.3.7.4 1.4 2 1.4 3.1.1 1.1-.6 1.6-.7 2.5-.1.9.5 3.3.7 3.7.1.4.9.2.8 0 0-.2.1-.4.3-.7.2-.3.4-.3.2-.8s-.4-1-.4-1.9c0-.9.2-.8.5-2.4.3-1.6-.6-3.2-.9-4.2-.4-1-2.4-1.8-2.8-2-.4-.2-.8-.6-.9-.8-.1-.2-.5-.1-.8-.4-.3-.3.4-.6.6-.7.5-.2 1-.8 1.1-.7.4.3-.1.8.1.9.3.2.8-.4 1-.2.3.2.9.6.2.8-.7.2.1.5.4.5.2 0 .9-.5 1.2-.3.2.2-.3.7.2.9.2.1.5.2 1 .2s.4.5.6.5c.2 0 .9-.1 1.4.1.6.2 1.4 1 1.7 1.3.4.5.9-.1 1.1-.3.2-.2-.1-.7-.3-.7.1.1-.4.4-.7.2zM57.7 39.8c-.3.3 0 1.2.2 1.1.4-.1.8-.4.9-.5.1-.1.5-.5 1.2-.4.7.1 1.8.7 2 .8.2.1.6.4.6 1 0 .5-.6.6-1 .8-.3.2-.6.4-.9.4-.4 0-1.1-.4-1.4-.2-.4.1-.7.5-.4.8.3.3.8.1 1.2.1.4 0 .3.8-.2.9-.6.1-.7.8-.3.8.7-.1.8.4.6.6-.2.2-.8.3-1 .5-.1.1.3.5.6.5s1-.4 1.1-.5c.4-.2.8-.1 1.2.2.3.3 1.1-.6 1.9-.7.8-.1 1.5-.4 1.7-.4.4 0 .4.8.6.8.2 0 1.1 0 1.6.1s1.3.5 1.7.4c.6-.2.1-.7 0-1-.1-.2-.1-.4-.2-.7 0-.2-.4-.5-.4-.8 0-.3.3-1.4-.6-1.7-.9-.3-1.3-.2-1.4-.4 0-.2 0-.7-.2-.7s-2.5-.2-2.8-.3c-.6-.2-1.4-1.5-2.4-1.8-.9-.2-1.6-.5-2.4-.1-.6.4-1.1.5-1.5.4zM49 41.9c.2-.2-.4-.4-.8 0-.5.5-.1 1.3.3 1.5.4.2 1.1.4 1.8.1.5-.2.9-.5.9-1.1 0-.3-.4-.5-.7-.6-.4-.1-.4.1-.3.3.1.1.4.3 0 .7-.4.4-1 .2-1.3 0-.4-.2 0-.8.1-.9zm-12 0c-.5.5-.3 1 .1 1.3.3.2 1.5.4 2.2.2.5-.2.9-.8.8-1.2 0-.3-.2-.5-.6-.7-.3-.1-.4.3-.3.6.1.3.3.9-.6 1-.9.1-.9-.6-.7-1 .2-.7-.1-.7-.9-.2zm8.5 11.3c-.5-.4-.2-1.9-.9-1.9-.3 0-.7.3-.9.4-.2.1-.4-.1-1 0s-.3.7-.1 1.1c.3.7 1 .4 1.2.4.2.1.2.3.5.3s.5-.1.8.3c.5.6 1.1 0 .4-.6zM33.9 39.5c-.7.6-1.1.9-.9 1.5.1.7 1.2.9 1.5.9.3 0 .8-.8 1-1.2.2-.4.5-.9.2-1.2-.3-.3-1.1-.6-1.8 0zm3.2 4.5c-.5-.1-.6-.1-1.1-.3-.5-.2-.6.4-.4.6.2.1.9.3 1.8.4.6.1 1.5 0 1.8 0 .3 0 .8-.2.8.4 0 .7-.7.4-1 .4-.4 0-1.3 0-1.8-.1-.6-.1-1.9-.4-2.4-.7-.3-.2-.6-.7-1.1-.8-.5-.1-.9.8-.5.9.2.1.7.4.3.8-.6.6-.2 1.4 0 1.6.2.2.8 1.1 1 1.3.2.2.7.1.9.2.1.1.8.5 1 .9.2.3.6-.1 1-.4.3-.3.7.3.6.6-.1.3-.2.3-.5.9-.3.6-.9.6-1.3.6s-.3.4-.3.4.3.4.3.6c0 .2-.5.4-1 .4s-1-.1-1.3-.2c-.3-.1-.2.4.1.7.3.2.6.9 1.2 1.1.2.1.8 0 1-.1.4-.2 1-.6 1-1s-.3-.7.3-1.1c.5-.3.8.3 1.1.5.3.2.8 0 1.2-.4.4-.3.3-1.3.2-1.8-.1-.5-.6-.4-.9-.7-.5-.4.2-1 .2-1s1.3-.7 1.2-1.4c-.1-.7.1-1.4.3-1.8.1-.2-.4-.3-.1-.9.3-.5 1.2-1 1.2-1.6.1-.6-.4-.8-.8-.9-.4-.1-.5.5-.6 1-.1.6-.6.9-1.2 1-.2 0-1.8 0-2.2-.1zm4.5 17.8c-.3.3-.6.4-.9.5-.3.2-.1 1.2.4 1.2.3 0 .8.3 1 .6.2.4.6.8.8.9.4.2.7.6 1.5.8.8.3 2.5.3 3.1.2.6 0 .1-.6-.2-.6-.3 0-2.2-.3-2.7-.5-.4-.2-.8-.7-.9-.9-.1-.2-.6-.3-.8-.6-.2-.3-.4-1-.5-1.4-.1-.5-.6-.4-.8-.2zm15.7 7c-.3.2-.5.2-.9.4s-.8.6-1.5.7c-.3 0-.9.1-1.1 0-.2-.1-.2-1.1-.3-1.5-.1-.4-.6-.9-.7-1-.1-.1-.1-.2-.3-.5-.2-.3-.5-.6-.7-.5-.2.1-.3.2-.5.2s-.6-.3-.9-.6c-.2-.3-.9-.4-1.2-.4-.3 0 0 .6.2.7.2.2.5.6.6.8.1.2.6.2.9.3.3 0 .7.2.7.6s-.6.4-.7.6c-.2.2-.5.2-.8.1-.3-.1-.2-.6-.6-1-.2-.2-1.2-.7-1.9-.9-.7-.2-2.1.1-2.6.4-.4.3-1.4.7-1.7.7-.3 0-.5-.1-1-.1-.4.1-.9 1.1-1.1 1.4-.2.3-.5.9 0 1.1.5.2 1.2-.1 1.6-.2.4-.1 1.3-.5 1.7-.6.4-.1.9-.3 1.4-.4.6-.1.7-.4 1-.6.3-.2.7 0 .9.1.3.1.6.2 1 .3.4.1.4.3.3.4-.2.2-.5.3-.9.4-.4.1-.9.4-1.1.5-.4.1-1.2.5-1.3.6-.4.2-1.6.8-1.7.9-.1.1-.6.1-.9.2-.3.1-.4.5 0 .8.4.3 1.2.2 1.8.1.7-.1 2.1-.3 3.3-.2 1.1.1 2.5 0 3-.2.5-.3.9-.3 1.4-.3.5 0 .8.1 1.1 0 .2-.2.8-.5 1.4-.7.5-.2 1.4-.5 1.7-.6.3-.2.6-.6.8-.9.3-.3.6-.2 1.1-.4.3-.1.4-.1.3-.3 0-.2-.3-.4-.4-.6-.1-.1 0-.9 0-1.1 0-.2-1-.4-.9.1.1.3-.2.9-.5 1.2zM58 54c-.4.7-.1.6.4 1.1.5.4.4 1.1.4 1.5 0 .5.6.6.9.8.3.2.5.6.8.8.3.2.7.1 1.1.5.4.4.2.9.5 1.4.3.6.9.4 1 .9.1.3-.1.7-.2.9 0 .3.2 1.4.2 2.3 0 .9-.7 1.7-.7 2.2-.1.5.1.4.4.9.2.5-1.1.6-1.2.7-.1.2-.9.9-1 1-.3.2-1.2 1.3-1.2 1.7-.1.9-4 1.1-3.8 3.2 0 .7-1 .5-2.3 1.1-.9.4-2.8-.5-3.4-.5-.6 0-4.9.4-5.4.3-.4 0-1.1-.7-1.4-.9-.5-.3-.9-.6-1.8-.7-.9-.2-1.3-.3-1.4-.5-.1-.2.2-.5.3-.8.1-.3-.1-.6-.3-.8-.2-.2-.3-1-.3-1.3 0-.5.4-1.3.7-1.8.3-.6.6-.6.8-.8.3-.2 1.1-.5 1.1-.8-.1-.3-.4-.7-.7-.9-.4-.3-1.1.1-1.7.3-.6.2-1.5 1.1-1.7 1.4-.1.3-.4 1.1-.6 1.6-.2.5 0 1.4.3 2.3.1.3.2.8.3 1.2.1.4.5.7.8.9.3.3.3.6.3.9 0 .2-.3 1.5 0 1.9.3.4 1.5.5 1.4.2-.1-.2.2-1.8.9-1.8 1.5 0 1.5 1.5 2.2 1.7.1.1 1.2 0 3.2-.1 2.7-.1 5.7-.7 5.8-.7.2-.1 2.7-1.1 2.9-1.2.1-.1 1.8-.7 3-1.2s3.1-1.5 2.9-1.7c-.6-.9 0-1.7.2-2 .4-.3 1.9-1.2 2.1-1.4.6-.5 1.1-1.1 1.2-1.4.1-.3.1-.9.3-1.1.1-.2 1.1-.2 1 .2-.1.4.6.7.9 1 .3.2.9-.7 1-.8.4-.6-.1-1.4-1.2-1.2-.8.1-.4-.9-.5-1.1 0-.2-.7-.3-.8-.8 0-.2-.2-.7-.5-.9-.2-.2-.7-.4-.7-.7 0-.2.3-.3.4-.7.1-.4-.1-.9-.2-1.3s-.3-1.9.1-2c.4-.2.5.3.6.7.1.4.7.5.8.2.1-.2.1-.9-.1-1.5-.1-.4-1.1-1-1.4-1.1-.3-.1-.4-.2-.7-.4-.3-.2-2.3-.1-3.1-.3-.9-.2-1.7-.6-2-.8-.4-.1-.4-.2-.9.2zM35.4 70.3c-.7-.3-1.7.3-1.9.6-.2.5.4 1.1 1.1 1.3.5.2 1.3.2 1.6-.3.3-.5-.3-1.4-.8-1.6zm-.8-2.1c.3-.1.9-.3 1.3-.4.2-.1.6 0 .7-.2.1-.2.6-.8.7-1.2.1-.3.4-.5.8-.7.4-.2.5-.7.6-1 .2-.3.9-.1.9-.7-.1-.6-1.1-.4-1.5-.4-.5 0-1.1.3-1.7.6-.5.2-1 .4-1.3.6-.4.2-.8.5-.9.8-.1.2-.1.5-.4.7-.3.2-.8.3-1 0-.3-.3-.3-.7-.5-.8-.3-.1-.6-.2-.7-.4-.1-.3-.1-.5-.3-.5-.2-.1-.5 0-.6-.3-.1-.4-.1-.7-.4-1-.4-.4-.5-1.2-.7-1.3-.3-.1-.8-.2-.8-.5s.2-.7.5-.8c.4-.1.3-.7.4-1 .1-.3.9-.9 1.6-1.1.6-.2.9-.3 1.1-.2.2.1 0 .6.2.7.2.1 1.8.5 2.2.3.4-.2 1.2-.8 1.8-.8.5 0 .7.2.6.6-.2.3-.9.6-1.1 1-.2.3-.6.7-.6.7s-.4-.1-.8-.1-1.5.1-1.8.9c-.3.8-.2 1.3-.1 1.6.1.2.2.9.3 1.1.1.2.5.2.7 0 .2-.1.5-.7.4-.9-.1-.3-.4-1.4.1-1.6.3-.2.9 0 .9.2s.1.6.3.5c.3-.1.8-.2 1.1-.2.3 0 1 .3 1.2.2 1.2-.1 1.3-.6 1.4-.9.3-.9 1-1.7 1.8-1.4.7.3 1.1-.2 1.4-.4.3-.1.5 0 .8.2.3.2.7 1.4 1.1 2 .4.6.9 1.2 1.2 1.3.3.2.9.2 1 .4.1.1.7.6 1.1.7.4.1 1.7-.2 2-.2.2 0 .8.3 1.1.7l.6.6c.3.2.7.4.6 0 0-.4-.2-1.4-.6-1.8-.4-.4-.6-.8-.9-.8-.3 0-1-.3-1.2-.3-.6-.2-1.1-.5-1.3-.7-.3-.3-.1-.9-.1-1.2 0-.4-.1-1.1-.3-1.6-.5-1.1-.5-1.5-.6-2-.2-.6 0-1.4-.4-1.6-.4-.1-1.2-.3-1.8-.2-.7.1-1 .2-1.3 0-.3-.2-.6-.5-1.3-.5-.7.1-.8 0-1-.2-.2-.1-.6-.2-.9 0-.3.2-.6.5-.3.6.3.1.7 0 .8.2.2.2.3.5.5.7.2.2.6.5.5.6-.1.1-.5.4-.6.3-.1-.1-.7-.4-1.1-.7-.4-.2-.9-.6-1.3-.5-.7.4-.7 1.1-1 1.3-.2.2-.6.3-.8.1-.2-.2-.4-1.1-.6-1.2-.2-.1-.8-.3-1.5 0s-1.1.4-1.4.5c-.4.1-.9.1-1.4.3-.4.1-.9.5-1.8.5-.6 0-1.9-.1-2 .3-.1.4-.3.7-.2 1 .1.3-.3.9-.8.5s-.3-1.4-.2-1.8c.1-.3.7-2.8 1-3.1.3-.3.9-1.6 1.4-1.9.4-.2.9-.2 1 .1.1.3.2 1.3 0 1.5-.1.2-.4 0-.7.2-.3.2-.9 1-.9 1.3 0 .3-.1.5.4.4.5 0 .6-.2.8-.1.1.1.6.2 1 0s1.2-.2 1.1-1.4c-.1-1.2-.1-1.7.1-2.2.2-.5.5-1 0-1.5s-.9-1.1-1.5-1.2c-1.3-.1-.8.5-1.1.7-.2.2-.9.3-1.4.2-.6-.1-1.2-.1-1.5.3-.3.5-.6.7-.6 1.2-.1.4-.4 1.1-.7 1.5-.3.3-.3.6-.5 1.1-.1.5-.3 1.3-.3 1.6 0 .3.6 2.4.9 3 .2.6.6 2 .8 2.3.3.2.5.2.8.1.3-.1.7-.2.9.1.2.3 0 1.5.1 1.8.1.3.4.8.6 1 .2.2.1.4.2.6.1.3.3.4.7.5.3.1.7.2.8.5.1.3.2.6.6.8.4.3.9.6.9.9 0 .3-.4.5-1 .7-.5.2-1.4.2-1.6.5-.2.3-.4.6.1.7.4.1 1.7.1 2.5-.2.8-.3 1.7-.6 1.9-.8.1.2.5-.3.8-.4zm-8.9 1.1c0-.7-.9-1.1-1.4-1.4-1.5-.8-.8-1.4-1.4-1.9-.5-.4-.9 1.4-.8 1.6.1.2.1 1 .5 1.2.4.2 1 .8 1.2 1 .2.2 1.4.9 1.5 1.1.2.1.4-.9.4-1.6zm2 2.6c.2.1 2 1.1 2.5 1.5.5.3 4 2.2 5.1 2.4 1.1.2.4-1.4-.2-1.8-.8-.5-1.6-.7-2.9-1.3-1.2-.6-2.6-1.1-2.9-1.2-1.1-.4-1.6.4-1.6.4zm-8-9.1c-.1.8 1.4.4 1.9.4.6 0 1 .6 1.7.9.7.3.9.7 1.2 1.1.3.4 2.3 1.7 2.7 1.9.9.4.8-.1.3-.7-.6-.7-2.1-3-2.6-3.3-.3-.2-.7-1.7-1.4-1.8-.7-.1-.4.2-1.4-.2-1.1-.4-1.6-.3-1.6 0 0 .4.4.7.1.8-.5.1-.7.3-.9.9zm-.8-1.3c.6-.7.9-1.9 1.4-2.7.6-.9.8-1.1 1.2-1.3.4-.2.5-.4.3-.8-.1-.3 0-.4.6-.7.6-.3 1-.5 1.2-1.1.1-.5 1.1-2.2.7-2.4-.4-.2-.8-.4-.7-.8.1-.3.6-.4 1-.5.3-.2.2-.4-.1-.6-.3-.2-1.1-.2-1.5-.2-.4.1-.6.6-1 .9-.4.3-.7.1-1.1.7-.4.6-.6 2-.8 2.5-.2.5-.3.4-.5.7-.2.3.4.3.6.7.2.4.2.7-.2.7-1.1.1-.5.5-.5 1.1-.1.5-1.1 2.6-1.3 3.1-.3.4.2.8.7.7zm-2.6-4c.3.2 0 1.1.4 1.4.3.3.8-.4.9-1.1.1-.8-.3-2.1.1-2.7.4-.6.7-1 .8-1.6 0-.6.5-1.1.8-1.5.3-.4 1.1-1 1.2-1.4s-.1-.7-.6-.6c-.5.1-1.5 1-2.1 1.4-.3.2-1.7 1.9-1.8 2.1-.3.6.4.8 0 1.6-.2.3-.1.7-.2.9-.6.9-.2 1.4.5 1.5zm6.4-8.1c.3-.2.4-.3.8-.2.4.1 2.4.6 3.8.4 1.4-.2 2.8-.9 3.1-1.3.2-.4.7-.9.9-1.1.2-.2.1-1-.1-1.1-.3-.1-.9-.4-1.2-.1-.3.3-.6.3-1 .3s-1.2 0-2 .3c-.7.2-2.5.9-3.1 1.2-.6.3-1.2 1-1.4 1.2-.4.2-.1.6.2.4zm1.1-31l-2.1 1.7s1.3-.5 1.6.1c.4.8 1 1.2 1.7.9.6-.3 1.1-.1 1.4.5.3.7.7 1 .6 1.7-.1 1.2-1.2 5-.5 7.6.4 1.3.2 1.9 1.7 3.8.8 1 2.4 2.2 2.6 2.5.2.3.3.8.6.6.3-.1 0-1.3-.6-1.9-.6-.6-3.1-2.3-3.4-4.8-.3-2.4.1-3.9.3-4.5.3-.6.3-1.8.3-2.1 0 0 0-.8.5-.7.4.1.5 1.4.5 1.8s.1 1.4.1 1.4.4 1 .4 1.2c0 .3-.4 1.2-.3 1.7.1.4.7.8.9 1.1.2.3-.1.9.1 1.2.3.3 1.1 1.6 1.6 1.7.5.1 2 .7 2.2.4.3-.3.9-1.1-.1-1.3-1-.3-2.7-.9-3.1-2.3-.4-1.4-.3-4.4-2.2-8.2-1.9-3.8-3.1-3.4-3.7-3.6-.5-.3-1.1-.5-1.1-.5zm23.9 2.8c-1.3 3.6-1.4 3.7-1.4 4.8.1 1.1.8 1.2 1.2.5.5-.7.7-1.2 1.2-1.3.4 0 .5.6.4 1.3-.1.8.5.2.9-.3s.6-2.2.6-3.1c.1-.9.2-1.6.3-2.3 0-.7.2-1.7-.2-1.7s-.7.1-.7-.2c0-.5 1.3-1.6 1.7-1.9.6-.5.1-1.4-.6-1-.8.6-2.2 1.6-3.4 5.2zm-21.6-4.8s1.2 1.3 1.4 1.2c.2-.1.5-.9.8-.8.6.1.8 1.1.8 1.5.1.4.6.7.8 1 .3.5 1.1 3.4 1.3 4.2.1.8 1 6.5 1.4 7 .7.9 1.4.9.9-.5-.6-1.8-.7-5.5-.4-6.8.3-1.3-.2-3.7-.5-4.1-.3-.5-.1-1.2.1-1.3.2-.1 1.1.4 1.2 1 .2.6.3 4.1.4 4.6.2.6.5.8.7 1.2.2.5 0 1 .2 1.4.2.5 1.1 2 1.5 2.4.5.5 1 .7 1.1.3.1-.4-1.5-2-1.9-4-.2-1.2-.8-2.2-.8-3-.2-.4-.2-.8-.2-1-.1-.3 0-2.2-.2-2.7s-1.8-1.7-2.1-1.5c-.8.3-1.8-.5-2.1-.9-.3-.2-1.5-.9-1.5-.9s2.4-.9 2.9-1.2c.5-.2 1.4-.4 1.4-.4s-.7 1-.1 1.8c.4.6.6 1.6 1.1.7.7-1.3.3-3.5 1.3-3.8.4-.2 2.3.3 2.8.7.2.2 1 1.3 1.5 1.4.7.1 1.5.2 2 .3.9.1 1.6 1.1 1.8 1.7.6 1.7-.7 3.8-.7 3.8s-.3.6-.2 1.8c.1 1.1 0 1.9.5 1.9s.5-2.3.9-3.1c.4-.8.5-1.6.6-2.3.1-.7 0-3.3-.1-3.6-.1-.4-.6-1.2-1.6-1.4-1-.2-2.6-.8-2.2-1.4.4-.6 2.9-.3 3.2-.2s1.2.3 1.4 1.3c.2 1 .1 3.4 0 3.9 0 .7.7-.1.9 0 .4.3-.5 1.8-.6 3-.2 1.3-.7 2.4-.2 2.5.5.1 1.2-2 2-3.8.8-1.8.6-1.6.6-1.8 0-.2-.2-.9.2-1.2.5-.3 1.9-.4 2.8-.5.6-.1 1-.4.9-.7-.1-.3-1.3-.4-1.6-.4-.5 0-1.4.3-1.6 0-.2-.2.2-2.1.2-2.1s2.2.3 3.1.5c.5.1 3.8 1.4 4.7 1.7.9.3 2.8 1.6 2.8 1.6s-.8-.2-1.3.2c-.8.7-1.6.7-2.3.7-.8 0-2.2-.4-2.9 1.3-.8 1.7-1.4 4.2-1.5 5.7-.1 1.6-.9 3.1-.5 3.3.5.2 1.1-1.1 1.4-2.2.2-.8.6-1.7.8-2 .2-.4 1-1.1 1-.1s-.6 1.9-1 3.1c-.5 1.2-.5 1.8-1 2.2-.8.7-1 1.4-.5 1.3.5-.1 1.2 0 .9.4-.3.5-.9.8-.6 1.1.3.3 1.1.2 1.2-.4.1-.5.1-1.5.4-1.8.3-.3.7.1.5.6-.2.8.6.4.3 1.4-.1.4-.7 1-.6 1.3.1.2.9.7-.9.9-.5.1-2.8-.7-3.5-1.1-.8-.5-1.5-1.2-2.2-1.5-.7-.3-2.2-.7-2.4-.8-.4-.2-.7-.6-.7-.9 0-.3-.8-1.1-1.3-2-.5-.8-1.3-1.8-1.1-3.6.2-1.8.2-4.8-.5-5.7-.7-.9-2.7-2.3-3.2-3-.4-.7-1.5-1.3-2.2-1.3-.5 0-.2 3-.2 3.8 0 .8.3 1.3.6 1.5.3.1.7.9.6 1.5 0 .8-.8.5-.6 1.5.1.7.5.5.8.6.3 0 .4 1.2.2 1.4-.2.2-.5.3-.4.7.1.4.2 1.5.7 1.5.5 0 .7-.7.7-1.1s.1-4.3.3-5c.1-.7-.3-1.4-.7-1.9-.4-.5-1.4-1.2-1.3-1.8.2-.7.3-1.4.6-1.3.4.2.4 1 .5 1.2.2.2 2.5 1.9 3 2.6.4.6.4 3.3.4 3.7 0 .5-.7.9-.7.5-.1-.8.3-1.9-.5-2-.5 0-.7.8-.6 2 .1 1.2.3 3.8.6 4 .3.2.7.3.8.8.1.5.4 1.1.9 1.2.6.1 1.2.3.8.6-.6.4-1.6.7-2 .8-1.3.1-2.2 1-2.9 1.5-.8.6-1.4 1.8-1.8 2.7-.1.2-.2 1.1-.7 1.6-.6.6-1.4 1-1.8 1.2-.5.2-.9.8-.2.7.8-.2 2.2-.9 2.4-.1.1.8-1.2.8-1.7.9-.5.1-1.5.7-1 1.2.3.3 1.3-.6 2-.6.8 0 1.7.5 2.4.6.7.1 2 .2 2.6 0 .5-.1 2.5-1.5 3.5-1.4.8.1 1.6.7 2.3 1 .9.4 1.8 1 3.7 1 2 0 3.3-.8 3.5-.3.2.5-.2.6-.3 1.1 0 .5.1.9-.1 1.1-.3.3-1-.1-1.2-.3-.2-.2-.5-.6-.8-.6-.3 0-1.3.1-1.2.3.1.2.4.4 1.1.4.5 0 1.5 1.2 1.8 1.4.3.2 1.1.8 1 1.1-.1.3-.3.3-.6.2-.3-.1-.4-.5-.8-.5-.4.1-.7.7-1.2.8-.5.2-1.6.3-2.1.1-.7-.2-1.2-.6-1.6-1-.4-.5-.8-1.3-1.3-2.1s-1.3-1.8-1.7-1.7c-.5.1-.6 1.1-.5 1.9.1.9.5 1.5.4 1.9-.2.4-.7.9-.8 1.5 0 .9.6.5.6.9s-.1 1-.4.9c-.3-.1-.9-.2-1 .3-.1.5.2.4.6.5.4.1.4.7.4.9.1.2.1.5.5.7.6.2.7-.3 1.2-.2.6.1.7.2 1 .3.5.1 1.2 0 1.3-.2.2-.2 0-.8-.2-1.1-.2-.3-.4-.9 0-1 .5-.1.7.5.8.7.1.2.4.7.6 1 .2.3.5.4.9.7.3.3.4.6.5.9.1.4.9.5 1.2.8.2.3.2.9.6 1.4.4.5.8.9.4 1.3-.4.5-1.4-.8-2.1-1.5-.6-.7-1.5-1.7-2-1.7s-.5.6-.3 1.6c.2 1.1.3 1.7.5 1.7.1.1.4 0 .6 0 .2.1.7 1.1 1.4 1.5.7.5 1.4.8 2.1.6.7-.2.4-.8.6-1 .2-.2 1-.5 1.4-.5s.5-1.2.5-1.4c0-.2-.3-.6-.2-.9.1-.3.5-.6.5-.8 0-.2.1-1 .3-1.6.3-.7.7-1.8.5-2.9-.1-.6-.1-1.2.2-1.9.2-.8.3-1.1.2-1.7-.1-.7-.3-1.1-.3-1.5 0-.3-.5-.8-.4-1.5 0-.3.3-1.1.4-1.7 0-1.2-.1-1.6-.3-2.1-.3-.7-.8-1.4-1.1-1.5-.7-.3-.5-.6-.8-.9-.2-.1-.5-.6-.1-.7.4-.1.6.1 1.2-.1s.5-.8.8-.8c.3 0 1.3.2 1.2.5-.1.3-.3 1 .8.4.3-.2.5-.4.9-.2s0 .6-.2.8c-.2.2-1 .5-1 .6 0 .1-.2.5.3.5.4 0 1-.3 1.2-.5.2-.2.3-.5.6-.5.4 0 .2.3.9.2.7-.1.9-.4 1.2-1.6.3-1.2.6-3.5.8-4.9.1-1.4.2-2.4.3-2.6.1-.4.3-.7.4-.9.1-.2.6-1.2.9-1.4.3-.2 1-.1.7.5-.3.7-.8 1-.8 1.5s.3 1.1.2 1.5c-.1.4-.8.5-.8 1.1.1.6.3 2.1.3 2.5 0 .4-.7.5-.6 1.1.2.5.3.9.1 1.3-.2.5-.6 1.2-.7 1.5-.1.3-.2 1.8-.5 1.9-.5.2-1.2 0-1.6.3-.3.2-.4.8-.8.8s-.7.2-1 .5c-.3.2-.5.9-.1.7.5-.2 1.5-.9 1.8-.9.4 0 .9 0 1.1-.1.2-.1 1-.4 1.4-.7.4-.3.5-.9.5-1.1 0-.1.8-.1.8.2s.2 1.3.1 1.6c-.2.3-.7.8-.7.8s-1.1.4-1 .8c.1.4.9.2 1.4 0 .5-.2 1.2-.7 1.3-.6.2.1-.5 1-.3 1.7.2.8 1.7.9 2.2.7.5-.2.6-.5.8-.6.2-.1 1-.1 1.4 0 .4.2 1 .3 1 .5s-.8.4-.6.8c.2.4.4.4.9.3.5-.1 1 .1 1.6.2.6.1 2.5.7 3.2 1 .4.2.9.8.9 1.8 0 1.1 0 2.2-.3 2.2-.6 0-.6-1.3-1-2.1s-1.4-1.4-1.5-1.2c-.1.2-.4.4.1 1s.8.9.8 1.4c0 .5.1.8.1 1 .1.2.5.7.5 1-.1.5-1.1.3-1.4.1-.2-.2-.2-2.2-.4-2.6-.2-.4-.9-1.8-1.5-2.1-.6-.3-1.2 0-1 .7.2.7.4 1.6.8 1.8.4.2.7.7.7.7l-.1.5s0 1.1.1 1.4c.2.3.6.5.7.7.1.2.5 1.4.8 1.9.4.5.2.7.8.7.5 0 .7-.4.8-.9.1-.5 1.8-.4 1.8-.4s-1 4.4-1.4 5.5c-.2.4-2.6 5.3-3.5 6.7-.9 1.5-4.4 5.8-5.2 6.3-.6.4-2.9 2.4-3 2.6-.1.2-6 3.5-6.4 3.7-.4.2-5.5 1.9-6.6 2.1-1.1.2-6.4.5-6.9.5-.8-.1-4.6-.5-5.8-.7-1.2-.2-9.1-3.2-9.7-3.5-.8-.5-7.4-5.8-7.7-6-.3-.2-5.2-7.1-5.5-7.7-.2-.5-2-4.6-2.1-5.1-.1-.5-1.6-6.9-1.7-7.4-.1-.5 0-5.1.1-6 .1-1 .8-4.6.9-5.4.1-.8 1.4-4.3 2.4-6.4 1-2.1 2.4-3.8 3.9-5.7 1.6-1.9 6.1-5.8 6.5-6.3.1-.7 1-1 1-1zM13.2 51.8c0 .3 1 .7.7 1.2-.6.9.9 1.3.6 1.9-.3.6-.5 1.2-.8 1-.4-.2-1.6-4.1-1.8-5-.1-.5-.4-3.3-.4-4 0-.6.8-.9.8-.9.2-.2 2.2-1 2.4-1.1.4-.2 1.8-1.4 1.9-1.7s.2-1 .2-1.6c0-.5.1-1-.2-1.1-.4-.1-.8.1-.8.5-.1.3-.3 1.1-.6 1.1-.6-.1-.9 1-.9 1.3 0 .7-1.3.8-1.2.2 0-.3.6-2.2.6-2.9 0-.5-.5-1-.3-1.5.2-.4.3-2 .4-2.3.3-.5 1.5-.9.9.7-.2.5-.4 1.1.1 1.3.3.1.5.1 1-.9.3-.7 1.5-.4 1 .8-.5 1 .6.9.9 1 .2.1.3.6.2.9.1.3.6.4 1 .3.4-.1 2-.9 2.9-.7 1.1.2 1.6.4 1.9.5.3.1.9.1.8-.3-.1-.5.4-1.4.5-1.7.1-.3.7-.7.6-1.1-.1-.4-1.3-.8-1.6-.9-.3 0-.6 1-.7 1.7-.1.6-1 .6-1.2.1-.3-.7-.7-.8-.9-1.8-.1-.7-.7-.7-1.2-1.1-.8-.7-.2-1.2-.2-1.4-.1-.8-.9-.9-1.2-.6-.3.3-.8 0-1.1-.1-.5-.1-1.6.1-2.1.2-.7.1-.8.4-.9.7-.2.6-1.6-.2-1.6-.2s1.7-3.6 2.1-4.7c.3-.9 1.8-3.1 1.8-3.3.2-.6 1.1.3.3 1.4-.5.7-1.9 3-2.3 4.3-.3.8 1 .7 1.2.2.2-.3 1.3-2.7 1.9-3.6.6-1 1.8-3.2 2.1-3.7.2-.5.8-1.1 1.1-1.6.3-.6 1.2-.6.8.6-.3 1.2-2 3.8-2.4 4.4-.4.6-1.6 2.8-1.7 3.1-.1.3-.2.9 0 .9.2.1 1.2-.3 1.4-.7.3-.4 1.3-3.1 1.6-3.6.3-.5 1.1-2.1 1.5-2.5.4-.5 1.4.2.9.9-1 1.7-2.1 3.8-2.5 4.4-.5.7 0 1.6.8.8.7-.7 1-1.5 1.3-2.1.3-.6.9-1.5 1.1-1.8.2-.3 1.1 0 .9.5-.1.6-.8 1.8-1.2 2.2-.4.4-.6.9-.9 1.3-.2.4 0 .8.4 1 .5.4.8.3 1.2.7.4.4.8.9 1.2 1.1.4.2 1 .4 1.3.9.3.6.7 1.5 1.4 1.8.6.2.8.4 1.1.9.5.7.8.9 1.2.8.6 0 .6.7.7 1.2.1.3-.5 1.4-.5 1.9 0 .6.1 2.1-.3 2.3-.3.2-1.1-.2-1.3 0-.3.2-1 .1-1.1-.2-.2-.4-.7-.4-1-.2-.4.3-.8.2-1.1 0-.2-.2-.7 0-1 .1-.9.4-.7-.4-.7-.4s.2-.7.6-.7c.2 0 .6.2.8.1.2-.1.5-.6.7-.9.3-.2.7-.3.5-.8-.1-.3.2-.5.4-.6.4-.1.9-.1 1.1-.3.1-.2.1-.9-.4-1.4-.5-.4-1.8-.1-1.9.9-.2 1.2-1.3 1.7-2.1 1.9-.9.2-1.2 0-2-.4s-2.4-.4-3-.2c-.6.2-.9 1.1-.4 1.1s1.7.2 2.2.2c.8 0 1.4.3 1.7.9.3.7.3.7-.7.6-2-.3-3.9.1-5 .4-.4.1-1.8 1.3-2 1.4-.1.1-1.1.6-1.8 1.2-.7.5-.6 1.1-.5 1.8 0 .2.2 1.3.3 1.5 0 0 .6-.7.8-.9.2-.2 1.4-.9 2.1-1.7.6-.7 2.3-1.7 2.8-1.9 1.5-.7 3.2-.6 3.6-.5.4.1 1.2.7.7 1.3-.5.5-1.4 1.2-1.8 1.4-.4.2-.7-.1-1 .2-.3.3-1 .9-1.3.8-1 0-2.2.2-2.5.3-.6.1-1.8.6-2.3.9-.2.7-.6 1.3-.6 1.6z"/><path class="st3" d="M96.7 47.9v14.5c0 .4.6.7.9.9.7.3 1.4.4 1.4.4h3.1s2.2.1 4-1c2.1-1.4 2.7-4.3 2.6-6.6-.1-3.1-1.3-4.8-3.1-6.4-2-1.8-6.5-1.7-6.5-1.7h-2.4zm0-15v10.7s.1.6.2.8c.2.4.8.5.8.5h1.6s1 0 1.8-.2c.6-.1 2.2-1.1 3.2-2.3.7-.8 1.4-2.8 1.4-4.1 0-3.1-1.1-4.3-2.6-5.1-2.1-1-4.7-1-4.7-1h-1s-.5 0-.6.2c-.1.2-.1.5-.1.5zm-8.5-3.1c0-.9 1.7-.6 1.7-.6h9.8s6 .2 8.4 2.8c4.6 5.1 2.2 10.5.6 11.8-1.2 1.1-3.2 1.6-3.2 1.6s2.9.6 4.9 2.4c2.3 2 5 9.3 2.1 14-2.7 4.4-6.3 5.1-10.8 4.9-4.1-.2-3.3-.6-7.5-.5-3.5.1-5.3.2-5.3.2s-1.4.1-1.3-.8c.2-.9.9-.7 2.1-1.5.8-.5 1.4-2 1.6-3.3.3-1.6.3-4 .3-4V36.5v-.7c0-2.5-2-4.7-2.8-5-.5-.3-.5-.4-.6-1zM126.6 46.8h8.6l-4.6-11.2-4 11.2zm-14 19.2c.2-1.2 1-.2 2.6-1.9 1.2-1.2 2-2.5 2.7-4.1.4-.8 1-2.4 1-2.4l8.9-24.2s.1-.8.1-1.4c0-.6-.1-1.1-.1-1.1s.4-.1.7-.1c.3-.1.9-.2.9-.2l3.9-1.3 10.9 26.9s1.7 4.8 3.6 7.1c.7.9 1.6 1.6 2.5 1.6 1.6.1.7 1.7-.3 1.7-.8 0-3.8-.1-6.3 0-2.8 0-8.1.2-8.1.2s-1.1.1-.9-.8c.3-1.1 1.2-.9 1.8-1 1.6-.3 3.7-1.1 4.1-2.7.3-1.2-.6-3.3-.6-3.3l-3.7-9.1h-10.7l-3 8.7s-.4 1.2-.5 1.8c-.1.6-.1 2.5.7 3.5.8 1 3 1.2 4 1.3 1 .1.2 1.6-.6 1.6s-4.1-.1-6.5-.2c-2.4-.1-6.4.2-6.4.2s-.7 0-.7-.8zM148.6 29.9s1 .1 2.4.2c1.3.1 3.3.2 3.3.2h14.5s2.4 0 4.7-.2c1.8-.2 4.7-.4 4.7-.4s-.2 2-.6 4.5c-.4 2.5-.8 4-.8 4s-.2.9-.4 1c-.2.2-1.6.6-1.6.6s.3-1.7.2-2.6c-.1-1.2-.4-3-1.2-3.6-1.4-.9-3-.9-4.3-1-1.3-.1-3.4 0-4 .4-.6.4-.5 1.5-.5 1.5v24.4s-.1 3 1.3 4.1c1.3.9 3.3 1.5 3.3 1.5s1.4 0 1.1 1c-.2.7-1.1.8-1.1.8s-5.1-.2-7.6-.2c-3.7 0-6.7.2-7.8.2-1.4 0-1.1-1.7.2-1.9.7-.1 2.7-.2 4-1.7 1.4-1.5 1.6-4.5 1.6-4.5V35.7s-.1-1.7-.6-2.2c-.9-1-3.2-.9-5-.7-2.3.2-3.7 1.1-4.3 2.6-.6 1.6-.9 3.6-1.4 3.8-.5.3-1.7.6-1.7.6s.5-2.5 1-5.4c.2-2 .6-4.5.6-4.5zM181.3 29.5c-1.2-.1-1.5 1.7-.8 1.8.9.2 1.6.1 2.4 1 1 1.1.7 3.5.7 3.5v22.1s0 2.5-.2 3.7c-.2 1.8-1 2.5-2 2.9-.9.4-1.5.4-1.7 1.3-.1.9.9.8.9.8s2.3-.2 5.4-.2c3.1 0 6.2.2 7.2.2s1.5-1.5.1-1.8c-1.6-.2-3.1-.5-4.2-1.5-.9-.8-.7-2.9-.7-2.9V47.3H206v13.1s0 2.9-1.5 3.4c-1.4.5-2.2.5-3.2.7-1.1.2-2 2.1-.8 2.1s4.9-.3 7.9-.3c1.7 0 4.5.2 4.9.2.9 0 1.3-.4 1.4-.9.2-.7-.7-.9-1.2-1.1-.7-.2-1.3-.5-1.9-1.4-.7-1.1-.5-3.4-.5-3.4V35.9s-.1-2.3.6-3.4c.8-1.2 1.2-1.1 1.9-1.3 1-.3 1.2-1.7.3-1.6-.9.1-3.9.3-5.5.2-2.6 0-5.3-.2-6-.2-1.2 0-1.4 1.8-.5 1.8 1 0 2.5.3 3.3 1.3.8 1.2.8 3.3.8 3.3v8.1h-17.5v-8.2s-.1-2.8 1.2-3.6c.9-.6 1.7-.6 2.8-.8 1-.2 1.6-2 .5-1.9-1.1.1-4.1.1-6.6.1-2.6 0-4.1-.1-5.1-.2z"/><path class="st2" d="M89.7 13.1v.7l.9.1.2.2V19c0 1.1.1 1.9.6 2.6.6.7 1.6 1.2 3 1.2 2.7 0 3.7-1.1 3.7-3.7v-4.9l.2-.2.9-.1v-.7H96v.7l.9.1.2.2V19c0 1.9-.6 2.8-2.1 2.8-1.7 0-2.3-.8-2.3-2.6v-4.9l.2-.2.9-.1v-.7h-4.1zM101.5 22.6h3.2v-.7l-.9-.1-.2-.2V15l4.9 7.6h1.6v-8.4l.2-.3.8-.1v-.7h-3.2v.7l.9.1.2.3v6l-4.3-6.7v-.4h-3.2v.7l.9.1.2.2v7.5l-.3.2-.8.1zM113.5 22.6h4.2v-.7h-.9l-.3-.3v-7.5l.3-.2.9-.1v-.7h-4.2v.7l.9.1.2.2v7.5l-.2.3h-.9zM119.5 13.1v.7l.9.2 3.2 8.6h1.4l3.2-8.6.9-.2v-.7H126v.7l.8.1.2.2-2.3 6.5-2.3-6.5.1-.2.8-.1v-.7zM130.8 22.6h7.6v-2.5h-1l-.2 1.5-.2.2h-3.3v-3.7h1.9l.2.2.1 1.1h.9v-3.3h-.9l-.1 1-.2.2h-1.9v-3.4h2.9l.1.2.3 1.3h.9v-2.3h-7.1v.7l.9.1.2.2v7.5l-.2.3h-.9zM143.9 13.9v3.7h.5c1.5 0 2.2-.6 2.2-1.9 0-1.2-.7-1.8-2.1-1.8h-.6zm-2.9-.8h4.3c2.2 0 3.3.8 3.3 2.4 0 1.3-.8 2.1-2.4 2.4.7.2 1.2.4 1.5.9.4.6.6 1.4.8 2.1.3.8.7 1 1.7 1h.2v.7c-.5.1-1 .1-1.4.1-.6 0-1.1-.2-1.5-.4-.7-.6-.9-1.2-1.1-1.9-.4-1.3-.8-1.9-2.2-1.9h-.2v3.2l.2.2.9.1v.7h-4V22l.8-.1.2-.2v-7.5l-.2-.2-.8-.1v-.8zM152.5 22.3c.9.3 1.8.5 2.7.5 2.3 0 3.7-1.2 3.7-2.9 0-.8-.5-1.6-1.3-2.1s-1.6-.7-2-1c-.7-.5-1.1-.9-1.1-1.5 0-.8.6-1.3 1.7-1.3.5 0 .8.1 1 .2l.2.2.2 1.5h1v-2.3c-.9-.3-1.8-.5-2.7-.5-2 0-3.3 1.2-3.3 2.8 0 .7.3 1.4 1 1.9.6.5 1.3.8 1.9 1 1 .5 1.5 1 1.5 1.8s-.7 1.3-1.8 1.3c-.4 0-.8-.1-1.2-.2l-.2-.2-.2-1.7h-1.1v2.5zM161.8 22.6h4.3v-.7h-1l-.2-.3v-7.5l.2-.2 1-.1v-.7h-4.3v.7l1 .1.2.2v7.5l-.2.3h-1zM168.3 13.1v2.5h1l.2-1.5.3-.2h1.7v7.7l-.3.3h-.9v.7h4.2v-.7h-.9l-.2-.3v-7.7h1.7l.2.2.2 1.5h1v-2.5zM178.2 13.1v.7l.9.2 2.7 4.9v2.7l-.2.2-1 .1v.7h4.2v-.7l-.9-.1-.2-.2v-3.1l2.6-4.5.9-.2v-.7h-3.1v.7l.8.2.2.2-2.1 3.5-1.9-3.6.1-.2.8-.1v-.7zM198.1 13.8c-1.6 0-2.7 1.5-2.7 4 0 2.6 1.1 4.1 2.7 4.1s2.7-1.5 2.7-4c-.1-2.6-1.2-4.1-2.7-4.1zm-4.8 4c0-1.5.5-2.8 1.5-3.7.9-.8 2-1.2 3.3-1.2 1.2 0 2.2.4 3.1 1.1 1.1.9 1.7 2.3 1.7 3.9 0 1.5-.5 2.8-1.5 3.7-.9.8-2 1.2-3.2 1.2-3 0-4.9-2-4.9-5zM205.5 22.6h4.1v-.7h-1l-.2-.3v-3.3h1.9l.2.2.1 1h.9v-3.2h-.9l-.1 1-.2.2h-1.9V14h2.7l.2.1.2 1.4h1v-2.4h-7.1v.7l.9.1.2.2v7.5l-.2.3h-.8z"/><path fill-rule="evenodd" clip-rule="evenodd" fill="none" stroke="#004990" stroke-width="2.8624" stroke-miterlimit="3.8637" d="M88.3 75.3h125.9"/></g></svg>