<svg xmlns="http://www.w3.org/2000/svg" viewBox="-237 80.6 484.5 400.2"><style type="text/css">  
	.st0{fill:#010002;}
</style><path class="st0" d="M-19.5 220.7c4.3-2.8 8.3-5.5 12-7.7 8.7-5.3 11.5-16.6 6.2-25.2 -5.2-8.7-16.5-11.5-25.2-6.2 -4.1 2.4-8.5 5.4-13.3 8.6 -15.4 10.2-38.9 26.1-52.1 22.4 -9.6-2.7-10.8-9.4-14-14.2 -6.8-12.6-21.3-20.9-34.4-20.7 0 0-11.7 0-25.9 5.6 -64.1 22.9-64.3 38-64.3 45.4 0 6.8 0.1 13.3 19.1 24.3h-25.7l-0.1 213.7h160.1l10.6-97.8c0 0-53.1-3.9-79.5-7.7 -31.8-4.6-37.3-33.9-37.3-33.9l-16.5-68.2c9.5 4.6 21.8 9.9 38 16.2 2.2 0.8 4.4 1.2 6.6 1.2 7.4 0 14.3-4.5 17.2-11.8 3.6-9.5-1.1-20.1-10.6-23.8 -10-3.9-21.2-8.6-30.4-12.8 1.6-0.7 3.3-1.5 5-2.2l25.7 10.2c15.5 6 19.8 18.5 15.2 30.4 -3.4 8.9-13.7 20-31.9 12.8 -5.6-2.2-10.6-4.2-15.4-6.1l8 51.8c2.3 14.7 11.3 22.4 27 26.6 7.6 3.2 89.7 9.4 89.7 9.4 -2.8 32.2-8.4 85-9.1 91.1 -1.8 12.8 6.5 25.1 19.3 28 1.9 0.4 3.7 0.6 5.5 0.6 11.5 0 21.8-7.9 24.4-19.6 1.1-4.9 10.7-119.8 10.8-121 0.6-7-2.1-14.6-6.8-19.7 -6.1-6.6-11.5-12.5-76-14.7l-8.8-56.9c2.6 0.4 5.2 0.7 7.9 0.7C-63.2 249.7-38.4 233.2-19.5 220.7z"/><circle class="st0" cx="-147.9" cy="128" r="47.3"/><path class="st0" d="M247.4 253.1h-25.7c19-11 19.1-17.6 19.1-24.3 0-7.4-0.2-22.6-64.3-45.4 -14.2-5.6-25.9-5.6-25.9-5.6 -13.1-0.3-27.6 8.1-34.4 20.7 -3.2 4.8-4.3 11.4-14 14.2 -13.2 3.7-36.6-12.2-52.1-22.4 -4.8-3.2-9.2-6.1-13.3-8.6 -8.7-5.2-20-2.5-25.2 6.2 -5.3 8.7-2.5 20 6.2 25.2 3.6 2.2 7.7 4.9 12 7.7 18.9 12.5 43.7 29 68.6 29 2.6 0 5.3-0.3 7.9-0.7l-8.8 56.9c-64.5 2.2-69.9 8-76 14.7 -4.7 5.2-7.4 12.8-6.8 19.7 0.1 1.1 9.7 116.1 10.8 121 2.6 11.7 13 19.6 24.4 19.6 1.8 0 3.7-0.2 5.5-0.6 12.8-2.9 21.2-15.2 19.3-28 -0.7-6.2-6.3-59-9.1-91.1 0 0 82.1-6.2 89.7-9.4 15.7-4.2 24.7-11.9 27-26.6l8-51.8c-4.8 2-9.8 3.9-15.4 6.1 -18.1 7.2-28.4-3.9-31.9-12.8 -4.6-11.9-0.3-24.5 15.2-30.4l25.7-10.2c1.7 0.8 3.5 1.5 5 2.2 -9.3 4.3-20.4 9-30.4 12.8 -9.5 3.6-14.2 14.3-10.6 23.8 2.8 7.3 9.8 11.8 17.2 11.8 2.2 0 4.4-0.4 6.6-1.2 16.2-6.3 28.5-11.5 38-16.2l-16.5 68.2c0 0-5.6 29.3-37.3 33.9 -26.4 3.8-79.5 7.7-79.5 7.7l10.6 97.8h160.1L247.4 253.1z"/><circle class="st0" cx="158.4" cy="128" r="47.3"/></svg>