<?xml version="1.0" encoding="utf-8"?>
<!-- Generator: Adobe Illustrator 19.0.0, SVG Export Plug-In . SVG Version: 6.00 Build 0)  -->
<svg version="1.1" id="Layer_1" xmlns="http://www.w3.org/2000/svg" xmlns:xlink="http://www.w3.org/1999/xlink" x="0px" y="0px"
	 viewBox="-568.8 423.2 272.2 243.7" style="enable-background:new -568.8 423.2 272.2 243.7;" xml:space="preserve">
<style type="text/css">
	.st0{fill:none;}
</style>
<rect x="-454.1" y="519" class="st0" width="43.1" height="53.5"/>
<path d="M-560.6,430.7c6-5.2,12-7.5,19.5-7.5c6.7,0,13.5,2.2,18.7,7.5c5.2,5.2,8.2,11.2,8.2,18s-3,13.5-8.2,18
	c-5.2,4.5-12,7.5-18.7,7.5c-7.5,0-13.5-2.2-19.5-7.5c-6-4.5-8.2-10.5-8.2-18S-565.8,435.9-560.6,430.7z M-517.1,504.9v157.5h-50.2
	V504.9H-517.1z"/>
<path d="M-296.6,504.9v157.5h-50.2v-19.5c-15,15.7-33,24-52.5,24c-23.2,0-42-6.7-57-21c-14.2-14.2-21.7-34.5-21.7-62.2
	c0-17.2,3.7-32.2,10.5-45.7c6.7-12.7,16.5-23.2,28.5-30.7c12-7.5,24-10.5,37.5-10.5c14.2,0,24.7,2.2,33,6c8.2,4.5,15,10.5,21.7,18
	l3-16.5h47.2L-296.6,504.9L-296.6,504.9z M-346.8,601.7v-38.2c-3-7.5-7.5-13.5-15-18c-6.7-4.5-15.7-6.7-24.7-6.7
	c-11.2,0-20.2,3.7-28.5,12c-7.5,8.2-12,18.7-12,30.7c0,8.2,2.2,15.7,6,22.5c3.7,6.7,9,12,15,15.7c6,3.7,13.5,6,21,6
	C-367.1,625.7-354.3,617.4-346.8,601.7z"/>
</svg>
