<svg xmlns="http://www.w3.org/2000/svg" viewBox="-264 75.4 430.1 411"><path d="M166.1 327.4v159H73.9V338.1c0-37.3-13.3-62.7-46.7-62.7 -25.5 0-40.6 17.1-47.3 33.7 -2.4 5.9-3.1 14.2-3.1 22.5v154.9h-92.2c0 0 1.2-251.3 0-277.3h92.2v39.3c-0.2 0.3-0.4 0.6-0.6 0.9h0.6v-0.9c12.3-18.9 34.1-45.8 83.1-45.8C120.6 202.6 166.1 242.2 166.1 327.4zM-211.8 75.4c-31.5 0-52.2 20.7-52.2 47.9 0 26.6 20 47.9 51 47.9h0.6c32.2 0 52.2-21.3 52.2-47.9C-160.9 96.1-180.3 75.4-211.8 75.4zM-258.5 486.4h92.2V209.1h-92.2V486.4z"/></svg>