<svg xmlns="http://www.w3.org/2000/svg" viewBox="-286.1 127 383.5 289.6"><style type="text/css">  
	.st0{fill:#222222;}
	.st1{fill:#888888;}
	.st2{fill:#48484A;}
	.st3{fill:#0000FF;}
	.st4{fill:#347DAC;}
	.st5{fill:#60AEBF;}
	.st6{fill:#00FFFF;}
	.st7{fill:#DBDADA;}
</style><path class="st0" d="M-94.7 238c0 0.2-0.7 0.3-1.6 0.3 -0.9 0-1.7 0.1-1.8 0.3 -0.3 0.5-6.3 0.4-6.8-0.1 -0.5-0.4-6.3-0.5-6-0.1 0.1 0.1 0 0.4-0.3 0.5 -0.3 0.2-0.3 0.3 0 0.4 0.3 0.1 0.4 1.2 0.3 4.3 0 2.3 0 4.3 0.1 4.3 0.4 0.4 28.2 0.1 28.6-0.2 0.3-0.3 0.6-7.3 0.4-9.4 0-0.2-0.8-0.3-2-0.2 -1.4 0.1-2 0-2-0.2 0-0.2-0.3-0.1-0.9 0.3 -1.3 0.9-6.2 0.9-7.3 0C-94.3 238-94.7 237.8-94.7 238M-96.4 261.8c0 0.2 0.4 0.4 0.8 0.4 0.4 0 0.7-0.2 0.8-0.4 0-0.2 0-0.2-0.1-0.1 -0.1 0.2-0.4 0.3-0.7 0.3C-95.9 262.1-96.2 261.9-96.4 261.8 -96.4 261.6-96.4 261.6-96.4 261.8M-51.1 278.4c0.2 0.4 0.4 0.6 0.4 0.4 0.1-0.4-0.2-1.2-0.5-1.2C-51.3 277.7-51.3 278-51.1 278.4M-50.6 280.1c0 0.3 0.2 0.7 0.4 0.9 0.6 0.5 0.6 0 0-0.8C-50.5 279.7-50.6 279.7-50.6 280.1M-48.4 287.2c0.3 0.3 0.5 0.9 0.5 1.4 0 0.8 0.1 0.8 0.2 0.2 0.2-1.1-0.2-2.1-0.7-2.1C-48.8 286.7-48.8 286.7-48.4 287.2M-47.6 290.1c0 0.2 0.2 0.5 0.5 0.6 0.3 0.1 0.4 0 0.4-0.3C-46.9 289.7-47.6 289.5-47.6 290.1M-45.8 296.9c0 0.2 0.1 0.3 0.3 0.2 0.2 0 0.4 0.3 0.5 0.7 0.2 1 0.4 1.2 0.4 0.3 0-0.7-0.5-1.5-1-1.5C-45.7 296.6-45.8 296.7-45.8 296.9M-44.3 300.3c0 0.2 0.1 0.5 0.3 0.6 0.2 0.1 0.3 0 0.3-0.3 0-0.2-0.1-0.5-0.3-0.6C-44.2 299.9-44.3 300-44.3 300.3M-43.7 303.3c0 0.2 0.2 0.5 0.4 0.6 0.5 0.2 0.5 0.1 0.3-0.5C-43.2 302.7-43.7 302.7-43.7 303.3M-39.8 316.1c0 0.2 0.3 0.6 0.6 1 0.5 0.5 0.6 0.6 0.6 0.2 0-0.3-0.2-0.7-0.5-1C-39.6 315.7-39.8 315.6-39.8 316.1M-145.4 330.1c-0.3 0.4-0.6 1-0.6 1.3 0 0.3-0.2 0.7-0.4 0.9 -0.2 0.2-0.4 0.6-0.4 0.8 0 0.2-0.2 0.8-0.4 1.2 -0.2 0.4-0.7 1.5-1.1 2.3 -0.4 0.8-0.8 2-1.1 2.6 -0.3 0.6-0.7 1.5-0.9 2.1 -0.6 1.4-1.3 3-2.5 5.4 -0.5 1.1-0.9 2-0.9 2.2 0 0.1-0.5 1.2-1 2.4 -2.1 4.4-2.7 8.8-1.4 9.9 0.8 0.7 139.4 0.6 139.9-0.1 0.9-1.3 0.2-5.8-1.3-8.3 -0.8-1.3-1.6-2.7-1.7-3 -0.2-0.3-0.4-0.9-0.6-1.2 -0.2-0.3-1-1.7-1.7-3 -0.7-1.3-1.5-2.7-1.7-3 -0.2-0.3-0.5-0.9-0.7-1.4 -0.2-0.4-0.7-1.3-1.1-2 -0.4-0.7-1.1-1.8-1.5-2.6 -0.4-0.7-1-1.9-1.4-2.5 -0.4-0.7-1-1.8-1.4-2.5 -1.3-2.5-0.9-2.4-8.9-2.4h-7.1l-1 0.9c-0.6 0.5-1.7 1.2-2.5 1.7 -0.8 0.5-1.7 1-2 1.2 -1 0.6-4.9 3.3-5.1 3.5 -0.2 0.2-5.7 4.1-7.7 5.4 -0.6 0.4-1.7 1.1-5.3 3.7 -0.5 0.4-1 0.7-1.1 0.8 -0.1 0.1-0.8 0.6-1.5 1.1 -0.7 0.5-1.8 1.3-2.4 1.9l-1.1 1 -3.7 0c-2 0-4-0.1-4.5-0.3 -0.5-0.2-2.9-0.4-5.5-0.6 -2.6-0.2-5.4-0.4-6.2-0.6 -0.8-0.2-3.3-0.4-5.4-0.5 -2.1-0.1-4.9-0.4-6.2-0.6 -1.3-0.2-3.7-0.4-5.4-0.4 -4.1 0-6-0.6-6.2-2.1 -0.1-0.6-0.3-1.3-0.5-1.6 -0.2-0.3-0.4-1.4-0.5-2.5 -0.1-1-0.3-1.9-0.5-2 -0.1-0.1-0.3-1-0.5-2.1 -0.1-1.1-0.4-2.3-0.6-2.8 -0.2-0.4-0.4-1.5-0.4-2.3 0-2.6 0.6-2.5-12.2-2.5h-11.1L-145.4 330.1"/><path class="st1" d="M-118.6 165.2c-0.4 0.4-0.5 21.6-0.2 22.6 0.3 0.7 35.4 0.7 35.6 0 0.2-0.6 0.2-21.8 0-22.5C-83.4 164.7-118 164.6-118.6 165.2M-83.4 176.5v11.3l-16.5 0.1c-9.1 0-16.9 0-17.5-0.1l-1-0.2v-11.1c0-10.3 0-11.1 0.5-11.2 0.3-0.1 8.2-0.1 17.5-0.1l17 0V176.5M-68.9 166.7c-12.8 4.1-7.5 23 5.5 19.6 9.6-2.5 10.1-16 0.8-19.5C-64.9 166-66.7 166-68.9 166.7M-64.2 167.1c5.8 1.2 9.7 7.5 7.6 12.2 -0.3 0.6-0.5 1.3-0.6 1.6 -1.2 3.9-9.3 6.6-13.3 4.3 -1.7-0.9-4.3-3.8-4.3-4.6 0-0.4-0.2-0.9-0.5-1.1 -0.3-0.3-0.4-1.1-0.4-3 0-1.9 0.1-2.7 0.4-3 0.2-0.2 0.5-0.7 0.5-1.1 0-0.4 0.2-0.9 0.5-1.1 0.3-0.3 1-1 1.5-1.6 1.2-1.3 2.4-1.9 4.5-2.4 0.9-0.2 1.7-0.4 1.8-0.4C-66.4 166.6-65.4 166.8-64.2 167.1M-234.5 173.7c-1.5 0.5-4 2.9-4.5 4.1 -0.2 0.5-0.3 35.2-0.3 99.7l0 98.9 0.7 1.1c0.7 1.2 1.9 2.2 3.4 3 1.6 0.9 293.6 0.8 295.3-0.1 1.3-0.7 2.4-1.7 3.4-3.4l0.7-1.2v-98.6 -98.6l-0.8-1.4c-1-1.8-2.8-3.2-4.7-3.7 -2.2-0.7-35.2-0.5-35.9 0.2 -0.4 0.4 1.6 0.4 18.1 0.4 17.3 0 18.6 0 19.1 0.5 0.3 0.3 0.7 0.5 0.9 0.5s0.9 0.8 1.6 1.7l1.2 1.7 0.1 98.5c0.1 78.6 0 98.6-0.3 98.9 -0.2 0.2-0.6 0.9-0.9 1.5 -0.3 0.6-0.8 1.2-1.1 1.3 -0.3 0.1-0.6 0.3-0.6 0.5s-0.3 0.3-0.7 0.3c-0.4 0-0.9 0.2-1.1 0.5 -0.6 0.7-292.6 0.7-293.2 0 -0.2-0.2-0.6-0.5-0.8-0.5 -0.6 0-2.8-1.4-2.8-1.9 0-0.2-0.2-0.6-0.5-0.9 -0.9-1-0.8-197.3 0.1-199 0.8-1.5 1.5-2.3 2.9-3.1l1.1-0.7 18.1 0.1c17.3 0.1 18.1 0.1 17.4-0.4C-199.9 173-232.4 173-234.5 173.7M-94.6 221.1c0 9.2 0 13.1 0.1 8.5 0-4.6 0-12.1 0-16.8C-94.5 208.1-94.6 211.8-94.6 221.1M-85.9 221.1c0 9.2 0 13.1 0.1 8.5 0-4.6 0-12.1 0-16.8C-85.8 208.1-85.9 211.8-85.9 221.1M-104.9 238c0.6 0.4 6.5 0.4 6.8 0 0.1-0.2-1.1-0.3-3.5-0.3C-104.2 237.8-105.2 237.8-104.9 238M-93.7 238c0.8 0.4 6.2 0.4 6.8 0 0.3-0.2-0.8-0.3-3.5-0.3C-92.8 237.8-94 237.9-93.7 238M-124.4 318.2c0 0.3 0.2 0.9 0.4 1.3 0.2 0.5 0.5 1.8 0.7 2.9 0.2 1.2 0.6 3 0.8 4.1 0.2 1.2 0.5 2 0.7 2 0.2 0 0.4 0.1 0.5 0.2 0.1 0.1 0.1 0 0-0.2 -0.1-0.2-0.2-0.9-0.4-1.5 -0.7-3.2-1-4.3-1.3-6.3C-123.4 318.8-124.4 316.9-124.4 318.2"/><path class="st2" d="M-117.9 165.3c-0.5 0.1-0.5 0.9-0.5 11.2v11.1l1 0.2c0.5 0.1 8.4 0.1 17.5 0.1l16.5-0.1v-11.3 -11.3l-17 0C-109.7 165.2-117.6 165.3-117.9 165.3M-68.3 167.1c-2.1 0.5-3.3 1.1-4.5 2.4 -0.6 0.6-1.3 1.3-1.5 1.6 -0.3 0.3-0.5 0.8-0.5 1.1 0 0.4-0.2 0.9-0.5 1.1 -0.3 0.3-0.4 1.1-0.4 3 0 1.9 0.1 2.7 0.4 3 0.2 0.2 0.5 0.8 0.5 1.1 0 0.8 2.6 3.7 4.3 4.6 4 2.3 12.1-0.4 13.3-4.3 0.1-0.3 0.4-1.1 0.6-1.6 1.5-3.3-1-9.5-4.5-11.3 -0.8-0.4-4.9-1.4-5.3-1.3C-66.6 166.7-67.4 166.9-68.3 167.1M-235.4 174.8c-1.4 0.9-2.1 1.6-2.8 3.1 -0.9 1.7-1 198-0.1 199 0.3 0.3 0.5 0.7 0.5 0.9 0 0.4 2.2 1.9 2.8 1.9 0.2 0 0.6 0.2 0.8 0.5 0.6 0.7 292.6 0.7 293.2 0 0.2-0.2 0.7-0.5 1.1-0.5 0.4 0 0.7-0.1 0.7-0.3s0.3-0.4 0.6-0.5c0.3-0.1 0.8-0.7 1.1-1.3 0.3-0.6 0.7-1.3 0.9-1.5 0.3-0.3 0.4-20.2 0.3-98.9l-0.1-98.5 -1.2-1.7c-0.6-0.9-1.3-1.7-1.6-1.7s-0.6-0.2-0.9-0.5c-0.5-0.5-35-1-37-0.5l-0.7 0.2V246v71.6H-8.2c-34.6 0-31.6 0.2-31.6-2.5 0-0.7-0.2-1.5-0.4-1.7 -0.2-0.3-0.5-1.1-0.5-1.8 -0.1-0.7-0.3-1.4-0.5-1.5 -0.2-0.1-0.4-0.7-0.5-1.3 0-0.6-0.3-1.3-0.6-1.6 -0.3-0.3-0.5-1.1-0.5-1.8 0-0.8-0.1-1.3-0.4-1.4 -0.3-0.1-0.4-0.6-0.4-1.3 0-0.6-0.2-1.5-0.5-2.1 -0.3-0.5-0.5-1.3-0.6-1.8 -0.1-0.5-0.2-1-0.2-1.3 0-0.2-0.2-0.4-0.4-0.4 -0.2 0-0.3-0.4-0.3-1.2 0-0.8-0.2-1.5-0.4-1.7 -0.3-0.2-0.4-0.9-0.4-1.8 0-1-0.1-1.5-0.4-1.6 -0.3-0.1-0.5-0.8-0.6-1.6 -0.1-0.8-0.4-1.6-0.6-1.8 -0.2-0.2-0.4-0.9-0.4-1.7 0-0.9-0.1-1.4-0.4-1.5 -0.3-0.1-0.4-0.6-0.4-1.5 0-0.7-0.2-1.4-0.4-1.6 -0.2-0.2-0.5-0.9-0.6-1.5 -0.2-1.5-1.1-2.3-1.1-1 0 0.5-0.2 1.1-0.5 1.4 -0.2 0.2-0.5 0.6-0.5 0.7s-0.9 2.1-2.1 4.4c-4.3 8.8-5.1 10.7-5.1 11.3 0 0.4-0.2 1.1-0.5 1.5 -0.2 0.5-0.5 1.4-0.6 2.1 -0.1 0.7-0.4 1.6-0.6 2 -0.2 0.4-0.4 1.1-0.4 1.5 0 0.4-0.2 1.1-0.4 1.5 -0.2 0.4-0.5 1.4-0.6 2.2 -0.1 0.8-0.3 1.5-0.5 1.6 -0.1 0.1-0.3 0.8-0.5 1.6 -0.1 0.8-0.3 1.6-0.5 1.7 -0.1 0.2-0.4 1.1-0.6 2 -0.2 0.9-0.5 1.8-0.6 1.9 -0.2 0.1-0.3 0.6-0.3 1.1 0 0.5-0.2 1.3-0.5 1.8 -0.2 0.5-0.5 1.4-0.6 2.1 -0.1 0.7-0.4 1.6-0.6 2 -0.2 0.4-0.4 1.1-0.4 1.5 0 0.4-0.2 1.1-0.4 1.5 -0.2 0.4-0.5 1.4-0.6 2.2 -0.1 0.8-0.3 1.5-0.5 1.6 -0.1 0.1-0.3 0.8-0.5 1.6 -0.1 0.8-0.3 1.6-0.5 1.7 -0.1 0.2-0.4 1.1-0.6 2 -0.2 0.9-0.5 1.8-0.6 1.9 -0.2 0.1-0.3 0.6-0.3 1.1 0 0.5-0.2 1.3-0.5 1.8 -0.2 0.5-0.5 1.4-0.6 2.1 -0.1 0.7-0.3 1.4-0.4 1.6 -0.1 0.2-0.4 0.9-0.5 1.7 -0.2 1.2-0.6 2.2-1.3 4.1 -0.3 0.8-1.3 0.8-8.5 0.1 -9-0.9-13.1-1.3-19.5-1.8 -14.6-1.3-14.9-1.3-14.9-2.6 0-0.4-0.2-1.5-0.4-2.3 -0.2-0.8-0.7-2.9-1.1-4.7s-0.8-4-1.1-5c-0.2-1-0.5-2.2-0.6-2.7 -0.1-0.5-0.4-1.1-0.6-1.4 -0.2-0.3-0.5-1.2-0.6-2.1 -0.1-0.9-0.3-1.8-0.5-2 -0.2-0.2-0.4-1.2-0.5-2.3 -0.1-1-0.3-2-0.4-2.1 -0.1-0.1-0.4-0.8-0.5-1.5l-0.2-1.3 -36.5-0.1 -36.5-0.1V246v-71.5l-0.9-0.2c-0.5-0.1-8.8-0.2-18.4-0.2l-17.4 0L-235.4 174.8M-105.5 237.9c0 0.8 1.1 1.1 4 1.1 3 0 3.8-0.2 3.8-1 0-0.2-0.2-0.1-0.4 0.1 -0.5 0.5-6 0.5-6.9 0C-105.2 237.9-105.5 237.8-105.5 237.9M-93.8 238.3c1.1 0.9 6.1 0.9 7.2 0 0.6-0.5 0.6-0.6 0.1-0.4 -1 0.4-6.1 0.5-7.1 0.1l-1-0.3L-93.8 238.3M-103.9 248.5c-0.7 0.1-0.7 0.1-0.6 4.5 0.1 4.5 0.2 5.3 0.6 5 0.1-0.1 0.3 0 0.3 0.2s0.2 0.3 0.5 0.3c0.3 0 0.6 0.2 0.8 0.5 0.2 0.3 0.7 0.5 1.1 0.6 0.4 0.1 0.9 0.3 1 0.6 0.1 0.3 0.6 0.5 1 0.5 0.4 0 0.9 0.2 1.1 0.5 0.2 0.2 0.8 0.5 1.2 0.5s0.9 0.1 0.9 0.3c0 0.2 0.3 0.3 0.6 0.3s0.6-0.1 0.6-0.3c0-0.2 0.3-0.3 0.6-0.3 0.3 0 0.7-0.1 0.8-0.3 0.1-0.2 0.3-0.2 0.5-0.1 0.2 0.1 0.3 0 0.3-0.1 0-0.2 0.2-0.3 0.4-0.3 0.4 0 3.2-1.4 3.5-1.8 0.1-0.1 0.4-0.3 0.6-0.4 1.2-0.4 1.3-9.6 0.2-9.9C-88.9 248.2-102.9 248.3-103.9 248.5M-122 329.8c0.4 0.4 0.6 0.9 0.6 2 0 0.8 0.2 1.9 0.4 2.3 0.2 0.4 0.5 1.7 0.6 2.8 0.1 1.1 0.3 2.1 0.5 2.1 0.1 0.1 0.3 1 0.5 2 0.1 1 0.4 2.1 0.5 2.5 0.2 0.3 0.4 1.1 0.5 1.6 0.2 1.5 2.1 2.1 6.2 2.1 1.7 0 4.1 0.2 5.4 0.4 1.3 0.2 4.1 0.5 6.2 0.6 2.1 0.1 4.6 0.3 5.4 0.5 0.8 0.2 3.6 0.4 6.2 0.6 2.6 0.2 5.1 0.4 5.5 0.6 0.5 0.2 2.5 0.3 4.5 0.3l3.7 0 1.1-1c0.6-0.5 1.7-1.4 2.4-1.9 0.7-0.5 1.4-1 1.5-1.1 0.1-0.1 0.6-0.4 1.1-0.8 3.7-2.6 4.7-3.3 5.3-3.7 1.9-1.3 7.5-5.1 7.7-5.4 0.1-0.2 4.1-2.8 5.1-3.5 0.3-0.2 1.2-0.7 2-1.2 0.8-0.5 2-1.3 2.5-1.7l1-0.9h7.1c8 0 7.6-0.1 8.9 2.4 0.4 0.7 1 1.9 1.4 2.5 0.4 0.7 1 1.8 1.4 2.5 0.4 0.7 1.1 1.9 1.5 2.6 0.4 0.7 0.9 1.5 1.1 2 0.2 0.4 0.5 1 0.7 1.4 0.2 0.3 1 1.7 1.7 3 0.7 1.3 1.5 2.7 1.7 3 0.2 0.3 0.5 0.9 0.6 1.2 0.2 0.3 0.9 1.7 1.7 3 1.5 2.5 2.2 6.9 1.3 8.3 -0.5 0.7-139.1 0.8-139.9 0.1 -1.3-1.2-0.7-5.5 1.4-9.9 0.6-1.2 1-2.3 1-2.4 0-0.1 0.4-1.1 0.9-2.2 1.1-2.4 1.9-4 2.5-5.4 0.2-0.6 0.7-1.5 0.9-2.1 0.3-0.6 0.8-1.7 1.1-2.6 0.4-0.8 0.8-1.9 1.1-2.3 0.2-0.4 0.4-1 0.4-1.2 0-0.2 0.2-0.6 0.4-0.8 0.2-0.2 0.4-0.6 0.4-0.9 0-0.3 0.3-0.9 0.6-1.3l0.6-0.8h11.1C-123.7 329.3-122.4 329.3-122 329.8"/><path class="st3" d="M-111.5 238.3c0 0.3 0.1 0.6 0.3 0.6s0.3-0.2 0.2-0.4c-0.1-0.3 0.5-0.4 2.7-0.3 1.9 0.1 2.8 0 2.8-0.2 0-0.2-1.1-0.3-3-0.3C-111.3 237.7-111.5 237.8-111.5 238.3M-97.7 238c0 0.2 0.7 0.3 1.5 0.3 0.8 0 1.5-0.1 1.5-0.3 0-0.2-0.7-0.3-1.5-0.3C-97 237.7-97.7 237.9-97.7 238M-85.7 238.1c0 0.2 0.6 0.3 2 0.2 1.2-0.1 2 0 2 0.2 0.2 1.7-0.1 9.1-0.4 9.4 -0.2 0.2-1.3 0.4-2.9 0.5 -2.4 0.1-2.3 0.1 0.9 0.2l3.5 0.1v-5.4 -5.4h-2.5C-84.8 237.7-85.7 237.9-85.7 238.1M-111.5 244v4.5l3.5-0.1 3.5-0.1 -3.3-0.2 -3.3-0.2 0-4.3c0-2.8-0.1-4.3-0.3-4.3C-111.4 239.5-111.5 241.1-111.5 244M-96.3 262.4c0.1 0.1 0.4 0.2 0.7 0.2 0.3 0 0.6-0.1 0.7-0.2 0.1-0.1-0.2-0.2-0.7-0.2C-96.1 262.2-96.4 262.3-96.3 262.4"/><path class="st4" d="M-52.1 278.2c0 0.3-0.3 0.8-0.6 1.1 -0.3 0.3-0.6 0.7-0.6 1 0 0.2-0.2 0.9-0.5 1.4 -0.3 0.5-0.6 1.1-0.7 1.4 -0.6 1.2-2.8 5.7-3.3 6.9 -0.3 0.7-0.7 1.6-0.9 1.8 -0.2 0.2-0.4 0.8-0.6 1.2 -0.3 0.8-2.6 2.1-3.9 2.1 -0.4 0-1.5 0.3-2.5 0.6 -3.5 1.1-5 1.5-5.5 1.5 -0.2 0-1.1 0.2-1.8 0.4 -2.3 0.7-4.6 1.4-6 1.7 -3.5 0.9-4.4 1.1-5.2 1.4 -0.5 0.2-1.1 0.4-1.5 0.4s-1.5 0.3-2.5 0.6c-3.5 1.1-5 1.5-5.5 1.5 -0.2 0-1.1 0.2-1.8 0.4 -0.8 0.2-2.5 0.7-3.9 1.1 -1.4 0.4-3.1 0.8-3.8 1.1 -0.7 0.2-1.6 0.4-1.9 0.4 -0.4 0-1 0.2-1.4 0.4 -0.4 0.2-1.1 0.4-1.5 0.4 -0.4 0-1.5 0.3-2.6 0.6 -1 0.3-2.7 0.8-3.8 1.1 -1.1 0.3-2.1 0.6-2.2 0.7 -0.1 0.1-0.3 8.1-0.3 17.7 0 11.3-0.2 17.5-0.3 17.5 -0.2 0-0.3-0.5-0.4-1.3 -0.1-0.7-0.3-1.6-0.5-1.8 -0.2-0.2-0.5-0.7-0.5-1.1 -0.1-0.5-0.2-0.4-0.2 0.2 0 0.4 0.2 1.4 0.4 2.1 0.2 0.7 0.5 1.7 0.5 2.1 0 1.4 0.1 1.4 14.9 2.7 6.4 0.6 10.5 0.9 19.5 1.8 7.2 0.7 8.2 0.7 8.5-0.1 0.7-1.9 1-2.9 1.3-4.1 0.1-0.7 0.4-1.5 0.5-1.7 0.1-0.2 0.3-0.9 0.4-1.6 0.1-0.7 0.4-1.6 0.6-2.1 0.2-0.5 0.5-1.3 0.5-1.8 0-0.5 0.1-1 0.3-1.1 0.2-0.1 0.4-0.9 0.6-1.9 0.2-0.9 0.5-1.9 0.6-2 0.1-0.2 0.3-0.9 0.5-1.7 0.1-0.8 0.3-1.5 0.5-1.6 0.1-0.1 0.3-0.8 0.5-1.6 0.1-0.8 0.4-1.8 0.6-2.2 0.2-0.4 0.4-1.1 0.4-1.5 0-0.4 0.2-1 0.4-1.5 0.2-0.4 0.5-1.3 0.6-2 0.1-0.7 0.4-1.6 0.6-2.1 0.2-0.5 0.5-1.3 0.5-1.8 0-0.5 0.1-1 0.3-1.1 0.2-0.1 0.4-0.9 0.6-1.9 0.2-0.9 0.5-1.9 0.6-2 0.1-0.2 0.3-0.9 0.5-1.7 0.1-0.8 0.3-1.5 0.5-1.6 0.1-0.1 0.3-0.8 0.5-1.6 0.1-0.8 0.4-1.8 0.6-2.2 0.2-0.4 0.4-1.1 0.4-1.5 0-0.4 0.2-1 0.4-1.5 0.2-0.4 0.5-1.3 0.6-2 0.1-0.7 0.4-1.6 0.6-2.1 0.2-0.5 0.5-1.2 0.5-1.5 0-0.7 0.9-2.6 5.1-11.3 1.1-2.3 2.1-4.3 2.1-4.4s0.2-0.4 0.5-0.7c0.4-0.4 0.7-2.2 0.3-2.2C-52 277.7-52.1 277.9-52.1 278.2M-121.7 329.1c0.2 0.2 0.5 1 0.6 1.7 0.1 0.7 0.4 2.1 0.6 3.1 0.9 4.4 1.4 6.1 1.5 4.8 0-0.7-0.1-1.4-0.3-1.5 -0.2-0.2-0.4-1.2-0.6-2.2 -0.3-2.4-1.4-6.3-1.9-6.3C-122 328.7-122 328.8-121.7 329.1M-286.1 127"/><path class="st5" d="M-109.3 164.8c4.7 0 12.5 0 17.3 0 4.7 0 0.9-0.1-8.6-0.1S-114.1 164.7-109.3 164.8M-68.6 166.3c-0.3 0.2-0.2 0.3 0.5 0.1 1.1-0.2 1.3-0.4 0.6-0.4C-67.9 166-68.3 166.2-68.6 166.3M-233.9 173.2c-0.9 0.4-0.9 0.6 0.1 0.3 1.4-0.5 34.1-0.4 34.9 0.2l0.7 0.5 -0.7-0.6C-199.6 172.9-232.2 172.6-233.9 173.2M23.3 173.2c-1 0.4-0.8 0.6 0.2 0.3 1-0.3 34.4-0.2 35.3 0.1 0.3 0.1 0.2 0-0.3-0.2C57.4 172.9 24.6 172.7 23.3 173.2M-237.1 175c-0.4 0.3-2.1 2.5-1.9 2.5 0.1 0 0.6-0.6 1.3-1.4C-236.6 174.7-236.5 174.5-237.1 175M-55.9 176.5c0 1.1 0.1 1.5 0.1 1 0.1-0.5 0.1-1.4 0-2C-55.8 175-55.9 175.5-55.9 176.5M62.6 176.3c0.6 0.8 1.1 1.6 1.1 1.8 0 0.2 0.1 0.2 0.2 0.1 0.2-0.2-0.9-2-1.7-2.8C61.8 175.1 62 175.5 62.6 176.3M-239.5 277.5c0 54.1 0 76.2 0.1 49.1 0-27.1 0-71.4 0-98.4C-239.5 201.2-239.5 223.4-239.5 277.5M-76.1 179.7c0 0.2 0.2 0.6 0.4 1.1 0.2 0.4 0.4 0.6 0.4 0.5 0-0.2-0.2-0.6-0.4-1.1C-75.9 179.7-76.1 179.5-76.1 179.7M-73.4 183.8c1.2 1.3 1.5 1.6 1.5 1.3C-71.9 185.1-72.5 184.5-73.4 183.8l-1.3-1.4L-73.4 183.8M-59.2 184c-0.7 0.7-1.2 1.2-1 1.2s0.8-0.5 1.4-1.2C-57.3 182.5-57.6 182.5-59.2 184M-68.1 186.8c0.7 0.3 3.4 0.3 3.9 0 0.2-0.1-0.7-0.2-2-0.2C-67.5 186.6-68.3 186.7-68.1 186.8M-109.5 188.5c4.8 0 12.7 0 17.4 0 4.7 0 0.8-0.1-8.8-0.1C-110.4 188.4-114.3 188.4-109.5 188.5M-104.8 204.1l-0.7 0.3v16.7 16.7h3.9 3.9v-16.6c0-16.1 0-16.7-0.6-17C-99 203.8-103.9 203.8-104.8 204.1M-93.6 204.2l-0.8 0.3v16.6 16.6h4.2 4.2v-16.6 -16.6l-1-0.4C-88.2 203.8-92.4 203.8-93.6 204.2M-98.3 264.4c-0.2 0.3-0.3 1.2-0.3 2 0 0.8-0.1 1.4-0.3 1.4 -0.2 0-0.4 0.4-0.5 1s-0.4 1.1-0.6 1.4c-0.2 0.2-0.4 0.6-0.4 0.8s-0.5 1.3-1.1 2.4c-0.6 1.1-1.1 2.2-1.1 2.6 0 0.3-0.2 0.7-0.4 0.8 -0.3 0.1-0.4 0.5-0.4 1 0 0.5-0.2 1-0.4 1.1 -0.2 0.1-0.5 0.3-0.5 0.5 0 0.2-0.3 0.9-0.6 1.5s-0.6 1.3-0.6 1.5c0 0.2-0.2 0.6-0.4 0.8 -0.2 0.2-0.5 0.6-0.5 0.9s-0.5 1.4-1 2.5c-0.6 1.1-1.1 2.2-1.1 2.4 0 0.2-0.2 0.6-0.4 0.8 -0.2 0.2-0.4 0.6-0.4 1 0 0.3-0.3 0.9-0.6 1.4 -0.3 0.4-0.6 1-0.6 1.2 0 0.3-0.2 0.7-0.4 1.1 -0.2 0.3-0.4 0.8-0.4 1.1 0 0.3-0.2 0.6-0.4 0.7 -0.2 0.1-0.5 0.4-0.5 0.8s-0.3 1-0.6 1.6c-0.3 0.5-0.6 1.2-0.6 1.5 0 0.3-0.2 0.7-0.5 0.9 -0.2 0.2-0.4 0.7-0.4 1.1 0 0.4-0.2 0.8-0.5 0.9 -0.3 0.1-0.4 0.5-0.4 1.1 0 0.5-0.2 1-0.4 1 -0.2 0.1-0.5 0.6-0.6 1.2s-0.3 1.1-0.4 1.1c-0.1 0-0.4 0.3-0.5 0.8 -0.3 0.9 0.2 1.3-4.2-3.4 -1.6-1.7-3.6-3.8-4.3-4.6 -0.8-0.8-1.4-1.6-1.4-1.8 0-0.1-0.3-0.3-0.6-0.3 -0.8 0-0.9 4.3-0.2 4.6 0.3 0.1 0.5 0.6 0.5 1.5 0 2.1 0.3 3.5 0.8 3.5 0.3 0 0.4 0.5 0.4 2.1 0 1.5 0.1 2.2 0.4 2.4 0.3 0.3 0.4 1 0.4 2.4 0 1.6 0.1 2.1 0.5 2.1 0.2 0 0.4 0.2 0.4 0.5 0 0.3 0.3 0.8 0.6 1.2 0.4 0.4 0.8 1.5 1 2.9 0.4 2 0.7 3.6 1.3 6.3 0.1 0.6 0.6 2.4 1 4 0.4 1.6 0.8 3.3 0.8 3.9 0 0.5 0.2 1.4 0.4 1.9 0.2 0.5 0.5 1.7 0.6 2.6 0.1 0.9 0.4 1.8 0.6 2.1 0.2 0.3 0.5 1.1 0.5 1.8 0.1 0.7 0.2 1.3 0.4 1.3 0.2 0 0.3-6.1 0.3-17.4 0-9.6 0.2-17.5 0.3-17.7 0.1-0.1 1.1-0.5 2.2-0.7 1.1-0.3 2.8-0.8 3.8-1.1 1-0.3 2.2-0.6 2.6-0.6 0.4 0 1.1-0.2 1.5-0.4 0.4-0.2 1-0.4 1.4-0.4 0.4 0 1.2-0.2 1.9-0.4 0.7-0.2 2.4-0.7 3.8-1.1 1.4-0.4 3.2-0.9 3.9-1.1 0.8-0.2 1.6-0.4 1.8-0.4 0.4 0 2-0.4 5.5-1.5 1-0.3 2.1-0.6 2.5-0.6s1-0.2 1.5-0.4c0.8-0.3 1.6-0.6 5.2-1.4 1.4-0.3 3.8-1 6-1.7 0.8-0.2 1.6-0.4 1.8-0.4 0.4 0 2-0.4 5.5-1.5 1-0.3 2.1-0.6 2.5-0.6 1.3 0 3.6-1.2 3.9-2.1 0.2-0.4 0.4-1 0.6-1.2 0.2-0.2 0.6-1.1 0.9-1.8 0.5-1.2 2.7-5.7 3.3-6.9 0.1-0.2 0.5-0.9 0.7-1.4 0.3-0.5 0.5-1.1 0.5-1.4 0-0.2 0.3-0.7 0.6-1 0.6-0.6 0.8-1.6 0.3-1.6 -0.2 0-0.3-0.2-0.3-0.5 0-0.3-0.4-0.5-1.4-0.5 -1.1 0-1.5-0.1-1.8-0.6 -0.3-0.4-0.7-0.6-1.6-0.6 -0.7 0-1.4-0.2-1.7-0.4 -0.3-0.3-1-0.5-1.9-0.5 -1 0-1.5-0.1-1.6-0.5 -0.1-0.3-0.6-0.4-1.5-0.4 -1 0-1.4-0.2-1.7-0.6 -0.3-0.5-0.7-0.6-1.7-0.6 -0.8 0-1.5-0.2-1.7-0.4 -0.2-0.3-0.9-0.5-2-0.5 -1.2 0-1.6-0.1-1.6-0.4 0-0.3-0.4-0.5-1.5-0.5 -1.1 0-1.5-0.1-1.5-0.4 0-0.4-0.9-0.8-2.1-0.8 -0.4 0-1-0.2-1.3-0.4 -0.3-0.2-1.2-0.4-2-0.5 -1 0-1.4-0.2-1.6-0.5 -0.1-0.3-0.6-0.5-1.4-0.5 -0.8 0-1.4-0.2-1.6-0.5 -0.2-0.3-0.9-0.5-1.7-0.6 -0.7-0.1-1.5-0.4-1.7-0.6 -0.2-0.2-1-0.4-1.9-0.4 -1 0-1.5-0.1-1.7-0.4s-0.6-0.5-1.6-0.5c-1.1 0-1.5-0.1-1.5-0.4C-95.9 263.6-97.9 263.7-98.3 264.4M-101.7 268.4c-0.1 0.3-0.3 0.5-0.5 0.4 -0.2-0.1-0.3-0.1-0.3 0.1 0 0.5 0.4 0.4 1.2-0.4 0.5-0.5 0.5-0.7 0.2-0.7C-101.4 267.9-101.6 268.1-101.7 268.4M-104.1 270.8c-0.4 0.4-0.5 0.6-0.1 0.6 0.2 0 0.6-0.3 0.8-0.6C-103 270-103.4 270-104.1 270.8M-106.4 273.3c0 0.2-0.4 0.7-0.8 1.1 -0.8 0.7-1.4 1.8-1.1 1.8 0.3 0 1.9-1.8 1.9-2.1 0-0.1 0.2-0.3 0.5-0.4 0.2-0.1 0.4-0.3 0.4-0.4s-0.2-0.3-0.4-0.3C-106.2 273-106.4 273.1-106.4 273.3M-114.5 282.3c0 0.3-0.2 0.5-0.5 0.5 -0.2 0-0.4 0.1-0.4 0.3 0 0.2 0.3 0.2 0.8 0 0.8-0.4 0.9-0.7 0.4-1C-114.4 281.9-114.5 282-114.5 282.3M-117.1 285.2c-0.8 0.8-1.3 1.5-1.1 1.5 0.4 0 1.4-0.9 1.7-1.6 0.1-0.3 0.4-0.5 0.6-0.5 0.2 0 0.4-0.2 0.4-0.5C-115.5 283.5-115.4 283.4-117.1 285.2M-123.5 292.3c0 0.2-0.2 0.4-0.5 0.4 -0.2 0-0.5 0.1-0.5 0.3 0 0.5 0.8 0.3 1-0.2 0.1-0.3 0.1-0.6 0-0.6C-123.4 292-123.5 292.1-123.5 292.3M-125.6 294.4c-0.7 1-0.8 1.2-0.3 1.2 0.2 0 0.2-0.1 0.1-0.3 -0.1-0.2 0-0.3 0.3-0.3 0.4 0 0.5-0.2 0.4-0.8 0-0.1 0.2-0.3 0.4-0.4 0.3-0.2 0.3-0.3 0-0.3C-124.8 293.6-125.2 294-125.6 294.4M-127.4 296.5c-0.5 0.9-0.4 1 0.3 0.4 0.6-0.6 0.8-1 0.3-1C-127 296-127.2 296.2-127.4 296.5M63.3 377.4c-0.3 0.5-1 1.4-1.5 1.9 -0.5 0.5-0.8 1-0.7 1 0.5 0 3.1-3.5 2.9-3.8C63.9 376.4 63.6 376.8 63.3 377.4M-160.9 381.4c40.2 0 106.1 0 146.3 0 40.2 0 7.3-0.1-73.1-0.1C-168.3 381.3-201.2 381.4-160.9 381.4M-286.1 127"/><path class="st6" d="M-126.5 295.2c0 0.2-0.2 0.5-0.5 0.6 -0.5 0.1-0.5 0.1 0 0.2 0.3 0 0.7-0.2 0.8-0.6 0.2-0.4 0.2-0.6 0-0.6C-126.4 294.8-126.5 295-126.5 295.2"/><path class="st7" d="M-248.2 137.9c-0.2 0.2-0.3 0.5-0.2 0.6 0.1 0.1-0.8 0.2-2 0.2 -1.7 0-2.2 0.1-2.2 0.5 0 0.3-0.3 0.4-1.2 0.4 -0.7 0-1.3 0.2-1.5 0.4 -0.2 0.2-0.8 0.4-1.3 0.4 -0.6 0-0.9 0.2-1 0.6 -0.1 0.4-0.4 0.6-0.9 0.6 -0.4 0-0.8 0.2-0.9 0.4 -0.1 0.2-0.4 0.4-0.7 0.4 -0.3 0-0.6 0.2-0.6 0.5 0 0.3-0.3 0.4-0.8 0.4 -0.4 0-0.7 0.1-0.6 0.2 0.3 0.3-1 1.3-1.3 1.1 -0.1-0.1-0.3 0-0.3 0.2 0 0.4-1.1 1.5-1.5 1.5 -0.2 0-0.3 0.2-0.3 0.5 0 0.6-0.7 1.4-1 1.1 -0.1-0.1-0.2 0.2-0.2 0.6 0 0.4-0.2 0.8-0.5 0.9 -0.2 0.1-0.4 0.4-0.4 0.6 0 0.3-0.2 0.5-0.5 0.5 -0.3 0-0.5 0.3-0.5 0.9 0 0.8-0.2 1-0.9 1 -0.1 0-0.2 0.4-0.2 0.9 0 0.5-0.3 1.1-0.5 1.3 -0.2 0.2-0.5 0.7-0.5 1.2 -0.1 0.5-0.3 0.9-0.5 0.8 -0.2 0-0.4 0-0.3 0.1 0.2 1.4-0.1 4-0.5 3.9 -0.2-0.1-0.5 0-0.6 0.3 -0.6 1.5-0.2 232.4 0.4 232.4 0.5 0 0.6 0.2 0.6 2.1 0 1.7 0.1 2.1 0.4 2.1 0.3 0 0.5 0.3 0.5 1.2 0 0.7 0.1 1.3 0.3 1.4 0.2 0.1 0.5 0.7 0.7 1.2 0.2 0.6 0.6 1 0.7 1 0.2 0 0.3 0.4 0.3 0.8 0 0.6 0.3 1.1 0.9 1.6 0.5 0.4 0.9 0.9 0.9 1.1 0 0.2 0.3 0.4 0.6 0.5 0.3 0.1 0.6 0.4 0.6 0.6 0 0.2 0.2 0.4 0.5 0.4 0.2 0 0.5 0.2 0.5 0.4 0 0.2 0.2 0.5 0.5 0.5 0.3 0 0.5 0.3 0.5 0.6 0 0.3 0.1 0.6 0.2 0.6 0.6-0.1 1 0.1 1 0.5 0 0.2 0.2 0.5 0.5 0.5 0.2 0 0.4 0.2 0.4 0.4 0 0.2 0.3 0.5 0.6 0.5 0.4 0 0.5 0.1 0.4 0.4 -0.1 0.2 0 0.5 0.2 0.5 0.2 0 0.5 0.1 0.6 0.1 0.2 0 0.5 0.1 0.8 0.1 0.2 0 0.4 0.2 0.4 0.5 0 0.3 0.3 0.4 1.1 0.4 0.7 0 1 0.1 1 0.5 0 0.3 0.3 0.4 0.9 0.4 0.6 0 1 0.2 1.1 0.5 0.1 0.3 0.4 0.5 0.6 0.6 0.2 0 0.8 0 1.4 0.1 0.7 0 1.1 0.2 1.1 0.5 0 0.7 326.9 0.7 327.3 0 0.2-0.3 0.7-0.5 1.5-0.5 0.9 0 1.4-0.2 1.6-0.6 0.2-0.4 0.6-0.6 1.4-0.6 0.8 0 1-0.1 0.9-0.4 -0.1-0.3 0.1-0.5 0.9-0.5 0.7 0 1-0.1 1-0.4 0-0.3 0.3-0.5 0.6-0.5 0.3 0 0.8-0.3 1-0.6 0.2-0.3 0.6-0.6 0.9-0.6 0.3 0 0.5-0.2 0.5-0.5 0-0.2 0.2-0.4 0.4-0.4 0.2 0 0.5-0.2 0.5-0.5 0-0.3 0.3-0.5 0.6-0.5 0.4 0 0.6-0.2 0.6-0.6 0-0.3 0.2-0.6 0.5-0.6 0.2 0 0.5-0.2 0.5-0.5 0-0.3 0.3-0.4 0.6-0.4 0.3 0 0.6-0.1 0.6-0.2 -0.1-0.6 0.1-1 0.4-0.9 0.2 0 0.4-0.2 0.5-0.6 0.1-0.5 0.3-0.6 0.5-0.5 0.3 0.1 0.4-0.1 0.4-0.7 0-0.6 0.2-0.9 0.6-1 0.3-0.1 0.6-0.5 0.7-0.9 0.1-0.4 0.2-0.7 0.4-0.6 0.2 0 0.4-0.4 0.5-0.9 0.1-0.6 0.3-1 0.5-0.9 0.2 0.1 0.4-0.4 0.4-1.4 0-0.8 0.1-1.5 0.2-1.4 0.5 0.3 0.8-0.7 0.9-2.7 0.1-2.3 0.2-2.7 0.7-2.4 0.2 0.1 0.3-44.4 0.3-114.8 0-102.1 0-114.9-0.4-114.9 -0.4 0-0.5-0.5-0.5-2.4 0-2.1-0.1-2.4-0.6-2.6 -0.5-0.2-0.6-0.5-0.6-1.7 0-1.2-0.1-1.4-0.4-1.3 -0.4 0.2-0.6-0.7-0.5-1.8 0-0.1-0.1-0.2-0.3-0.2 -0.2 0-0.5-0.4-0.7-1.1 -0.2-0.6-0.5-1.1-0.7-1.1 -0.2 0-0.4-0.2-0.4-0.5 0-0.3-0.2-0.5-0.5-0.6 -0.2-0.1-0.5-0.4-0.5-0.6 0-0.2-0.2-0.4-0.4-0.4 -0.4 0-0.7-0.7-0.9-1.7 0-0.2-0.2-0.3-0.4-0.2 -0.2 0-0.6-0.4-1-0.9 -0.3-0.5-0.7-1-0.9-1 -0.2 0-0.6-0.1-0.9-0.1 -0.4 0-0.6-0.3-0.6-0.6 0-0.3-0.2-0.6-0.5-0.6 -0.2 0-0.4-0.2-0.4-0.4 0-0.3-0.3-0.5-0.6-0.5 -0.3 0-0.6-0.2-0.6-0.4 0-0.3-0.4-0.5-1-0.5 -0.6-0.1-0.9-0.2-0.9-0.5 0-0.2 0-0.3-0.2-0.2 -0.2 0.1-0.4 0-0.5-0.1 -0.1-0.2-0.5-0.3-0.8-0.3s-0.6-0.2-0.6-0.4c0-0.2-0.2-0.4-0.4-0.4 -1.7 0.1-2.6-0.1-2.6-0.5 0-0.4-0.5-0.5-2.6-0.5 -2.1 0-2.6-0.1-2.4-0.4 0.1-0.2 0-0.5-0.3-0.6C70.9 137.3-247.9 137.5-248.2 137.9M-83.4 164.9c0.5 0.5 0.5 22.8 0 23.3 -0.4 0.4-33.6 0.5-35 0.2l-0.7-0.2v-11.5 -11.5l0.7-0.3C-117.2 164.4-83.8 164.4-83.4 164.9M-63 166.5c3.3 1.3 5 2.7 6.3 5.4 2.2 4.2 0.1 11.8-3.6 13.4 -0.3 0.2-0.8 0.4-1.1 0.5 -2.6 1.5-6.7 1.5-9.3 0 -0.2-0.1-0.7-0.4-1.1-0.5 -0.3-0.1-1.2-0.9-1.9-1.6 -4.2-4.6-3.7-11.9 1.1-15.4C-69.6 166.2-65.7 165.4-63 166.5M-198.5 173.7l1 0.8h29.5 29.5v11.9c0 10.3 0.1 11.9 0.5 12 0.3 0.1 0.4 0.6 0.4 1.2 0 0.6 0.1 1 0.4 1 0.2 0 0.6 0.4 0.8 0.9 0.2 0.5 0.7 0.9 1.1 1.1 0.4 0.1 0.7 0.4 0.7 0.6 0 0.3 0.3 0.4 1.1 0.4 0.6 0 1.3 0.2 1.5 0.5 0.4 0.4 2.1 0.4 14 0.3 7.5-0.1 15-0.2 16.7-0.2 1.7 0 4.3 0 5.7 0 1.4 0 3.8 0 5.4 0 40.6 0.3 47.4 0.3 47.4-0.1 0-0.3 0.3-0.5 0.9-0.5 0.5 0 1-0.2 1.1-0.4 0.1-0.2 0.4-0.4 0.6-0.4 0.2 0 0.4-0.3 0.4-0.6 0-0.4 0.2-0.6 0.6-0.6 0.3 0 0.6-0.2 0.6-0.4 0-0.2 0.2-0.5 0.4-0.6 0.3-0.1 0.5-0.6 0.5-1.5 0-1 0.1-1.4 0.4-1.4 0.4 0 0.4-1.5 0.4-11.6v-11.6h29.5 29.5l0.4-0.7 0.4-0.7 17.1-0.1c20.2-0.1 20.8 0 23.3 4.1l0.7 1.1v99.2 99.2l-0.8 1.2c-1.2 1.8-1.5 2.1-2.8 2.9l-1.2 0.7H-87.5c-146.3 0-146.9 0-148.1-0.6 -1.3-0.7-2-1.4-3.2-2.9l-0.8-1v-99.4 -99.4l1.1-1.5c0.6-0.8 1.1-1.5 1.2-1.5 0.1 0 0.5-0.3 0.9-0.6 0.4-0.3 0.9-0.6 1.1-0.6 0.2 0 0.8-0.2 1.2-0.4 0.7-0.4 3.3-0.4 17.7-0.4l16.8 0L-198.5 173.7M-99.4 266.2c0.1 0.2 0 0.4-0.2 0.4 -0.2 0-0.7 0.6-1.2 1.2 -0.5 0.8-1 1.1-1.2 1 -0.2-0.1-0.3-0.1-0.2 0 0.2 0.3-0.5 1.1-0.9 1.1 -0.2 0-0.3 0.1-0.3 0.2 0.1 0.5-0.4 1.3-0.8 1.3 -0.2 0-0.4 0.2-0.4 0.4 0 0.2-0.2 0.4-0.4 0.4 -0.2 0-0.4 0.2-0.5 0.6 -0.1 0.4-0.3 0.8-0.5 0.9s-0.4 0.3-0.4 0.4c0 0.4-2.3 2.7-2.7 2.7 -0.2 0-0.3 0.1-0.2 0.3 0.1 0.2-0.2 0.4-0.6 0.6 -0.4 0.2-0.8 0.4-0.8 0.6s-0.4 0.7-0.9 1.2c-0.5 0.5-0.9 1.1-0.9 1.2s-0.2 0.2-0.4 0.1c-0.4-0.2-0.6 0.3-0.5 1.1 0 0.1-0.2 0.1-0.4 0 -0.3-0.1-0.4 0-0.3 0.3 0.1 0.3-0.1 0.6-0.6 0.8 -0.7 0.3-0.9 0.7-0.8 1.3 0 0.1-0.2 0.2-0.4 0.2 -0.3 0-0.5 0.2-0.7 0.5 -0.2 0.6-1.2 1.6-1.6 1.6 -0.2 0-0.3 0.2-0.3 0.5 0 0.2-0.2 0.4-0.4 0.4 -0.2 0-0.5 0.2-0.5 0.4 0 0.2-0.3 0.7-0.6 1 -0.3 0.4-0.6 0.8-0.6 0.9 0 0.2-0.2 0.2-0.4 0.1s-0.5 0.1-0.6 0.3c-0.1 0.3-0.4 0.5-0.6 0.5 -0.3 0-0.5 0.3-0.5 0.8 0 0.6-0.1 0.7-0.3 0.4 -0.2-0.3-0.3-0.2-0.5 0.4 -0.1 0.4-0.3 0.8-0.5 0.8 -0.2 0-0.5 0.2-0.8 0.5 -0.2 0.3-0.6 0.4-0.8 0.3 -0.2-0.1-0.2-0.1-0.1 0.2 0.1 0.2 0.3 0.3 0.5 0.2 0.2-0.1 0.2 0 0.1 0.3 -0.1 0.3-0.4 0.5-0.6 0.5 -0.2 0-0.4 0.1-0.3 0.3 0.1 0.2 0 0.3-0.3 0.3 -0.3 0-0.5 0.2-0.5 0.4 0 0.2-0.3 0.6-0.6 0.9 -0.7 0.6-0.6 1 1.1 2.9 0.8 0.8 2.7 2.9 4.3 4.6 4.4 4.7 3.9 4.3 4.2 3.4 0.1-0.4 0.4-0.8 0.5-0.8 0.1 0 0.3-0.5 0.4-1.1s0.4-1.1 0.6-1.2c0.2-0.1 0.4-0.6 0.4-1 0-0.5 0.2-1 0.4-1.1 0.2-0.1 0.5-0.5 0.5-0.9 0-0.4 0.2-0.8 0.4-1.1 0.2-0.2 0.5-0.6 0.5-0.9 0-0.3 0.3-0.9 0.6-1.5 0.3-0.5 0.6-1.3 0.6-1.6s0.2-0.7 0.5-0.8c0.2-0.1 0.4-0.4 0.4-0.7 0-0.3 0.2-0.8 0.4-1.1 0.2-0.3 0.4-0.8 0.4-1.1 0-0.3 0.3-0.8 0.6-1.2 0.3-0.4 0.6-1 0.6-1.4 0-0.3 0.2-0.8 0.4-1 0.2-0.2 0.4-0.6 0.4-0.8 0-0.2 0.5-1.3 1.1-2.4 0.6-1.1 1-2.2 1-2.5s0.2-0.7 0.5-0.9c0.2-0.2 0.4-0.6 0.4-0.8 0-0.2 0.3-0.9 0.6-1.5s0.6-1.3 0.6-1.5c0-0.2 0.2-0.4 0.5-0.5 0.3-0.1 0.4-0.5 0.4-1.1 0-0.5 0.2-1 0.4-1 0.2-0.1 0.4-0.5 0.4-0.8 0-0.3 0.5-1.5 1.1-2.6 0.6-1.1 1.1-2.1 1.1-2.4s0.2-0.6 0.4-0.8c0.2-0.2 0.5-0.8 0.6-1.4s0.3-1 0.5-1c0.2 0 0.3-0.4 0.3-1 0-0.7-0.1-1-0.5-1C-99.3 265.8-99.5 265.9-99.4 266.2"/></svg>