<svg xmlns="http://www.w3.org/2000/svg" viewBox="0 0 392.4 169.6"><style type="text/css">  
	.st0{fill:#7B7979;}
	.st1{fill:#231F20;}
	.st2{fill:#8D188F;}
	.st3{fill:#80CC28;}
	.st4{fill:#04A1E6;}
	.st5{fill:#2250A9;}
</style><path class="st0" d="M16.9 92.5c-2 2.1-4.5 3-7.3 3 -2.8 0-5.2-1-7-2.8C0 90.1 0 87.1 0 82c0-5.1 0-8.1 2.6-10.7 1.8-1.8 4.2-2.8 7-2.8 5.7 0 8.9 3.7 9.7 8.3h-4.1c-0.7-2.9-2.6-4.6-5.6-4.6 -1.6 0-3 0.6-3.9 1.6C4.3 75.2 4 76.7 4 82c0 5.4 0.3 6.9 1.6 8.3 0.9 1 2.4 1.6 3.9 1.6 1.8 0 3.3-0.7 4.3-1.9 1-1.1 1.3-2.5 1.3-4.2v-1.5H9.6v-3.4h9.7V85C19.3 88.4 18.7 90.7 16.9 92.5"/><path class="st0" d="M46.5 80.8c-0.9-0.9-1.5-1.3-2.8-1.3 -2.1 0-3.8 1.6-3.8 4.3v11.5H36v-19h3.7v2.1c1-1.3 2.9-2.3 5.1-2.3 1.8 0 3.2 0.5 4.5 1.8L46.5 80.8"/><path class="st0" d="M73.3 81.7c-0.6-1.4-1.9-2.4-3.7-2.4s-3.2 1-3.8 2.4c-0.4 0.9-0.4 1.4-0.5 2.6h8.5C73.8 83.1 73.7 82.6 73.3 81.7zM65.3 87c0 3.3 1.7 5.3 4.8 5.3 2.1 0 3.3-0.6 4.6-1.9l2.4 2.3c-1.9 1.9-3.8 3-7.1 3 -4.8 0-8.5-2.5-8.5-9.7 0-6.1 3.2-9.7 8-9.7 5.1 0 8 3.7 8 9.1V87H65.3"/><path class="st0" d="M105.5 95.3V83.8c0-3-1.7-4.2-3.8-4.2 -2.1 0-3.9 1.3-3.9 4.2v11.6h-3.8v-19h3.7v1.9c1.3-1.4 3.1-2.1 5.1-2.1 1.9 0 3.6 0.6 4.7 1.7 1.5 1.4 1.9 3.2 1.9 5.4v12.1H105.5"/><path class="st0" d="M136.2 80.6c-0.7-0.7-1.7-1.1-2.8-1.1s-2.1 0.4-2.8 1.1c-1.2 1.2-1.3 3.1-1.3 5.2 0 2.1 0.1 4 1.3 5.2 0.7 0.7 1.6 1.1 2.8 1.1s2.1-0.4 2.8-1.1c1.2-1.2 1.3-3.1 1.3-5.2C137.5 83.8 137.3 81.8 136.2 80.6zM139.1 93.3c-1.2 1.3-3.1 2.2-5.7 2.2s-4.4-1-5.7-2.2c-1.8-1.9-2.2-4.3-2.2-7.5 0-3.2 0.4-5.6 2.2-7.4 1.2-1.3 3.1-2.2 5.7-2.2s4.5 1 5.7 2.2c1.8 1.9 2.2 4.3 2.2 7.4C141.3 89 140.9 91.4 139.1 93.3"/><path class="st0" d="M165.5 79.5c-3.4 0-4 2.9-4 6.3 0 3.4 0.5 6.3 4 6.3 3.4 0 3.9-3 3.9-6.3C169.4 82.5 168.9 79.5 165.5 79.5zM171.1 93.9c-1 1-2.7 1.7-4.6 1.7 -2.1 0-3.6-0.5-5-2.2v2h-3.7V68.7h3.8v9.6c1.4-1.6 3-2.1 5-2.1 1.9 0 3.6 0.6 4.6 1.7 1.9 1.9 2.1 5.1 2.1 8C173.2 88.7 173 92 171.1 93.9"/><path class="st0" d="M194.7 95.3c-3.6 0-5.2-2.4-5.2-5.2V68.7h3.8v21.2c0 1.5 0.5 2.2 2.1 2.2h1.7v3.3H194.7"/><path class="st0" d="M222.4 81.7c-0.6-1.4-1.9-2.4-3.7-2.4 -1.8 0-3.2 1-3.8 2.4 -0.4 0.9-0.4 1.4-0.5 2.6h8.5C222.9 83.1 222.7 82.6 222.4 81.7zM214.4 87c0 3.3 1.7 5.3 4.8 5.3 2.1 0 3.3-0.6 4.6-1.9l2.4 2.3c-1.9 1.9-3.8 3-7.1 3 -4.8 0-8.5-2.5-8.5-9.7 0-6.1 3.2-9.7 8-9.7 5.1 0 8 3.7 8 9.1V87H214.4"/><path class="st1" d="M262.1 95.3h6.5V68.7h-6.5V95.3z"/><path class="st1" d="M300.4 95.3l-8.5-13.4v13.4h-6.5V68.7h5.7l8.5 13.4V68.7h6.5v26.6H300.4"/><path class="st1" d="M333 74.6h-3.7V80h3.7c1.8 0 2.8-1.3 2.8-2.7C335.8 75.9 334.8 74.6 333 74.6zM333.3 85.8h-4v9.5h-6.6V68.7h10.6c5.9 0 9.1 4.2 9.1 8.6C342.4 81.6 339.2 85.8 333.3 85.8"/><path class="st2" d="M228 8.1l0.5 1.5c6.6 19.8 10 40.5 10 61.6 0 28.8-6.2 56.6-18.3 82.4l11.3 5.3c12.9-27.6 19.5-57.1 19.5-87.8 0-22.4-3.6-44.5-10.6-65.6 0 0-0.5-1.6-0.5-1.6L228 8.1"/><path class="st3" d="M346.8 2.7c5 22.3 7.6 45.4 7.6 68.5 0 23.2-2.6 46.2-7.6 68.6l12.2 2.8c5.3-23.3 7.9-47.3 7.9-71.4 0-24-2.7-48-7.9-71.3L346.8 2.7"/><path class="st4" d="M311.2 100c-2.5 22.3-7.8 44.3-15.8 65.2l11.7 4.4c8.3-21.9 13.9-44.9 16.5-68.2L311.2 100"/><path class="st4" d="M310.2 31.3c1.4 10 2.3 20.2 2.6 30.3l12.5-0.4c-0.3-10.6-1.2-21.3-2.7-31.7L310.2 31.3"/><path class="st5" d="M373.8 5.2c4.1 21.1 6.2 42.7 6.2 64.4 0 2.5 0 5.1-0.1 7.6l12.5 0.3c0.1-2.6 0.1-5.2 0.1-7.8 0-22.5-2.1-44.9-6.4-66.8L373.8 5.2"/></svg>