<?xml version="1.0" encoding="utf-8"?>
<!-- Generator: Adobe Illustrator 19.0.0, SVG Export Plug-In . SVG Version: 6.00 Build 0)  -->
<svg version="1.1" id="svg" xmlns="http://www.w3.org/2000/svg" xmlns:xlink="http://www.w3.org/1999/xlink" x="0px" y="0px"
	 viewBox="-279 186.8 400 188.3" style="enable-background:new -279 186.8 400 188.3;" xml:space="preserve">
<style type="text/css">
	.st0{fill:#060606;}
	.st1{fill:#171717;}
	.st2{fill:#222222;}
	.st3{fill:#2B2B2B;}
	.st4{fill:#333333;}
	.st5{fill:#434343;}
	.st6{fill:#4B4B4B;}
	.st7{fill:#575757;}
	.st8{fill:#5F5F5F;}
	.st9{fill:#6B6B6B;}
	.st10{fill:#727272;}
	.st11{fill:#7D7D7D;}
	.st12{fill:#878787;}
	.st13{fill:#8F8F8F;}
	.st14{fill:#999999;}
	.st15{fill:#9F9F9F;}
	.st16{fill:#A5A5A5;}
	.st17{fill:#ACACAC;}
	.st18{fill:#B3B3B3;}
	.st19{fill:#BABABA;}
	.st20{fill:#C1C1C1;}
	.st21{fill:#CCCCCC;}
	.st22{fill:#D2D2D2;}
	.st23{fill:#D9D9D9;}
	.st24{fill:#E0E0E0;}
	.st25{fill:#E6E6E6;}
	.st26{fill:#ECECEC;}
	.st27{fill:#F2F2F2;}
	.st28{fill:#F8F8F8;}
	.st29{fill:#FFFFFF;}
</style>
<g id="svgg">
	<path id="path0" d="M-225.5,290.3c-2.3,0.7-2.5,4.6-0.4,5.3c0.5,0.2,0.2,0.4-0.5,0.4c-0.8,0-4.2,0.6-6,1l-1.5,0.4l0.3-0.4
		c2.1-3-1.9-6.4-4.4-3.7c-1.4,1.5-0.9,3.8,1,4.6l0.6,0.2l-0.4,0.2c-2.4,0.9-3.6,1.4-4.7,1.9c-0.7,0.3-1.3,0.6-1.4,0.6
		c0,0,0.1-0.3,0.4-0.6c1.7-2.4-1.5-5.6-4-3.9c-2.3,1.6-1.2,5.3,1.6,5.3l0.5,0l-0.5,0.3c-5.9,3.1-12.6,9.4-16.9,15.9
		c-1,1.5-1.4,1.9-1.3,1.5c0.8-3.6-4.5-4.9-5.6-1.4c-0.9,3,3.1,4.9,5.1,2.5l0.5-0.5l-0.4,0.6c-2.5,4.3-4.5,9.8-5.6,16l-0.1,0.8
		l-0.3-0.7c-1.2-3-5.5-2.2-5.5,1c0,2.8,3.6,3.9,5.2,1.7l0.4-0.6l-0.1,1c-1,9.8,1.8,22.9,6.1,29.1c0.4,0.5,0.3,0.6-0.9,0.7
		c-1.5,0.2-2.1,0.4-3.6,1.4c-0.7,0.5-1.9,1-2.7,1.3c-1.8,0.6-3.3,1.9-3.4,2.8c0,0.1,5.4,0.1,12.1,0.1c13.2,0,12.6,0,11.7-0.9
		c-0.5-0.5-0.6-0.5-1.1-0.2c-0.3,0.2-0.4,0.1-1-0.5l-0.7-0.6l0.6,0.7l0.6,0.7l-0.5,0.4c-0.7,0.6-1.3,0.2-1.6-1
		c-0.6-2.1-1.7-3.1-3.2-3c-0.8,0-1.5-0.1-2.2-0.3c-0.6-0.2-1.5-0.4-2.1-0.5l-1-0.2l-0.9-1.7c-10.4-18.9-6.8-42.8,8.8-57.9
		c7.4-7.2,17.8-12.2,27.4-13.2c0.4,0,1.5-0.2,2.5-0.3c7.9-0.9,17.9,1.1,25.8,5.1c26.5,13.5,34.8,48,17.1,71.8
		c-1.3,1.8-1.3,1.8-1,1.8c0.7,0,4.2-5.5,6.1-9.4c11-23.1,2.1-51.4-20.1-63.6c-1.2-0.7-1.8-1.1-0.8-0.6c3.1,1.6,5.6-3.1,2.7-5
		c-2.5-1.7-5.6,1.8-3.8,4.2c0.3,0.3,0.4,0.6,0.4,0.6c0,0-0.7-0.3-1.5-0.7c-1.5-0.8-3.1-1.4-4.9-2l-1.1-0.4l0.6-0.1
		c2.6-0.4,3.4-3.8,1.3-5.2c-2.8-1.9-6.1,1.7-3.8,4.2l0.6,0.6l-2.1-0.5c-1.2-0.3-2.8-0.6-3.6-0.7l-1.4-0.2l0.6-0.3
		c2.2-1,2.3-4.1,0.1-5.2c-3-1.6-5.6,2.8-2.9,5c0.2,0.2,0.1,0.2-0.9,0.1c-0.6-0.1-2.3-0.1-3.6-0.1l-2.5,0l0.5-0.4
		C-220.3,293.2-222.4,289.4-225.5,290.3 M-254.1,301.3c-1.4,0.4-2.3,2.1-1.9,3.5c0.7,2.8,4.6,2.9,5.5,0.2
		C-249.8,302.8-251.9,300.6-254.1,301.3 M-188.7,301.5c-0.8,0.3-1.3,0.7-1.6,1.5c-1.2,2.6,1.8,5.1,4.2,3.5
		C-183.4,304.7-185.5,300.4-188.7,301.5 M-224.3,301.9c0.3,0,0.7,0,0.9,0c0.3,0,0-0.1-0.5-0.1C-224.3,301.8-224.5,301.9-224.3,301.9
		 M-219.3,301.9c0.3,0,0.7,0,0.9,0c0.3,0,0-0.1-0.5-0.1C-219.3,301.8-219.5,301.9-219.3,301.9 M-261.1,308c-2.2,0.8-2.6,3.8-0.7,5.1
		c0.8,0.6,2.5,0.6,3.4-0.1C-255.9,311.1-258,306.9-261.1,308 M-182.3,308.3c-1.8,0.9-2.1,3.4-0.5,4.7c1.9,1.6,4.7,0.3,4.7-2.2
		C-178.2,308.6-180.3,307.3-182.3,308.3 M-162,308.7c-0.4,0.4-0.5,0.9-0.2,0.9c0.1,0,0.2,0.1,0.2,0.3c0,0.3-0.2,0.3-0.7,0.3
		c-0.3,0-0.5,0.6-0.4,1.2c0.1,0.3,0.2,0.4,0.4,0.3c0.2-0.1,0.3,0,0.2,0.2c-0.1,0.2-0.2,0.7-0.3,1.2c-0.1,0.5-0.3,1.1-0.6,1.5
		l-0.4,0.7l0.6,0.1c0.3,0,0.6,0.1,0.6,0.2s-0.2,0.4-0.4,0.8c-0.2,0.4-0.4,0.8-0.4,0.9c-0.1,0.1-0.3,0.3-0.6,0.3
		c-0.5,0.1-0.5,0,0.2,1.7c0.5,1.4,0.8,2.9,0.6,3c-0.1,0.1-0.2,5.6-0.4,19c-0.1,15.6-0.2,19-0.4,19.4c-0.1,0.3-0.2,0.8-0.2,1.1
		c0,0.5-0.1,0.7-0.5,0.9c-0.6,0.4-0.7,0.9-0.1,1.3l0.4,0.3v2.8v2.8l-0.5,0.3l-0.5,0.3v1.8v1.8h-0.8c-0.7,0-0.8,0-0.8,0.5v0.5h5.4
		h5.4v-0.5c0-0.5,0-0.5-0.8-0.5h-0.8v-1.8v-1.8l-0.5-0.3l-0.5-0.3l0-2.8l0-2.8l0.5-0.3c0.6-0.4,0.6-0.8,0-1.2
		c-0.4-0.2-0.5-0.4-0.5-0.8c0-0.3-0.1-0.7-0.2-0.9c-0.1-0.2-0.2-0.5-0.3-0.7c-0.1-0.2-0.2-3.1-0.2-7.5c0-14.1-0.3-30.6-0.5-30.7
		c-0.2-0.1,0.2-2.2,0.6-3.2c0.5-1.2,0.5-1.4,0-1.5c-0.4-0.1-0.5-0.2-0.7-0.8c-0.1-0.4-0.5-1-0.9-1.4c-0.6-0.7-0.7-0.8-0.4-0.9
		c0.2-0.1,0.3-0.4,0.3-1.4c0-1,0-1.2,0.2-0.9c0.2,0.6,0.5,0.8,0.8,0.7c0.2-0.1,0.2-0.1,0-0.3c-0.3-0.2-0.6-1.2-0.6-1.7
		c0-0.2-0.2-0.4-0.4-0.4c-0.5-0.2-0.5-0.7-0.1-0.9c0.3-0.1,0.3-0.2-0.1-0.6l-0.5-0.5L-162,308.7 M-249.8,312.7
		c-0.4,0.4-0.7,0.8-0.7,0.8c0,0,0.4-0.3,0.8-0.8c0.4-0.4,0.7-0.8,0.7-0.8C-249.1,311.9-249.4,312.3-249.8,312.7 M-192.8,312.9
		c0.4,0.4,0.7,0.7,0.7,0.7c0,0-0.2-0.3-0.6-0.7c-0.4-0.4-0.7-0.7-0.7-0.7C-193.4,312.3-193.1,312.6-192.8,312.9 M-190.1,315.6
		c0.4,0.4,0.7,0.7,0.7,0.7s-0.2-0.3-0.6-0.7c-0.4-0.4-0.7-0.7-0.7-0.7S-190.4,315.2-190.1,315.6 M-252.8,315.7l-0.6,0.6
		L-252.8,315.7c0.6-0.5,0.8-0.6,0.6-0.6C-252.2,315.1-252.5,315.4-252.8,315.7 M-176.4,316.8c-2.4,1.5-1.4,5.3,1.4,5.3
		c2.5,0,3.8-2.8,2.2-4.7C-173.6,316.4-175.3,316.1-176.4,316.8 M-259,324.4c-0.2,0.4-0.3,0.7-0.3,0.7c0,0,0.2-0.3,0.4-0.7
		c0.2-0.4,0.3-0.7,0.3-0.7C-258.6,323.8-258.8,324.1-259,324.4 M-271.1,325.2c-1.2,0.5-1.9,2.1-1.6,3.3c0.8,2.7,4.4,3,5.4,0.5
		C-266.3,326.5-268.7,324.2-271.1,325.2 M-172.4,325.3c-2.4,1.2-1.9,4.6,0.7,5.3c2,0.5,4-1.5,3.4-3.5
		C-168.8,325.3-170.7,324.4-172.4,325.3 M-259.7,325.9c-0.4,0.8-0.3,1,0.1,0.2c0.2-0.4,0.3-0.7,0.3-0.7
		C-259.4,325.3-259.6,325.6-259.7,325.9 M88.3,332.4c-0.1,0.1-0.7,2.5-1.5,5.3c-1.3,4.8-1.4,5.1-1.8,5.1c-0.4,0-1.6-3.6-1.4-4.4
		c0-0.2,0-0.4-0.1-0.4c-0.2,0-0.5-1.7-0.5-2.6c0-1-0.1-0.7-0.4,1c-0.1,0.8-0.4,1.6-0.5,1.7c-0.2,0.2-0.2,0.3-0.1,0.4
		c0.1,0.1,0.1,0.8-0.3,2.7c-0.4,2.3-0.5,3.1-0.5,6.9l-0.1,4.4H64.6H48V352c0-1.3-1-1.8-1.4-0.7c-0.2,0.4-0.3,0.5-0.9,0.5
		c-0.8,0-0.9-0.3-0.5-1.4c0.2-0.6,0.2-0.6-0.2-1c-0.8-0.8-1.5,0.1-1,1.1c0.5,1,0.4,1.3-0.5,1.3c-0.7,0-0.8-0.1-0.9-0.5
		c-0.2-0.8-1-0.6-1.2,0.3l-0.2,0.7H24.6H8l0-3.4c0-3-0.1-3.7-0.5-6.7c-0.5-2.8-0.5-3.3-0.3-3.5c0.2-0.1,0.2-0.2,0-0.4
		c-0.2-0.1-0.4-0.8-0.6-1.9l-0.3-1.7L6,336.4c-0.2,1.1-0.3,1.7-0.5,1.8c-0.2,0.2-0.2,0.3-0.1,0.5c0.1,0.1,0.1,0.8-0.2,2.2
		c-0.5,2.7-0.7,2.7-1.5,0c-1.6-5.4-2.5-8.4-2.6-8.3c-0.1,0.1-0.4,1.1-0.7,2.4c-0.3,1.2-1,3.5-1.4,4.9c-0.4,1.5-0.8,2.8-0.8,2.9
		c-0.3,0.9-2-3-1.8-4.2c0.1-0.3,0-0.5-0.1-0.5c-0.2,0-0.5-1.6-0.5-2.5c0-0.9-0.1-0.6-0.4,1.1c-0.2,0.9-0.4,1.5-0.5,1.6
		c-0.2,0.1-0.2,0.2,0,0.3c0.2,0.1,0.1,0.9-0.3,3.4c-0.5,3.2-0.5,3.4-0.5,9.1v5.8l-1.4,1.2c-5.8,5-16.8,13.2-17.6,13.2
		c-0.1,0-0.3,0.2-0.6,0.4c-0.2,0.2-1.4,1-2.7,1.8c-2.1,1.3-2.2,1.4-1.8,1.5c0.4,0,0.9-0.2,2.4-1.1c1.4-0.9,1.8-1.1,1.7-0.8
		c-0.2,0.4-0.2,0.4,0.1,0.1c0.1-0.2,0.3-0.4,0.3-0.5c0-0.1,0.1-0.1,0.2-0.1c0.1,0,0.2,0.5,0.2,1.3c0,1,0.1,1.3,0.3,1.3
		c0.2,0,0.3-0.3,0.3-1.5v-1.5l1.1,0l1.1,0l-0.9-0.1l-0.9-0.1l1.5-1c0.8-0.6,1.6-1.1,1.7-1.2c0.1-0.1,0,0.2-0.2,0.7
		c-0.2,0.4-0.4,0.8-0.4,0.9c0,0,0.3-0.4,0.6-1c0.5-0.9,1.2-1.6,1.6-1.6c0.4,0,0,2.9-0.4,3c-0.3,0-0.3,0.1-0.2,0.2
		c0.1,0.1-0.3,0.6-1.3,1.4c-2.2,1.8-2.2,1.9-2.1,1.5c0.1-0.4,0-0.4-0.2,0c-0.1,0.3-0.1,0.3,0.5,0.3c0.5,0,0.8-0.1,2.2-1.4l1.6-1.4
		l0,1.4c0.1,1.9,0.4,1.8,0.4-0.2v-1.6l2.7-2.5c1.5-1.4,2.7-2.5,2.8-2.5c0.1,0,0.2,1.8,0.2,4.1l0,4.1l0-4.3l0-4.3l0.5-0.5
		c0.3-0.3,0.6-0.5,0.8-0.5c0.1,0,0.2-0.1,0.2-0.1c0-0.1,1.3-1.4,2.9-3l2.9-2.9l0,7.8l0,7.8h7.1H8v-8.8v-8.8h36.6h36.6v8.8v8.8h7.1
		h7.1l0-7.6l0-7.6l3.5,3.4l3.5,3.4l0,4.3l0,4.3l0-4c0-2.2,0.1-4,0.2-4c0.1,0,0.8,0.6,1.5,1.3c0.8,0.7,2,1.8,2.7,2.5l1.3,1.1l0,1.5
		c0,1.9,0.3,2.1,0.4,0.2l0-1.3l1.5,1.3c1.2,1,1.6,1.3,2,1.3c0.4,0,0.2-0.2-1.3-1.5c-1.4-1.2-1.7-1.5-1.5-1.6
		c0.2-0.1,0.2-0.1-0.2-0.2l-0.5-0.1l0-1.6l0-1.6l0.5,0.4c0.3,0.2,0.7,0.6,0.8,0.9c0.4,0.7,0.7,1.1,0.4,0.5c-0.3-0.7-0.4-0.7,1.6,0.6
		c1.6,1.1,1.6,1.2,1.2,1.2c-0.4,0.1-0.4,0.1,0.2,0.1l0.6,0v1.4c0,2,0.5,2.1,0.5,0.1l0-1.3l0.5,0.8c0.3,0.4,0.5,0.8,0.6,0.8
		c0,0-0.1-0.3-0.3-0.6l-0.4-0.6l0.4,0.3c2.6,1.7,3.1,2,3.6,1.9c0.4,0,0.2-0.2-2-1.6c-1.4-0.9-2.5-1.6-2.5-1.7s-0.1-0.1-0.2-0.1
		c-0.2,0-2.1-1.2-4.8-3.1c-1.6-1.1-6.8-5.1-8.4-6.3c-2.1-1.7-5.2-4.3-5.4-4.6c-0.2-0.2-0.2-1.9-0.3-6.5c0-6-0.1-6.3-0.5-9.2
		c-0.4-2.5-0.5-3-0.3-3.1c0.2-0.1,0.2-0.2,0-0.3c-0.2-0.1-0.3-0.5-0.5-1.3c-0.4-2.5-0.4-2.5-0.6-1c-0.3,2.1-0.4,2.3-0.6,2.3
		c-0.3,0-0.3,0.3-0.1,0.4c0.4,0.1-0.5,4.2-1,4.1c-0.4,0-0.5-0.2-1-2c-0.3-1.1-0.7-2.4-0.8-2.8c-0.1-0.5-0.5-1.8-0.8-3.1
		c-0.3-1.2-0.6-2.3-0.7-2.4C88.4,332.3,88.3,332.3,88.3,332.4 M-170,335.5c-1.9,1-2.1,3.8-0.3,5c1.2,0.7,2.5,0.6,3.5-0.3
		C-164.3,337.9-167,334-170,335.5 M-179.3,338.7c0,0.4,0,0.5,0.1,0.3c0-0.2,0-0.5,0-0.7C-179.3,338.2-179.3,338.3-179.3,338.7
		 M-263.6,340.1c0,0.3,0,0.5,0.1,0.3c0-0.2,0-0.4,0-0.6C-263.6,339.7-263.6,339.8-263.6,340.1 M-221.7,340c-2.7,0.8-3.2,4.7-0.8,6.1
		c0.2,0.1,0.2,0.4-0.2,2.2c-0.2,1.1-0.7,4-1.2,6.3c-0.9,4.7-1,5.3-2,10.8c-0.4,2.2-0.9,5.1-1.2,6.4c-0.2,1.3-0.5,2.6-0.5,2.8
		c-0.1,0.4-0.1,0.4,1.5,0.3l1.6,0l0.4-3.4c0.6-5.5,0.9-8.2,1.2-11.3c0.2-1.6,0.4-4,0.6-5.4c0.1-1.4,0.4-3.5,0.5-4.6
		c0.1-1.2,0.2-2.4,0.2-2.8c0-1,0.3-1,0.4,0c0.1,0.5,0.4,3.3,0.8,6.4c0.8,6.4,1.2,10.1,1.6,13.2c0.1,1.2,0.4,3,0.5,4
		c0.1,1,0.3,2.3,0.3,3l0.1,1.1h1.5c1.7,0,1.6,0,1.3-1.3c-0.1-0.4-0.2-1.1-0.3-1.6c-0.1-0.5-0.3-1.5-0.4-2.3c-0.6-3-0.8-4-2.5-13.2
		c-1-5.2-1.8-9.6-1.9-9.8c-0.1-0.3,0-0.4,0.5-0.6C-215.8,344.5-217.9,338.8-221.7,340 M-179.1,340.3c0,0.3,0,0.5,0.1,0.3
		c0-0.2,0-0.4,0-0.6C-179.1,339.8-179.1,340-179.1,340.3 M-263.8,344.3c0,1.6,0,2.3,0.1,1.5c0-0.8,0-2.1,0-2.9
		C-263.7,342-263.8,342.7-263.8,344.3 M-178.9,344.2c0,1.6,0,2.2,0.1,1.5c0-0.8,0-2,0-2.8C-178.9,342-178.9,342.6-178.9,344.2
		 M-274.1,344.7c-1.3,0.6-1.9,2.4-1.2,3.8c1.1,2.3,4.6,2,5.3-0.5C-269.3,345.7-271.9,343.6-274.1,344.7 M-169.8,345.6
		c-1.8,0.9-2.1,3.4-0.6,4.7c1.1,0.9,2.6,1,3.7,0C-164.1,348.1-166.7,344.1-169.8,345.6 M-263.6,348.4c0,0.4,0,0.5,0.1,0.3
		c0-0.2,0-0.5,0-0.7C-263.6,347.8-263.6,348-263.6,348.4 M-179.1,348.3c0,0.3,0,0.5,0.1,0.3c0-0.2,0-0.4,0-0.6
		C-179.1,347.8-179.1,348-179.1,348.3 M-179.3,349.9c0,0.4,0,0.5,0.1,0.3c0-0.2,0-0.5,0-0.7C-179.3,349.3-179.3,349.5-179.3,349.9
		 M-272.3,354.7c-2,0.9-2.3,3.5-0.7,4.9c2.5,2.1,6-1.1,4.2-3.8C-269.5,354.6-271.1,354.2-272.3,354.7 M-171.4,355.4
		c-1.2,0.5-1.9,2.1-1.6,3.3c1,3.2,5.7,2.7,5.7-0.7C-167.3,355.9-169.5,354.5-171.4,355.4 M-6.2,358.1c0,0.5-6.7,7-7.2,7
		c-0.2,0-0.3,0-0.2,0.1c0.1,0.1,0,0.3-0.6,0.9c-0.5,0.5-0.7,0.6-0.6,0.4c0.1-0.2-0.1,0-0.3,0.3c-0.4,0.7-0.4,0.7-1.6,0.8l-1.2,0.1
		l1,0.1l1,0.1l-0.8,0.8c-0.5,0.5-0.7,0.6-0.7,0.4c0.1-0.2,0-0.1-0.2,0.1c-0.3,0.5-1.4,1.6-1.6,1.6c-0.3,0-0.1-2.7,0.3-3
		c0.2-0.1,0.9-0.6,1.5-1.1c0.7-0.5,1.1-0.7,1-0.5c-0.3,0.7-0.3,0.8,0.1,0.1c0.3-0.7,0.5-0.8,1-0.9c0.4-0.1,0.5-0.1,0.2-0.1
		c-0.4,0-0.4-0.1,0.3-0.7c1-0.8,1.1-0.8,0.7,0c-0.2,0.4-0.3,0.7-0.3,0.8s0.3-0.4,0.5-0.9c0.3-0.7,0.7-1.1,1.3-1.6
		c1.5-1.1,5.9-4.8,5.9-4.9C-6.4,357.7-6.2,357.8-6.2,358.1 M97.8,360.1c0.9,0.8,2.3,1.9,3.1,2.6s1.5,1.2,1.5,1.3
		c0,0.1,0.1,0.1,0.2,0.1c0.4,0,1.9,1.3,1.5,1.4c-0.2,0-0.1,0.1,0.2,0.1c0.4,0.1,0.6,0.3,0.9,0.9c0.2,0.4,0.4,0.7,0.4,0.6
		c0-0.1-0.1-0.3-0.2-0.5c-0.3-0.6-0.1-0.5,1.1,0.4l1.2,0.8h-0.9c-0.6,0-0.9-0.1-1-0.3c-0.1-0.2-0.2-0.2-0.2-0.1
		c0,0.4,0.3,0.6,1.4,0.6l1.2,0.1l0,1.5c0,0.8,0,1.5-0.1,1.5c-0.2,0-1.7-1.6-1.7-1.9c0-0.2,0-0.2-0.1,0c-0.1,0.2-0.4,0-0.9-0.6
		c-0.4-0.5-0.8-0.8-0.9-0.8c-0.1,0-0.3-0.3-0.5-0.6c-0.2-0.3-0.3-0.5-0.3-0.3c0.1,0.2-0.2,0.1-0.7-0.4c-0.9-0.9-0.9-0.8-0.3-0.8
		c0.3,0,0.5,0.2,0.7,0.5c0.1,0.3,0.2,0.3,0.2,0.1c-0.1-0.2-0.1-0.4-0.1-0.5c0-0.1-0.1-0.2-0.1-0.3c-0.1,0-0.2-0.3-0.4-0.6
		c-0.3-0.5-0.3-0.4,0,0.3c0.1,0.3,0,0.3-0.4,0.3c-0.7-0.1-7-6.1-7-6.8v-0.4l0.4,0.3C95.9,358.6,96.8,359.4,97.8,360.1 M-260.5,360.9
		c0,0.1,0.1,0.4,0.2,0.6s0.2,0.3,0.2,0.3c0-0.1-0.1-0.4-0.2-0.6C-260.4,360.9-260.5,360.8-260.5,360.9 M-268.9,364
		c-2.1,0.8-2.6,3.3-1,4.8c2,1.9,5.4,0,4.8-2.7C-265.5,364.4-267.3,363.4-268.9,364 M-103.2,364.8c0.2,0.7-0.1,1.8-0.3,1.8
		c-0.3,0-0.3,0.3,0,0.4c0.5,0.2-0.9,3.1-1.9,4.1c-0.5,0.5-0.7,0.6-1.3,0.5c-0.9-0.1-1.3,0.6-1.3,2.3v1.1h5h5v-1
		c0-1.5-0.5-2.3-1.3-2.3c-1,0-3.3-3.3-3.1-4.5c0.1-0.3,0-0.5-0.2-0.6c-0.2-0.1-0.3-0.3-0.2-1.2c0.1-0.9,0-1.1-0.2-1.1
		C-103.3,364.3-103.3,364.4-103.2,364.8 M-174.3,365c-2.2,0.5-3.1,2.9-1.6,4.7c1.2,1.5,3.7,1.2,4.7-0.5
		C-170.1,367-171.9,364.5-174.3,365 M-257.9,365.9c0.1,0.3,0.4,0.6,0.5,0.8c0.2,0.2,0.1,0-0.1-0.3
		C-258,365.6-258.3,365.2-257.9,365.9 M110.8,371.4c0.2,0.3,0.1,0.4-0.4,0.4l-0.5,0.1l0.6,0c0.3,0,0.7,0.2,0.8,0.3
		c0.2,0.3,0.2,0.3,0.1,0c-0.1-0.2,0-0.3,0.2-0.4c0.3-0.1,0.2-0.1-0.1-0.1c-0.2,0-0.5-0.2-0.6-0.4C110.7,371,110.7,371,110.8,371.4
		 M-22.3,371.5c-0.3,0.5-0.7,1.4-0.7,1.4c0,0,0.2-0.2,0.4-0.5c0.3-0.5,0.4-0.6,1.1-0.6l0.8,0l-0.7-0.1c-0.4,0-0.7-0.1-0.6-0.2
		c0.1-0.1,0.1-0.2,0-0.2C-22.1,371.3-22.2,371.4-22.3,371.5 M111.8,373.1c0.1,0.3,0.3,0.5,0.3,0.5c0,0,0-0.2-0.2-0.5
		c-0.1-0.3-0.3-0.5-0.3-0.5C111.5,372.6,111.6,372.8,111.8,373.1 M-191.1,374l-1,1L-191.1,374c0.6-0.5,1.1-1,1.1-1
		C-190,372.9-190.2,373-191.1,374 M-26.6,373.7c-0.6,1-0.6,1.1-0.3,0.7c0.3-0.4,0.6-0.9,0.5-0.9C-26.4,373.4-26.5,373.5-26.6,373.7
		 M-180.7,374.2c-1.3,0.7-1.1,0.8,1.4,0.8c2.5,0,2.7-0.1,1.2-0.8C-179,373.7-179.8,373.7-180.7,374.2"/>
	<path id="path1" class="st0" d="M-103,366.2c0,0.2,0.1,0.3,0.2,0.4c0.2,0.1,0.2,0.2,0.2,0.4c-0.1,0.2-0.1,0.2,0.1,0.1
		c0.2-0.2,0.2-0.3,0-0.4c-0.1-0.1-0.3-0.3-0.4-0.4C-103,365.9-103,365.9-103,366.2 M-13.8,370.9c0,2.3,0,3.3,0.1,2.1
		c0-1.1,0-3,0-4.2C-13.7,367.7-13.8,368.6-13.8,370.9 M102.6,370.9c0,2.2,0,3.2,0.1,2c0-1.1,0-3,0-4.1
		C102.6,367.8,102.6,368.7,102.6,370.9 M-106.8,371.6c0.2,0,0.4,0,0.6,0c0.2,0,0-0.1-0.3-0.1S-107,371.5-106.8,371.6 M-100,371.6
		c0.2,0,0.4,0,0.6,0c0.2,0,0-0.1-0.3-0.1C-100,371.5-100.1,371.5-100,371.6 M-156.1,374.4c0,0.3,0,0.5,0.1,0.3c0-0.2,0-0.4,0-0.6
		C-156.1,374-156.1,374.1-156.1,374.4 M-108.3,374.4c0,0.3,0,0.5,0.1,0.3c0-0.2,0-0.4,0-0.6C-108.3,374-108.3,374.1-108.3,374.4"/>
	<path id="path3" class="st1" d="M-251.4,314.3l-0.5,0.6L-251.4,314.3c0.4-0.2,0.6-0.5,0.6-0.5
		C-250.9,313.7-251.1,313.9-251.4,314.3 M-159.6,323.6c0,0.4,0,0.6,0.1,0.4c0-0.2,0-0.5,0-0.8C-159.6,323-159.6,323.2-159.6,323.6
		 M-163.6,328.3c0,0.4,0,0.6,0.1,0.4c0-0.2,0-0.5,0-0.8C-163.6,327.7-163.6,327.9-163.6,328.3 M-159.5,341.2c0,0.5,0,0.6,0.1,0.4
		c0-0.3,0-0.6,0-0.8C-159.4,340.5-159.5,340.7-159.5,341.2 M108.1,369.6c0,0.8,0,1.1,0.1,0.7c0-0.4,0-1,0-1.4
		C108.1,368.5,108.1,368.8,108.1,369.6 M108.1,373.4c0,0.9,0,1.2,0.1,0.8c0-0.4,0-1.1,0-1.6C108.1,372.2,108.1,372.6,108.1,373.4"/>
	<path id="path4" class="st2" d="M-163.5,315.4c0.2,0,0.4,0,0.6,0s0-0.1-0.3-0.1C-163.5,315.3-163.6,315.4-163.5,315.4
		 M-132.6,354.8c0,0.3,0,0.5,0.1,0.3c0-0.2,0-0.4,0-0.6C-132.6,354.3-132.6,354.5-132.6,354.8 M8.8,357.4c0.5,0,1.2,0,1.7,0
		c0.4,0,0-0.1-0.9-0.1C8.7,357.3,8.3,357.4,8.8,357.4 M20.3,357.4c1.1,0,3,0,4.1,0c1.1,0,0.2-0.1-2-0.1S19.2,357.4,20.3,357.4
		 M31,357.4c1.8,0,4.8,0,6.6,0c1.8,0,0.3,0-3.3,0S29.2,357.4,31,357.4 M56.5,357.4c1.2,0,3.2,0,4.4,0c1.2,0,0.2-0.1-2.2-0.1
		C56.2,357.4,55.2,357.4,56.5,357.4 M68,357.4c1.5,0,3.9,0,5.3,0c1.4,0,0.2-0.1-2.7-0.1C67.6,357.4,66.5,357.4,68,357.4
		 M-19.3,369.4c0,0.8,0,1.1,0.1,0.7c0-0.4,0-1,0-1.4C-19.2,368.4-19.3,368.7-19.3,369.4 M-19.3,373.4c0,0.9,0,1.3,0.1,0.8
		c0-0.5,0-1.2,0-1.7C-19.2,372.1-19.3,372.4-19.3,373.4"/>
	<path id="path5" class="st3" d="M-172.3,344.5c0,0.4,0,0.5,0.1,0.3c0-0.2,0-0.5,0-0.7C-172.3,344-172.3,344.2-172.3,344.5
		 M-163.8,344.8c0,0.4,0,0.6,0.1,0.4c0-0.2,0-0.5,0-0.8C-163.8,344.2-163.8,344.4-163.8,344.8 M12.9,357.4c1,0,2.6,0,3.7,0
		c1,0,0.2-0.1-1.8-0.1S11.9,357.4,12.9,357.4 M26.7,357.4c0.3,0,0.6,0,0.8,0c0.2,0,0-0.1-0.5-0.1C26.6,357.3,26.5,357.4,26.7,357.4
		 M44.2,357.4c1.9,0,5,0,6.8,0c1.9,0,0.3,0-3.5,0C43.8,357.4,42.3,357.4,44.2,357.4 M63.5,357.4c0.3,0,0.9,0,1.3,0
		c0.3,0,0.1-0.1-0.6-0.1C63.5,357.3,63.2,357.4,63.5,357.4 M77,357.4c0.7,0,1.8,0,2.5,0c0.7,0,0.1-0.1-1.3-0.1
		C76.9,357.3,76.3,357.4,77,357.4 M-114.8,364.1c0,0.3,0,0.5,0.1,0.3c0-0.2,0-0.4,0-0.6C-114.8,363.7-114.8,363.8-114.8,364.1"/>
	<path id="path6" class="st4" d="M-163.6,326.9c0,0.4,0,0.6,0.1,0.4c0-0.2,0-0.5,0-0.8C-163.6,326.4-163.6,326.5-163.6,326.9
		 M-159.5,339.8c0,0.4,0,0.6,0.1,0.4c0-0.2,0-0.5,0-0.8C-159.4,339.2-159.5,339.4-159.5,339.8 M-13.4,370.7c0,2.4,0,3.3,0.1,2.1
		c0-1.2,0-3.2,0-4.3C-13.4,367.3-13.4,368.3-13.4,370.7 M102.2,370.8c0,2.3,0,3.3,0.1,2.1c0-1.2,0-3.1,0-4.3
		C102.3,367.5,102.2,368.4,102.2,370.8"/>
	<path id="path7" class="st5" d="M-113.5,362.1c0,0.3,0,0.5,0.1,0.3c0-0.2,0-0.4,0-0.6C-113.4,361.7-113.5,361.8-113.5,362.1
		 M-114.8,362.9c0,0.3,0,0.5,0.1,0.3c0-0.2,0-0.4,0-0.6C-114.8,362.5-114.8,362.6-114.8,362.9"/>
	<path id="path8" class="st6" d="M-260.7,323.2c0.5,0,1.2,0,1.7,0c0.4,0,0-0.1-0.9-0.1C-260.8,323.2-261.2,323.2-260.7,323.2
		 M-163.6,325.7c0,0.4,0,0.5,0.1,0.3c0-0.2,0-0.5,0-0.7C-163.6,325.2-163.6,325.3-163.6,325.7 M-159.5,338.4c0,0.4,0,0.6,0.1,0.4
		c0-0.2,0-0.5,0-0.8C-159.4,337.9-159.5,338-159.5,338.4 M-159.3,358.9c0,0.7,0,1,0.1,0.6c0-0.3,0-0.9,0-1.3
		C-159.2,358-159.3,358.3-159.3,358.9"/>
	<path id="path9" class="st7" d="M-221.6,301.9c0.2,0,0.4,0,0.6,0c0.2,0,0-0.1-0.3-0.1C-221.7,301.8-221.8,301.9-221.6,301.9
		 M-160.8,312.9c0,0.4,0,0.5,0.1,0.3c0-0.2,0-0.5,0-0.7C-160.8,312.3-160.8,312.5-160.8,312.9 M-163.8,343.4c0,0.5,0,0.6,0.1,0.4
		c0-0.3,0-0.6,0-0.8C-163.8,342.7-163.8,342.9-163.8,343.4 M-269.1,344.5c0,0.5,0,0.8,0.1,0.5c0-0.3,0-0.7,0-1
		C-269.1,343.7-269.1,344-269.1,344.5"/>
	<path id="path10" class="st8" d="M-195,305.1c0,0.3,0,0.5,0.1,0.3c0-0.2,0-0.4,0-0.6C-194.9,304.7-195,304.8-195,305.1
		 M-114.8,361.9c0,0.4,0,0.5,0.1,0.3c0-0.2,0-0.5,0-0.7C-114.8,361.3-114.8,361.5-114.8,361.9"/>
	<path id="path11" class="st9" d="M8.6,352.2c0.4,0,1,0,1.4,0c0.4,0,0.1-0.1-0.7-0.1C8.6,352.2,8.2,352.2,8.6,352.2 M20.3,352.2
		c1.1,0,3,0,4.1,0c1.1,0,0.2-0.1-2-0.1S19.2,352.2,20.3,352.2 M31.1,352.2c1.8,0,4.7,0,6.5,0c1.8,0,0.4,0-3.2,0
		C30.8,352.2,29.4,352.2,31.1,352.2"/>
	<path id="path12" class="st10" d="M-221.6,301.7c0.2,0,0.4,0,0.6,0c0.2,0,0-0.1-0.3-0.1C-221.7,301.7-221.8,301.7-221.6,301.7
		 M-277.3,336.3c0,3.1,0,4.3,0,2.8c0-1.5,0-4,0-5.6C-277.2,332-277.3,333.2-277.3,336.3 M56.5,352.6c1.2,0,3.2,0,4.4,0
		c1.2,0,0.2-0.1-2.2-0.1C56.2,352.5,55.2,352.5,56.5,352.6 M68,352.6c1.5,0,3.9,0,5.3,0c1.4,0,0.2-0.1-2.7-0.1
		C67.6,352.5,66.5,352.5,68,352.6"/>
	<path id="path13" class="st11" d="M-163.8,341.9c0,0.4,0,0.6,0.1,0.4c0-0.2,0-0.5,0-0.8C-163.8,341.4-163.8,341.5-163.8,341.9
		 M-159.3,356.5c0,0.5,0,0.8,0.1,0.5c0-0.3,0-0.7,0-1C-159.3,355.7-159.3,356-159.3,356.5 M-114.8,360.7c0,0.4,0,0.5,0.1,0.3
		c0-0.2,0-0.5,0-0.7C-114.8,360.2-114.8,360.3-114.8,360.7 M-167.1,374.4c0,0.3,0,0.5,0.1,0.3c0-0.2,0-0.4,0-0.6
		C-167.1,374-167.1,374.1-167.1,374.4"/>
	<path id="path14" class="st12" d="M-263,323.2c0.3,0,0.8,0,1.1,0s0.1-0.1-0.5-0.1S-263.3,323.2-263,323.2 M12.7,352.2
		c1.1,0,2.8,0,3.8,0c1,0,0.1-0.1-2-0.1C12.5,352.2,11.6,352.2,12.7,352.2 M26.7,352.2c0.3,0,0.6,0,0.8,0c0.2,0,0-0.1-0.5-0.1
		C26.6,352.2,26.5,352.2,26.7,352.2"/>
	<path id="path15" class="st13" d="M-163.6,324.3c0,0.4,0,0.6,0.1,0.4c0-0.2,0-0.5,0-0.8C-163.6,323.7-163.6,323.9-163.6,324.3
		 M-159.5,336.9c0,0.4,0,0.6,0.1,0.4c0-0.2,0-0.5,0-0.8C-159.4,336.4-159.5,336.5-159.5,336.9 M49.5,352.6c0.9,0,2.4,0,3.3,0
		c0.9,0,0.2-0.1-1.6-0.1C49.4,352.5,48.6,352.5,49.5,352.6 M63.5,352.6c0.3,0,0.9,0,1.3,0c0.3,0,0.1-0.1-0.6-0.1
		C63.5,352.5,63.2,352.5,63.5,352.6 M77,352.6c0.7,0,1.8,0,2.5,0c0.7,0,0.1-0.1-1.3-0.1C76.9,352.5,76.3,352.5,77,352.6
		 M-114.8,359.6c0,0.3,0,0.5,0.1,0.3c0-0.2,0-0.4,0-0.6C-114.8,359.2-114.8,359.3-114.8,359.6"/>
	<path id="path16" class="st14" d="M-256.4,318.7c-0.1,0.1,0,0.3,0.1,0.5l0.2,0.4l0.3-0.4c0.2-0.2,0.3-0.4,0.3-0.5
		C-255.5,318.6-256.2,318.6-256.4,318.7 M-255.6,319.5c-2.5,3.3-4.9,8.2-6.4,13l-0.5,1.8l-0.1,9.7l-0.1,9.7l0.6,2.1
		c1.1,3.7,3.5,9.3,4.4,10.3c0.2,0.2,0.3,0.4,0.3,0.5c0,0.1,1.7,2.7,2.1,3.2c0.1,0.1,0.6,0.7,1.1,1.3c1.2,1.5,2.2,2.5,2.4,2.5
		c0.1,0,0.2,0.1,0.1,0.1c0,0.1,0.2,0.1,0.6,0.1c0.8-0.1,1.2,0.2,1.3,0.9c0.1,0.3,0.2,0.3,1,0.4l1,0l0-24.6l0-24.6l-0.7-1.4
		c-1.3-2.7-3.1-4.6-5-5.3C-254.7,318.5-254.9,318.5-255.6,319.5 M-257.3,319c-0.5,0.2-0.4,0.3,0.4,0.5c0.2,0,0,0.1-0.5,0
		c-0.9-0.1-0.9-0.1-1.7,0.7l-0.8,0.8l0.7,0.9c0.9,1.2,0.7,1.2,2-0.7c1-1.6,1-1.6,0.8-2.1c-0.1-0.3-0.3-0.5-0.3-0.5
		C-256.7,318.8-257,318.9-257.3,319 M-260.5,321.8c-1,1.3-1,1.3,0.5,1.3c1.6,0,1.5,0,0.7-1C-260,321.1-260,321.1-260.5,321.8
		 M-261.7,323.6c-0.2,0.5-0.8,1.9-0.9,2.4c-0.1,0.4-0.1,0.4,0.6,0.4l0.7-0.1l-0.7,0.2l-0.7,0.2v1.2c0,1.1,0,1.2,0.4,1.7l0.4,0.5
		l-0.4,0.2c-0.4,0.2-0.4,0.2-0.4,1.9c0,0.9,0.1,1.6,0.1,1.4c0.4-1.8,2-5.9,3.1-8.2c0.5-0.9,0.9-1.7,0.9-1.8
		C-258.4,323.1-261.5,323.3-261.7,323.6 M-261,325.3c0.9,0.7,0.9,1,0.2,0.9c-0.4,0-0.4,0,0-0.1c0.4-0.1,0.4-0.1-0.4-0.8
		c-0.5-0.4-0.8-0.7-0.7-0.7C-261.9,324.6-261.4,324.9-261,325.3 M-262.7,329.7c0,0.1,0.1,0.3,0.3,0.3c0.2,0,0.3,0,0.3-0.1
		c0,0-0.1-0.2-0.3-0.3C-262.6,329.5-262.7,329.5-262.7,329.7 M-264,344.3c0,0.5,0,0.7,0.1,0.5c0-0.3,0-0.7,0-0.9
		C-263.9,343.6-264,343.8-264,344.3 M81.1,351.4c0,0.6,0,0.9,0.1,0.5c0-0.3,0-0.9,0-1.2C81.1,350.4,81.1,350.7,81.1,351.4
		 M-278.1,364.4c0,5.9,0,8.2,0,5.3c0-3,0-7.8,0-10.7C-278.1,356.1-278.1,358.5-278.1,364.4 M-262.7,357.2v1.9h0.7
		c0.5,0,0.7-0.1,0.6-0.2c-0.1-0.1-0.3-0.9-0.5-1.7C-262.6,355.1-262.7,355.1-262.7,357.2 M81.1,366.2c0,4.9,0,6.8,0,4.4
		c0-2.5,0-6.4,0-8.8C81.1,359.3,81.1,361.3,81.1,366.2 M-262.7,361.1c0,1.3,0.1,1.8,0.2,1.8c0.3,0,2.5-0.3,2.6-0.4
		c0,0-0.2-0.7-0.6-1.5l-0.6-1.4l-0.6,0.7c-0.4,0.4-0.7,0.6-0.7,0.6c0,0,0.2-0.4,0.6-0.8l0.7-0.7h-0.8h-0.8L-262.7,361.1
		 M-113.5,360.3c0,0.3,0,0.5,0.1,0.3c0-0.2,0-0.4,0-0.6C-113.4,359.8-113.5,360-113.5,360.3 M-261.5,363c-1.3,0.2-1.2-0.1-1.1,2.1
		l0,1.9l1.4-2c0.8-1.1,1.4-2,1.5-2c0.1,0-2.2,3.5-2.8,4.3c-0.2,0.3-0.2,0.9,0.1,1.5c0.1,0.4,0.4,0.5,1.4,0.7
		c0.7,0.2,1.3,0.3,1.4,0.4c0.2,0.1,0.7-0.9,1.7-2.6c0.2-0.3,0.4-0.6,0.4-0.6c0,0-0.3,0.8-0.8,1.7l-0.9,1.6l0.5,0.2
		c0.7,0.3,2,0.2,2.8-0.1l0.6-0.3l-1.1-1.7c-1.1-1.6-1.8-2.8-2.7-4.5C-259.8,362.7-259.7,362.7-261.5,363 M-260.1,367
		c-1.2,0.4-2.2,0.7-2.3,0.7c-0.2-0.1,3.9-1.4,4.2-1.4C-258,366.3-258.9,366.6-260.1,367 M-255.8,370.1c-0.3,0.1-0.2,0.4,0.1,0.4
		c0.2,0,0.3-0.1,0.3-0.3C-255.3,369.9-255.4,369.9-255.8,370.1 M-255.3,370.5c-0.1,0.1,0.1,0.4,0.4,0.7c0.6,0.6,0.9,1.2,1.3,2.3
		c0.3,0.9,0.5,0.9,1,0.5l0.4-0.3l-1.4-1.7c-0.8-0.9-1.4-1.7-1.5-1.7C-255.1,370.3-255.2,370.3-255.3,370.5 M-252.7,374.3
		c-0.4,0.3-0.4,0.3-0.1,0.3c0.2,0,0.5-0.1,0.7-0.3C-251.7,373.8-252.1,373.8-252.7,374.3"/>
	<path id="path17" class="st15" d="M-114.8,358.5c0,0.4,0,0.5,0.1,0.3c0-0.2,0-0.5,0-0.7C-114.8,358-114.8,358.2-114.8,358.5"/>
	<path id="path18" class="st16" d="M-163.6,323c0,0.4,0,0.5,0.1,0.3c0-0.2,0-0.5,0-0.7S-163.6,322.7-163.6,323 M-159.5,335.6
		c0,0.4,0,0.6,0.1,0.4c0-0.2,0-0.5,0-0.8C-159.4,335-159.5,335.2-159.5,335.6"/>
	<path id="path19" class="st17" d="M8.1,373.9c0,0.6,0,0.9,0.1,0.5c0-0.3,0-0.9,0-1.2C8.1,372.9,8.1,373.2,8.1,373.9"/>
	<path id="path20" class="st18" d="M96.7,353.7l0,4.6l1.3,1l1.3,1h3.1h3.1v-3.2v-3.1l-2-1.1c-1.1-0.6-3-1.8-4.3-2.5
		c-1.3-0.8-2.4-1.4-2.5-1.4C96.7,349.1,96.7,351.2,96.7,353.7 M-226.2,358.2l0,8.7l0.6-3c1.4-7.3,2.6-13.8,2.6-14.1
		c0-0.3-0.2-0.3-1.6-0.3h-1.6L-226.2,358.2 M-221.7,352.2c-0.2,1.5-0.4,3.7-0.5,4.9c-0.3,2.6-0.6,5.9-1,9.3
		c-0.1,1.4-0.4,3.4-0.5,4.6c-0.1,1.1-0.3,2.5-0.3,3l-0.1,1h2.4h2.4l0-5.5c0.1-7.2,0-7.8-0.3-10.2c-0.1-1.1-0.5-3.7-0.7-5.6
		c-0.5-4.2-0.5-4.3-0.9-4.3C-221.4,349.4-221.5,349.8-221.7,352.2 M111.5,351.9v2.3h-1h-1v7v7l0.7,0.5c1.1,0.8,5.4,3.7,5.5,3.7
		c0.1,0,0.1-4.4,0.1-9.8v-9.8l0.7-0.7c0.4-0.4,0.9-0.8,1.1-0.9c0.3-0.2,0.4-0.3,0.4-0.9v-0.7h-3.3h-3.3V351.9 M-270.8,352.1
		c0,2.3,0,2.3,0.4,2.3c0.5,0,1.5,0.6,1.8,1.2c0.2,0.3,0.3,0.4,0.3,0.3c-0.2-0.6-0.7-3.2-0.8-4.6l-0.2-1.5l-0.7-0.1l-0.7-0.1V352.1
		 M-268.7,350.3v0.5l0.5-0.4c0.7-0.5,0.8-0.7,0.1-0.7C-268.6,349.8-268.7,349.8-268.7,350.3 M-267.8,350.4l-0.6,0.6h0.9
		c0.5,0,1.6,0,2.4,0.1l1.5,0.1v-0.7v-0.7h-1.9h-1.9L-267.8,350.4 M-263.3,350.2c0,0.2,0.2,0.9,0.3,1.5c0.2,1.6,0.3,1.6,0.3-0.3
		c0-1.5,0-1.6-0.3-1.6C-263.3,349.8-263.3,349.9-263.3,350.2 M-268.3,353c0.2,1,0.4,2,0.5,2c0.1,0.1,1-0.7,2.2-1.7
		c1.1-1,2.1-1.8,2.1-1.8c0,0-0.8,0.9-2,1.9l-2,1.8l1.7,0.1c2,0.1,3.2-0.1,3.2-0.4c0-0.4-0.7-3.4-0.8-3.5c-0.1-0.1-1.3-0.2-2.6-0.2
		l-2.5-0.1L-268.3,353 M-278,364.4v10.6h0.7h0.7v-10.6v-10.6h-0.7h-0.7V364.4 M-238.7,364.9v10h3.1h3.1v-10v-10h-3.1h-3.1V364.9
		 M-265.4,355.4l-2.4,0.1l0.4,1.6c0.2,0.9,0.5,1.7,0.5,1.8c0.1,0.1,0.8-0.5,2.1-1.7c1.1-1,1.9-1.9,1.8-1.9
		C-263,355.3-264.1,355.4-265.4,355.4 M-264.7,357.4l-1.8,1.7h1.9h1.9v-1.8C-262.7,355.2-262.5,355.2-264.7,357.4 M-268.2,357.7
		c0,1.1-1.5,2.6-2.5,2.6c-0.1,0-0.2,0.7-0.2,2.8c0,1.5,0.1,2.7,0.1,2.5c1-2.6,5.1-2.3,5.6,0.4c0.6,3.4-3.5,5.1-5.4,2.3l-0.4-0.6v2.1
		v2.1l0.5-0.1c0.6-0.1,1.2-0.4,2.8-1.4c1.3-0.8,2.5-1.2,3.7-1.2h0.8l-0.5-0.9c-1.3-2.3-2.8-5.7-3.9-9
		C-267.9,358-268.1,357.4-268.2,357.7 M-266.7,359.4c0,0.6,2.1,5.5,3.1,7.5c0.7,1.2,0.9,0.8,0.9-1.8c0-1.9,0-2-0.4-2.1l-0.4-0.1
		l0.4,0c0.3,0,0.4-0.1,0.4-0.9v-0.9l-0.9,0.9l-0.9,0.9l0.5,0.1c0.4,0.1,0.4,0.1-0.2,0.1l-0.7,0l1.1-1.1c1.1-1.1,1.1-1.1,1.1-2v-0.9
		h-2C-265.8,359.3-266.7,359.3-266.7,359.4 M-6.3,367.2c0,4.3,0,6.1,0,4c0-2.1,0-5.6,0-7.8C-6.2,361.2-6.3,362.9-6.3,367.2
		 M96.7,359.7c0,0.2,0.5,0.8,1,1.3l1,1v-0.5c0-0.4-0.2-0.6-0.7-1.1C96.6,359.3,96.7,359.4,96.7,359.7 M-247.7,368v6.9h2.7h2.7V368
		v-6.9h-2.7h-2.7V368 M96.7,368v6.9h1h1V369v-5.9l-1-1l-1-1V368 M63,368.8v6.2h0.9h0.9v-6.2v-6.2h-0.9H63V368.8 M75.8,370.8v4.2h1.4
		h1.4v-4.2v-4.2h-1.4h-1.4V370.8 M43.1,369.6c-0.1,1.3-0.1,3-0.1,3.8v1.6h1.5H46v-3.8v-3.8h-1.4h-1.4L43.1,369.6 M109.5,370.4
		l0.1,1.2h0.7h0.6l-0.6-1.1c-0.3-0.6-0.7-1.2-0.7-1.2C109.5,369.2,109.4,369.7,109.5,370.4 M110.7,370.8c0.5,1,0.6,1,1.2,1
		c0.4,0,0.9,0,1.1,0.1c0.3,0.1-1.6-1.4-2.6-2C110.2,369.8,110.4,370.2,110.7,370.8 M109.5,372.1c0.1,0.2,2.8,2.5,2.9,2.5
		c0,0-0.1-0.3-0.3-0.7c-0.2-0.4-0.6-1-0.7-1.3C111.1,372.1,109.3,371.6,109.5,372.1 M112.2,373.4c0.7,1.2,0.9,1.5,1.2,1.5l0.4,0.1
		v-1.4v-1.4l-1.1,0c-0.6,0-1.2-0.1-1.2-0.1C111.4,372,111.7,372.6,112.2,373.4 M114.3,373.7v1.2h0.8h0.8l-0.4-0.6
		c-0.2-0.3-0.6-0.9-0.8-1.2l-0.4-0.6V373.7 M115.3,373.4c0.4,0.7,0.5,0.8,0.5,0.5c0-0.2-0.2-0.4-0.3-0.5
		C115.2,373.1,115.2,373.1,115.3,373.4 M109.5,374.1v0.8h0.9c1.1,0,1,0-0.1-1l-0.8-0.7V374.1"/>
	<path id="path21" class="st19" d="M-159.5,334.3c0,0.4,0,0.6,0.1,0.4c0-0.2,0-0.5,0-0.8C-159.4,333.7-159.5,333.9-159.5,334.3
		 M115.9,362.7c0,5.5,0,7.7,0,4.9c0-2.8,0-7.3,0-10C115.9,354.9,115.9,357.2,115.9,362.7 M-114.8,357.4c0,0.4,0,0.5,0.1,0.3
		c0-0.2,0-0.5,0-0.7C-114.8,356.8-114.8,357-114.8,357.4 M-246.4,361.1c0.8,0,2,0,2.8,0s0.1-0.1-1.4-0.1
		C-246.5,361-247.1,361-246.4,361.1 M-219.3,365.5c0,0.8,0,1.2,0.1,0.8c0-0.4,0-1.1,0-1.5C-219.2,364.4-219.3,364.7-219.3,365.5
		 M43,369.6c0,0.4,0,0.6,0.1,0.4c0-0.2,0-0.5,0-0.8C43.1,369,43,369.2,43,369.6"/>
	<path id="path22" class="st20" d="M-278.1,348.5c0,2.8,0,4,0.1,2.6c0-1.4,0-3.7,0-5.2C-278.1,344.6-278.1,345.7-278.1,348.5
		 M81.1,347.6c0,1.4,0,2,0.1,1.3c0-0.7,0-1.9,0-2.6C81.1,345.6,81.1,346.2,81.1,347.6 M105.6,357.3c0,1.8,0,2.5,0.1,1.6
		c0-0.9,0-2.4,0-3.3C105.6,354.8,105.6,355.5,105.6,357.3 M-232.4,364.9c0,5.5,0,7.8,0,5c0-2.8,0-7.3,0-10.1
		C-232.4,357.1-232.4,359.4-232.4,364.9 M-226.3,362.1c0,3.1,0,4.3,0.1,2.8c0-1.5,0-4,0-5.6C-226.2,357.8-226.3,359-226.3,362.1
		 M-112,365.4c0.2,0,0.5,0,0.8,0c0.2,0,0-0.1-0.4-0.1C-112.1,365.3-112.2,365.4-112,365.4 M-219.3,367.6c0,0.4,0,0.6,0.1,0.4
		c0-0.2,0-0.5,0-0.8C-219.3,367-219.3,367.2-219.3,367.6"/>
	<path id="path23" class="st21" d="M-133,293.5l-2.7,4.4l-2,5.9l-2,5.9l-0.1,17.9l-0.1,17.9l-0.5,0.1l-0.5,0.1v3.8
		c0,3.6,0,3.9,0.4,5.3c0.4,1.4,1.6,5.9,2.9,11.4c0.4,1.5,0.7,2.8,0.7,2.8s0.6-0.1,1.2-0.3c0.6-0.2,1.8-0.5,2.7-0.7
		c0.9-0.2,1.6-0.4,1.6-0.4c0,0-0.3-2-0.6-4.5c-0.6-3.9-0.7-4.7-0.6-6.9l0-2.4l0.8,2.4c0.5,1.6,0.9,3.1,1.1,4.7
		c0.2,1.3,0.5,3.2,0.6,4.3l0.3,1.9l0.7,0c0.4,0,0.8-0.1,0.8-0.1c0.1-0.1-0.1-2.3-0.6-6.8c-0.3-3-0.6-9.4-0.4-9.1
		c0.2,0.2,1.1,3.7,1.3,5c0.2,1.5,0.6,4.4,0.9,7.4c0.4,3.5,0.4,3.3,0.9,3.2c0.2-0.1,1.3-0.2,2.4-0.3c1.1-0.1,2.2-0.3,2.5-0.3l0.5-0.1
		v-4.9c0-4.3,0-4.8,0.2-4.5c0.2,0.3,0.2-0.4,0.3-5.7c0-5.3,0-6-0.2-6c-0.2,0-0.3-2-0.3-16.8V311l-0.7-2.3c-0.4-1.2-1.3-4.1-2-6.3
		c-0.7-2.2-1.4-4.3-1.5-4.7c-0.2-0.5-4.8-8.1-5.2-8.6C-130.2,289.2-131.5,291.1-133,293.5 M-113.8,330.4c0,13.8,0.1,22.2,0.2,22.7
		c0.1,0.4,0.2,3.4,0.3,6.6l0.1,5.8l1.3-0.1c0.7-0.1,1.3-0.1,1.3-0.2c0,0,0.1-1.6,0.2-3.4c0.1-2.9,0.7-7.2,1.1-7.6
		c0,0,0.2,0.8,0.3,1.8c0.2,1,0.3,2.1,0.4,2.5c0.1,0.4,0.1,2.1,0,3.8l-0.1,3l0.9,0.1c0.5,0,1.7,0.2,2.7,0.2l1.8,0.1l-0.1-0.7
		c-0.1-0.8,0.1-1,0.5-0.7c0.2,0.1,0.2,0.3,0.1,0.4c-0.5,0.5-0.2,1,0.8,1.2l0.8,0.1l0.4-3.7c0.7-6.7,1.7-12.7,1.9-11
		c0,0.2,0.1,1.1,0.2,2c0.1,1.5-0.2,5.5-1,11.7c-0.1,1.1-0.1,1.1,0.2,1.2c0.2,0,0.8,0.2,1.4,0.3c0.6,0.1,1.2,0.2,1.4,0.3
		c0.3,0.1,0.3-0.1,0.3-2.8v-2.9h3.3h3.3l0.3-1.3c0.2-1.1,1.9-6,2-5.8c0.1,0.1-0.4,5.3-0.6,6.1c-0.1,0.5-0.2,1-0.1,1.1
		c0,0.1,0.3-1.1,0.7-2.8c0.4-1.6,0.8-3.3,0.9-3.8l0.3-0.8l-1.1-0.6c-0.6-0.4-1.3-0.7-1.5-0.8l-0.4-0.2l0.1-3.4l0.1-3.4h-3.6h-3.6
		l0,6.2c0,3.4-0.1-4.8-0.1-18.3l0-24.5h-1.8h-1.8v1.9v1.9h-4.8h-4.8v-1.9v-1.9h-2h-2V330.4 M-278.9,329.9c0,0.6,0,0.8,0.1,0.5
		c0-0.3,0-0.8,0-1C-278.9,329.1-278.9,329.3-278.9,329.9 M-159.5,332.9c0,0.4,0,0.6,0.1,0.4c0-0.2,0-0.5,0-0.8
		C-159.4,332.4-159.5,332.5-159.5,332.9 M-241.2,342.1v4.2h-1.5h-1.5v0.6v0.6h2.8h2.8v3.8v3.8h3.2h3.2v10c0,9.9,0,10,0.3,10
		c0.3,0,0.3-0.1,0.3-14.3v-14.3h-2h-2v-4.2v-4.2h-2.8h-2.8V342.1 M84.5,342c0,0.5,0.2,0.8,0.5,0.8s0.5-0.3,0.5-0.8
		c0-0.2-0.2-0.2-0.5-0.2S84.5,341.9,84.5,342 M-270.7,344.2c0,0.7,0.1,1.1,0.4,1.5c0.3,0.4,0.4,0.8,0.4,1.6s-0.1,1.2-0.4,1.6
		c-0.5,0.7-0.5,0.9,0.2,0.9h0.6l-0.1-1.1c-0.1-0.6-0.1-2.1-0.1-3.3l0-2.1h-0.5C-270.7,343.3-270.7,343.3-270.7,344.2 M-269,344.7
		l0,1.5l1.9,0.3c1.8,0.3,1.3,0.3-1,0l-1.1-0.1l0.1,1.2c0.1,0.6,0.1,1.4,0.1,1.7c0,0.5,0,0.5,0.7,0.5c0.7,0,3.9-2.7,3.4-2.9
		c-0.1,0,0-0.1,0.2-0.1c0.4,0,0.2,0.2-1.2,1.5l-1.6,1.5l1.8,0l1.8,0l-0.1-0.9c-0.1-0.5-0.2-2-0.2-3.3l-0.1-2.3h-0.8
		c-0.7,0-0.9,0.1-1.8,1c-0.6,0.5-1.4,1.2-1.7,1.4c-0.8,0.6,0.6-0.7,1.7-1.7l0.8-0.7l-1.6,0l-1.6,0L-269,344.7 M-263.6,345.9
		c0.1,3.4,0.2,3.9,0.6,3.9c0.3,0,0.3-0.2,0.3-3.3v-3.3h-0.5h-0.5L-263.6,345.9 M-46.3,347.7l-1.8,2.8l-0.3,3.3
		c-0.6,6.6-1.4,15.5-1.8,20l-0.1,1.2h7.4h7.4l-0.1-2.5c-0.1-1.4-0.2-4.7-0.3-7.4c-0.1-2.7-0.3-6.6-0.4-8.8c-0.3-6.1,0-5.3-2.3-8.4
		c-2.2-3-2.1-2.9-4.5-2.9l-1.3,0L-46.3,347.7 M-205,346.4c-1.4,0.4-4,2-4,2.6c0,0.1,1.2,0.2,2.9,0.2h2.9V362v12.9h1.1h1.1v-14.2
		v-14.2l-0.8-0.2C-202.9,346.1-203.9,346.1-205,346.4 M54.3,349.8v2.7h4.3H63v-2.7v-2.7h-4.3h-4.3V349.8 M28,350v2.1h6.4h6.4V350
		v-2.1h-6.4H28V350 M-59.3,353.1c-0.4,2.8-0.8,5.9-1,6.8l-0.3,1.7l-0.5,0c-0.3,0-0.7,0-0.9,0.1l-0.4,0.1v6.6v6.6h4.3h4.3v-6.6v-6.6
		h-1.3h-1.3l-0.2-1.3c-0.2-1.5-0.6-3.8-0.9-6.2c-0.1-0.9-0.4-2.5-0.5-3.5C-58.6,347.7-58.5,347.6-59.3,353.1 M8.3,349.1
		C8.1,349.4,8,350,8,350.9v1.3h1.4h1.4l-0.4-0.6c-0.2-0.3-0.6-1.1-0.9-1.7C8.7,348.5,8.6,348.5,8.3,349.1 M-155,362.2
		c0,11.2,0,12.8,0.3,12.8s0.3-1.4,0.3-11.5v-11.5h1.6h1.6v-1.3v-1.3h-1.8h-1.8V362.2 M-28.7,361.7v11.8l0.6-0.4c0.3-0.2,1-0.6,1.5-1
		c0.5-0.3,1-0.7,1.2-0.8c0.6-0.4,5.1-3.5,5.6-3.8l0.5-0.3v-8.6v-8.6H-24h-4.7V361.7 M65.3,351.2v1.3h5.3h5.3v-1.3v-1.3h-5.3h-5.3
		V351.2 M119.8,350.3c-0.8,0.2-2.1,1-3,1.7l-0.9,0.7v10v10l1.8,1.1c1.5,0.9,2,1.1,2.5,1.1h0.7v-12.4v-12.4l-0.4,0
		C120.4,350.1,120.1,350.2,119.8,350.3 M80.9,351.4c0,0.6,0,0.9,0.1,0.5c0-0.3,0-0.9,0-1.2C80.9,350.4,80.9,350.7,80.9,351.4
		 M18.3,351.7v0.4h4h4v-0.4v-0.4h-4h-4V351.7 M-75.5,354.2v2.4h-0.6h-0.6l-0.5,2.1c-0.5,1.9-0.5,2.4-0.5,4.6l0,2.5h0.7h0.7v2
		c0,1.1,0,2.9,0.1,4.1l0.1,2.1l0.8,0.5l0.8,0.5l4.3,0l4.3,0v-9.6v-9.6h-1.6H-69v-2v-2h-3.3h-3.3V354.2 M-191.7,363.6l0,10.8l1.3-1.4
		c1.5-1.6,4.5-5.5,4.5-5.9c0-0.2-0.7-2.9-1.6-6.1c-0.9-3.2-1.7-6.4-1.9-7l-0.3-1.2h-1h-1L-191.7,363.6 M-17,359.2c0,5,0,6.2,0.2,6.1
		c0.3-0.2,2.7-2.1,5.1-4l2.1-1.7l0-3.4l0-3.4h-3.7H-17V359.2 M-277.7,353.7c0.2,0,0.5,0,0.8,0c0.2,0,0-0.1-0.4-0.1
		C-277.7,353.7-277.9,353.7-277.7,353.7 M-86,356.4c-0.2,1.3-0.8,3.9-1.2,6c-1.1,5.4-1.3,6.3-1.1,6.4c0.1,0.1,0.8,0.4,1.7,0.6
		l1.5,0.5v-2.1v-2.1h1.8h1.8l0-4.7l0-4.7l-1.9-1.1c-1.1-0.6-2-1.1-2-1.1C-85.5,354.1-85.8,355.1-86,356.4 M109.4,361.3
		c0,3.9,0,5.5,0,3.5c0-1.9,0-5.1,0-7.1C109.4,355.8,109.4,357.4,109.4,361.3 M-8.5,357.5c0,1.3,0,1.3,1.1,0.3l0.9-0.8l-0.7-0.2
		c-0.4-0.1-0.9-0.2-1-0.3C-8.5,356.4-8.5,356.6-8.5,357.5 M-117.8,361.2v4.4l0.9-0.1c0.5-0.1,1.2-0.1,1.5-0.1l0.6,0v-4.3v-4.3h-1.5
		h-1.5V361.2 M8,364.6c0,3.9,0,7.9,0.1,8.8l0.1,1.6h1.5h1.5v-8.8v-8.8H9.6H8L8,364.6 M18.3,366.2v8.8h4h4v-8.8v-8.8h-4h-4V366.2
		 M28,366.2v8.8h6.4h6.4v-8.8v-8.8h-6.4H28V366.2 M54.3,366.2v8.8h4.3H63v-8.8v-8.8h-4.3h-4.3V366.2 M65.3,366.2v8.8h5.3h5.3v-4.2
		v-4.2l1.5-0.1l1.5-0.1l-1.5,0l-1.5,0v-4.5v-4.5h-5.3h-5.3V366.2 M80.9,366.2c0,4.9,0,6.8,0,4.4c0-2.5,0-6.4,0-8.8
		C80.9,359.3,80.9,361.3,80.9,366.2 M-7.5,358.9c-0.7,0.6-1,1.1-1,1.3c0,0.2,0.3,0.1,1.1-0.8C-6,358-6.1,357.7-7.5,358.9
		 M-141,364.1l0,5.5h-0.4c-0.4,0-0.5,0.7-0.1,0.9c0.3,0.2,2.8-1,2.8-1.2c0-0.1-0.5-2.5-1.1-5.3c-0.6-2.8-1-5.2-1.1-5.3
		C-140.9,358.6-141,361-141,364.1 M-274.7,366.9c0,8,0,8.1,0.3,8.1c0.6,0,0.7-0.6,0.7-8.5l0-7.6l-0.5-0.1l-0.5-0.1V366.9
		 M-7.5,360.7l-1,1v6.6v6.6h1.1h1.1v-7.7c0-4.2,0-7.7,0-7.7C-6.4,359.6-6.9,360.1-7.5,360.7 M99.3,360.5c0,0.2,7.9,6.3,8.1,6.3
		c0.1,0,0.1-1.4,0.1-3.1v-3.1l-1.4-0.1C104.6,360.4,99.3,360.4,99.3,360.5 M-11.5,362.2c-1.2,1-1.9,1.6-2.1,2.1l-0.4,0.7h0.4
		c0.7,0,4-3.3,3.9-3.9C-9.7,360.8-9.8,360.9-11.5,362.2 M-157.8,361.9c0,0.6,0,0.8,0.1,0.5c0-0.3,0-0.8,0-1
		C-157.8,361.1-157.8,361.3-157.8,361.9 M98.7,361.6c0,0.6,3.2,3.7,3.8,3.7l0.4,0l-0.4-0.7c-0.3-0.5-0.8-1.1-1.8-1.9
		C98.5,360.9,98.7,361,98.7,361.6 M46,368.8v6.2h3.6h3.6v-6.2v-6.2h-3.6H46V368.8 M-11.6,364.6l-1.8,1.7v4.3v4.3h1.8h1.8v-6
		c0-3.3,0-6-0.1-6C-9.8,362.9-10.6,363.7-11.6,364.6 M98.7,369v6h1.8h1.8l0-4.2l0-4.2l-1.7-1.7l-1.7-1.7V369 M-219.2,367
		c-0.2,6.1-0.2,7.9,0.1,7.9c0.3,0,0.4-7.9,0.2-10.3C-219.1,363.2-219.1,363.3-219.2,367 M-157.8,366.9c0,1.8,0,2.6,0.1,1.7
		c0-0.9,0-2.4,0-3.3C-157.7,364.3-157.8,365-157.8,366.9 M-169.3,369.4v5.5h0.5h0.5v-4.3c0-4.3-0.2-6-0.9-6.7
		C-169.3,363.9-169.3,366.4-169.3,369.4 M-14.6,364.7c-0.7,0.6-0.7,0.7-0.1,0.5c0.3-0.1,1.1-1.1,0.8-1.1
		C-13.9,364.1-14.2,364.4-14.6,364.7 M102.9,364.7c0.2,0.4,0.4,0.5,0.7,0.5h0.4l-0.5-0.4c-0.3-0.2-0.6-0.4-0.7-0.5
		C102.7,364.2,102.7,364.3,102.9,364.7 M-15.7,365.6c-0.1,0-0.4,0.5-0.6,1l-0.4,0.9h0.6c0.6,0,0.8-0.2,1.3-1.4l0.3-0.6l-0.5,0
		C-15.2,365.5-15.5,365.5-15.7,365.6 M-14.3,365.7c-0.1,0.2-0.1,0.4-0.2,0.5c0,0.1,0.1,0,0.4-0.2c0.5-0.5,0.5-0.5,0.2-0.5
		C-14.1,365.4-14.2,365.6-14.3,365.7 M102.8,366c0.7,0.7,0.7,0.7,0.4,0.1c-0.1-0.3-0.4-0.5-0.6-0.6
		C102.3,365.5,102.4,365.6,102.8,366 M103.7,366.5c0.4,1,0.6,1.1,1.3,1.1l0.4,0l-0.4-1c-0.4-0.9-0.4-1-1.1-1l-0.7-0.1L103.7,366.5
		 M-16.8,366.3c-0.1,0.1-0.2,0.4-0.2,0.6c0.1,0.4,0.1,0.4,0.3-0.1C-16.5,366.2-16.5,366.1-16.8,366.3 M105.4,366.5
		c0.1,0.2,0.1,0.4,0.1,0.5c0,0.4,0.7,0.8,1.3,0.8h0.6l-0.4-0.3C105.4,366.3,105.3,366.2,105.4,366.5 M-15.5,368.4l-1.5,1.4v2.6v2.6
		h1.6h1.6v-4c0-2.2,0-4,0-4S-14.6,367.6-15.5,368.4 M102.7,371v3.9h2.4h2.4v-1.7v-1.7l-1.9-1.8c-1-1-2.1-2-2.4-2.2l-0.5-0.4V371
		 M43,368.2c0,0.5,0,0.6,0.1,0.4c0-0.3,0-0.6,0-0.8C43.1,367.5,43,367.7,43,368.2 M-186.2,368.3c-0.6,0.9-2.8,3.6-4.3,5.3l-1.2,1.3
		h0.8c0.6,0,0.8-0.1,0.8-0.3c0.1-0.3,0.1-0.3,0.1,0c0,0.2,0.2,0.3,1.1,0.3l1,0l-1-0.5c-0.9-0.5-1.1-0.5-1.2-0.3
		c-0.1,0.2-0.2,0.2-0.2-0.1c0-0.5-0.1-0.5,1.5,0.3c1.1,0.6,1.5,0.7,2.4,0.7h1.1l0-3.5C-185.4,367.6-185.5,367.2-186.2,368.3
		 M-16.9,368.1c-0.2,0.5,0,0.5,0.5,0.1l0.5-0.4l-0.4,0C-16.7,367.8-16.8,367.9-16.9,368.1 M105.5,368.5c0.3,0.3,0.6,0.6,0.6,0.6
		c0,0-0.1-0.3-0.2-0.6c-0.2-0.4-0.4-0.6-0.6-0.6C105,367.9,105,368,105.5,368.5 M106,368c0,0.3,0.9,1.9,1.2,2.1
		c0.3,0.2,0.3,0.2,0.3-0.9c0-1.1,0-1.1-0.5-1.2C106.4,367.9,106,367.9,106,368 M-20.3,368.9c-0.4,0.3-1,1.1-1.7,2.6
		c-0.1,0.1,2,0,2.2-0.2c0.1-0.1,0.1-0.7,0.1-1.5l0-1.4L-20.3,368.9 M-185.8,369.5l0.4,0.3l-0.4-0.1c-0.2-0.1-0.5-0.1-0.6-0.1
		c-0.1,0-0.2-0.1-0.2-0.1C-186.7,369.2-186.3,369.3-185.8,369.5 M109.4,370.4c0,0.7,0,1,0.1,0.6c0-0.3,0-0.9,0-1.3
		C109.4,369.5,109.4,369.8,109.4,370.4 M-22.9,370.6c-0.8,0.6-1.4,1-1.4,1.1c0,0,0.5,0,1,0l0.9-0.1l0.5-1c0.3-0.5,0.5-1,0.5-1
		C-21.4,369.6-22.1,370.1-22.9,370.6 M-186,371.1c0,0.1-0.1,0-0.2-0.3c-0.1-0.3-0.2-0.7-0.2-0.8c0-0.1,0.1,0,0.2,0.3
		C-186.1,370.6-186,371-186,371.1 M-185.6,372.6c0.1,0.4,0.1,0.5,0,0.3c-0.1-0.2-0.2-0.6-0.3-0.9c-0.1-0.4-0.1-0.5,0-0.3
		C-185.8,371.9-185.7,372.3-185.6,372.6 M-22,371.9c-0.2,0.1-1.5,2.1-1.5,2.5c0,0.1,0.7-0.5,1.5-1.2s1.5-1.3,1.5-1.3
		C-20.5,371.8-21.7,371.8-22,371.9 M-25,373.5c0,2.1,0.4,2.1,1.6-0.1l0.8-1.5l-1.2,0.1L-25,372V373.5 M-21.2,373.6l-1.5,1.3l1.5,0
		c1.8,0.1,1.6,0.2,1.6-1.4l0-1.3L-21.2,373.6 M-26.4,373.7l-0.8,1.2h0.8h0.8v-1.3C-25.5,372.2-25.4,372.2-26.4,373.7 M-27.5,373.7
		c-1.3,0.8-1.4,1.2-0.6,1.2c0.5,0,0.6-0.1,1-0.6c0.4-0.7,0.8-1.4,0.8-1.4C-26.4,373-26.9,373.3-27.5,373.7 M109.4,374
		c0,0.5,0,0.8,0.1,0.5c0-0.3,0-0.7,0-1C109.4,373.2,109.4,373.5,109.4,374 M116,374.1c0,0.8,0.2,0.9,1.1,0.8l0.9-0.1l-1-0.6l-1-0.6
		L116,374.1"/>
	<path id="path24" class="st22" d="M-100.3,310.4c0,1.1,0,1.5,0.1,1c0-0.6,0-1.5,0-2C-100.2,308.8-100.3,309.3-100.3,310.4
		 M-140,327.9l0,17.5l-0.5,0.1l-0.5,0.1l0.5,0c0.8,0,0.7,1.4,0.7-17.8l0-17.4L-140,327.9 M-244.3,346.9c0,0.4,0,0.5,0.1,0.3
		c0-0.2,0-0.5,0-0.7C-244.3,346.3-244.3,346.5-244.3,346.9 M-203.3,362c0,7.1,0,10.1,0,6.4c0-3.6,0-9.5,0-13
		C-203.2,351.9-203.3,354.9-203.3,362 M80.7,351.4c0,0.6,0,0.9,0.1,0.5c0-0.3,0-0.9,0-1.2C80.8,350.4,80.7,350.7,80.7,351.4
		 M-15.2,352.9c1,0,2.7,0,3.8,0c1,0,0.2-0.1-1.9-0.1C-15.4,352.9-16.2,352.9-15.2,352.9 M80.7,366.2c0,4.9,0,6.8,0,4.4
		c0-2.5,0-6.4,0-8.8C80.8,359.3,80.7,361.3,80.7,366.2 M106.1,360.6c0.3,0,0.8,0,1,0s0-0.1-0.5-0.1
		C106,360.5,105.8,360.5,106.1,360.6 M63.5,362.6c0.3,0,0.8,0,1,0c0.3,0,0-0.1-0.5-0.1C63.4,362.5,63.2,362.5,63.5,362.6
		 M53.2,368.8c0,3.4,0,4.8,0,3.1c0-1.7,0-4.5,0-6.3C53.3,363.9,53.2,365.3,53.2,368.8 M-218.8,370.6c0,2.4,0,3.4,0.1,2.2
		c0-1.2,0-3.2,0-4.4C-218.7,367.2-218.8,368.2-218.8,370.6 M-168.3,370.7c0,2.4,0,3.3,0.1,2.1c0-1.2,0-3.2,0-4.3
		C-168.2,367.3-168.3,368.3-168.3,370.7 M-76.3,372.5c0,0.8,0,1.2,0.1,0.8c0-0.4,0-1.1,0-1.5C-76.2,371.4-76.3,371.7-76.3,372.5"/>
	<path id="path25" class="st23" d="M-278.1,342.6c0,0.4,0,0.6,0.1,0.4c0-0.2,0-0.5,0-0.8C-278.1,342-278.1,342.2-278.1,342.6
		 M-89.3,350c0,0.5,0,0.6,0.1,0.4c0-0.3,0-0.6,0-0.8C-89.3,349.4-89.3,349.6-89.3,350 M43.4,351.7c0.2,0,0.4,0,0.6,0
		c0.2,0,0-0.1-0.3-0.1C43.3,351.7,43.2,351.7,43.4,351.7 M-153.7,352.1c0.5,0,1.2,0,1.7,0c0.4,0,0-0.1-0.9-0.1
		C-153.8,352-154.2,352-153.7,352.1 M-273.6,366.6c0,4.2,0,5.9,0,3.8c0-2.1,0-5.5,0-7.6C-273.6,360.7-273.6,362.4-273.6,366.6
		 M-157.9,361.8c0,0.5,0,0.7,0.1,0.5c0-0.3,0-0.7,0-0.9C-157.9,361.1-157.9,361.3-157.9,361.8 M-94.9,361.1c0.9,0,2.5,0,3.4,0
		c0.9,0,0.2-0.1-1.7-0.1C-95,361-95.8,361-94.9,361.1 M-157.9,366.9c0,1.7,0,2.4,0.1,1.5c0-0.9,0-2.3,0-3.2
		S-157.9,365.1-157.9,366.9"/>
	<path id="path26" class="st24" d="M-163.8,340.5c0,0.5,0,0.6,0.1,0.4c0-0.3,0-0.6,0-0.8C-163.8,339.9-163.8,340.1-163.8,340.5
		 M-178.8,343.3c0,0.3,0,0.5,0.1,0.3c0-0.2,0-0.4,0-0.6C-178.8,342.8-178.8,343-178.8,343.3 M-178.8,345.2c0,0.4,0,0.5,0.1,0.3
		c0-0.2,0-0.5,0-0.7C-178.8,344.7-178.8,344.8-178.8,345.2 M-6.3,350.9c0,3.3,0,4.6,0,3c0-1.6,0-4.3,0-5.9
		C-6.2,346.4-6.3,347.7-6.3,350.9 M-231.6,360.6c0,7.9,0,11.2,0,7.2c0-4,0-10.5,0-14.4C-231.6,349.4-231.6,352.7-231.6,360.6
		 M-243,347.6c0.8,0,2.1,0,2.9,0c0.8,0,0.1-0.1-1.5-0.1S-243.8,347.5-243,347.6 M-226.3,353c0,2,0,2.8,0.1,1.8c0-1,0-2.7,0-3.7
		C-226.2,350.2-226.3,351-226.3,353 M113.1,349.6c0.9,0,2.4,0,3.3,0c0.9,0,0.1-0.1-1.7-0.1S112.2,349.5,113.1,349.6 M-159.3,354.6
		c0,0.5,0,0.7,0.1,0.5c0-0.3,0-0.7,0-0.9C-159.3,353.9-159.3,354.1-159.3,354.6 M-120.7,361c0,2.6,0,4.8,0.1,4.7
		c0.1-0.1,0.1-9.3,0-9.4C-120.6,356.3-120.7,358.4-120.7,361 M-270.9,363.4c0,1.7,0,2.4,0.1,1.5c0-0.9,0-2.3,0-3.2
		S-270.9,361.6-270.9,363.4 M107.6,363.8c0,1.8,0,2.5,0.1,1.6c0-0.9,0-2.4,0-3.3C107.6,361.3,107.6,362,107.6,363.8 M-85.1,367.9
		c0,1.2,0,1.7,0.1,1c0-0.6,0-1.6,0-2.2C-85.1,366.2-85.1,366.7-85.1,367.9 M-270.9,369.5c0,1.5,0,2,0.1,1.3c0-0.8,0-2,0-2.7
		C-270.9,367.4-270.9,368.1-270.9,369.5 M107.6,369.3c0,0.7,0,1,0.1,0.6s0-0.9,0-1.3S107.6,368.6,107.6,369.3 M107.6,373.3
		c0,1,0,1.4,0.1,0.9c0-0.5,0-1.3,0-1.8C107.6,371.9,107.6,372.3,107.6,373.3"/>
	<path id="path27" class="st25" d="M-163.8,339.1c0,0.4,0,0.6,0.1,0.4c0-0.2,0-0.5,0-0.8C-163.8,338.5-163.8,338.7-163.8,339.1
		 M-178.9,339.7c0,0.1,0,1.1,0.1,2.3c0.6,7.7-1.6,16.6-5.9,23.9c-0.6,1-0.6,1.2-0.6,2.4v1.3l2,0.8c1.1,0.4,2,0.8,1.9,0.9
		c0,0-0.9-0.3-2-0.7c-1-0.4-1.9-0.8-1.9-0.8c0,0,0,1.1,0,2.5c0,1.4,0.1,2.4,0.1,2.1c0.1-0.4,0.1-0.4,0.2,0c0.1,0.3,0.2,0.4,1,0.4
		h0.9l1-1.4c1.3-1.8,1.3-1.8,1-2c-0.2-0.1-0.1-0.1,0.1-0.1c0.3,0,1.1-1.1,2.4-3.4c0.6-1,0.6-0.9-0.8-1.3c-0.7-0.2-1.1-0.4-1-0.4
		c0.1,0,0.6,0.1,1.2,0.3c0.5,0.2,1,0.3,1.1,0.3c0.2,0,1.2-2.1,2.1-4.3l0.5-1.2l-1.5-0.2l-1.5-0.2l1.4,0.1l1.4,0.1l-1.3-1.5
		c-0.7-0.8-1.7-1.8-2.2-2.3c-1.2-1.1-1.1-1.3,0.4-1.3c0.7,0,1.9-0.1,2.7-0.1l1.5-0.1l-2.3-2.1c-2.5-2.3-2.5-2.2-2-2.4
		c0.6-0.2,0.9-0.1,0.4,0.1l-0.5,0.2l2.3,2.1c1.3,1.1,2.3,2.1,2.4,2.2c0,0.1-1.3,0.2-2.8,0.3l-2.8,0.1l2.2,2.3
		c1.2,1.3,2.2,2.3,2.3,2.3c0.2,0,1.2-3.3,1.7-5.2c0.8-3.1,1.3-7.6,1.3-10.5c0-1.1-1.3-4.4-1.7-4.4c-0.2,0-2.9,0.7-3.4,0.9
		c-0.2,0.1,0.5,0.4,1.6,1c1,0.5,1.8,0.9,1.7,1c-0.1,0.1-3.5-1.7-3.8-1.9c-0.1-0.1,0.8-0.4,2-0.7l2.1-0.6l-0.2-0.5
		c-0.1-0.3-0.3-0.5-0.4-0.5s-0.1-0.1-0.1-0.1c0-0.1-0.8-0.2-2-0.2C-177.9,339.6-178.8,339.7-178.9,339.7 M-182.5,345.5l-2.9,5.8v7.5
		c0,4.6,0.1,7.5,0.2,7.4c0.1-0.1,0.5-0.8,1-1.7c3.1-5.8,4.8-11.7,5.1-18.2c0.1-2.5-0.1-6.6-0.3-6.6
		C-179.5,339.8-180.9,342.4-182.5,345.5 M-278,348.5v5.1h0.7h0.7v10.7v10.7h1h1v-12.6v-12.6l-0.4-0.6c-0.9-1.2-0.9-2.7,0-3.7
		c0.3-0.3,0.4-0.7,0.4-1.2v-0.7h-1.7h-1.7V348.5 M-172.9,344.6l0.5,0.3l-0.6,0.2c-3.7,0.9-4.8,1.2-4.8,1.1c0,0,0.7-0.3,1.7-0.5
		c1-0.3,2.1-0.5,2.5-0.7l0.8-0.2l-0.5-0.3c-0.3-0.2-0.5-0.3-0.5-0.4C-174,344.1-173.5,344.3-172.9,344.6 M-230.2,347l-1.3,2.2v12.9
		v12.9h2l2,0l0.5-3l0.5-3l0-10l0-10l-1.1-1.8c-0.6-1-1.1-2-1.2-2.1C-228.9,344.8-229.1,345.1-230.2,347 M-171.8,348.4
		c-0.8,9.5-4.2,18.4-9.8,25.8c-0.7,0.9-0.5,1,0.3,0.3c1.1-1,2.9-1,4,0l0.5,0.5h3.7h3.7v-7.1v-7.1l-0.5,0.1c-2.5,0.4-4.3-2.7-2.8-4.7
		c0.6-0.8,1.7-1.3,2.6-1.2l0.6,0.1V353c0-2,0-2.1-0.4-2.2c-1.3-0.4-2.1-2.3-1.6-3.7c0.1-0.3,0.1-0.6-0.1-0.9
		C-171.6,346-171.6,346.2-171.8,348.4 M-201,360.5v14.4h4.4c4,0,4.4,0,4.7-0.3c0.3-0.3,0.3-1.5,0.3-14.4v-14.1h-4.7h-4.7V360.5
		 M-178.1,346.4c0,0.1,1.1,0.9,2.5,1.8c2.9,2,3.1,2.1,2.5,2.1c-0.2,0-0.3-0.1-0.3-0.1c0-0.1-1.1-0.9-2.4-1.9c-2.9-2-3-2-2.6-2
		C-178.3,346.3-178.2,346.3-178.1,346.4 M-246.7,354.3v6.7h2.2h2.2v7v7h1.8h1.8v-13.7v-13.7h-4h-4V354.3 M27.9,350
		c0,1.2,0,1.7,0.1,1c0-0.6,0-1.6,0-2.2C27.9,348.3,27.9,348.8,27.9,350 M-151.3,350.1v2h-1.6h-1.6v11.4v11.4h2.1h2.1l2.8-1.4
		c1.5-0.8,2.9-1.4,3-1.5c0.1,0,0.1-0.4-0.1-1c-0.6-2.3-3.6-13.4-4-14.5c-0.3-1-0.7-4.8-0.5-4.8c0.2,0,1.8,3.5,2.1,4.5l0.4,1.3
		l-0.1-2.1c-0.1-1.4,0-2,0.1-1.9c0.3,0.3,1.7,3.6,1.9,4.8c0.1,0.6,0.6,2.4,1,4c0.4,1.6,0.8,3.1,0.9,3.4c0.1,0.3,0.1-2.5,0.1-6.2
		l0-6.7h-1.1h-1.1v-2.3v-2.3h-3.3h-3.3V350.1 M-209.9,349.1l-0.8,0.1V362v12.9h3.7h3.7V362v-12.9l-2.9,0
		C-207.8,349.1-209.4,349.1-209.9,349.1 M-225.4,349.4c0.5,0,1.3,0,1.8,0s0.1-0.1-0.9-0.1S-225.9,349.4-225.4,349.4 M-174.4,350.6
		c-0.2,0.1-0.5,0.1-0.7,0.1h-0.3l0.3-0.1c0.2-0.1,0.5-0.1,0.7-0.1h0.3L-174.4,350.6 M-89.3,351.4c0,0.4,0,0.5,0.1,0.3
		c0-0.2,0-0.5,0-0.7C-89.3,350.8-89.3,351-89.3,351.4 M-176.4,351.1c-0.2,0.1-0.6,0.2-0.9,0.2c-0.6,0.1-0.6,0.1,0.1-0.1
		C-176.5,351-175.8,350.9-176.4,351.1 M-159.3,352.9c0,0.5,0,0.7,0.1,0.5c0-0.3,0-0.7,0-0.9C-159.3,352.2-159.3,352.4-159.3,352.9
		 M-215.2,353.6c-1.6,0.4-3,0.8-3.1,0.7c-0.1,0,0.1,1.2,0.4,2.8c0.3,1.6,0.8,4.1,1.1,5.6c0.3,1.5,0.6,3.3,0.8,4
		c0.1,0.7,0.5,2.6,0.8,4.3c0.3,1.7,0.6,3.3,0.7,3.5c0.1,0.4,0.2,0.4,1.4,0.4h1.3v-11.1c0-8.8,0-11.1-0.2-11.1
		C-212.2,352.8-213.6,353.2-215.2,353.6 M-120.5,361.2l0,4.6h0.7c1.3,0,1.3,0.1,1.3-2.9v-2.7l-0.7-1.5
		C-120.5,356-120.5,355.9-120.5,361.2 M27.9,366.2c0,4.9,0,6.8,0,4.4c0-2.5,0-6.4,0-8.8C27.9,359.3,27.9,361.3,27.9,366.2
		 M-166.5,365.9v8h0.5h0.5V372v-1.9l0.5-0.3l0.5-0.3V367v-2.7l-0.5-0.4c-0.7-0.5-0.7-1,0-1.4c0.4-0.2,0.5-0.4,0.5-0.8
		c0-0.3,0.1-0.7,0.2-0.8c0.1-0.2,0.2-0.5,0.3-0.7c0.1-0.2,0.2-0.8,0.2-1.3v-1h-1.3h-1.3V365.9 M-159.2,358.9c0,0.5,0.1,1.2,0.3,1.6
		c0.1,0.3,0.3,0.9,0.3,1.2c0,0.4,0.1,0.6,0.3,0.8c0.3,0.2,0.3,0.1,0.3-0.6c0-0.5,0.1-0.9,0.2-0.9c0.2-0.1,0.2-0.1,0-0.1
		c-0.1,0-0.2-0.4-0.2-1.4v-1.4h-0.6h-0.6V358.9 M-273.5,366.5v7.3l0.7-0.7c0.4-0.4,1-0.8,1.3-0.9l0.5-0.2v-5.9v-5.9h-0.4
		c-0.6,0-1.3-0.3-1.7-0.7l-0.4-0.4V366.5 M-178.8,361.1c0,0-0.5,0-1.3,0c-0.8-0.1-1.4-0.1-1.4,0c0,0.1,0.8,1.3,1.7,2.7
		c2,3,2,3,1.9,3c-0.1,0-3.9-5.8-3.9-5.9C-181.8,360.7-179,361-178.8,361.1 M-96.5,363.9v2.8l2.4,0.6c1.3,0.3,2.5,0.6,2.6,0.6
		c0.2,0.1,0.3-0.5,1.2-4.4c0.2-1.1,0.5-2.1,0.5-2.2c0.1-0.2-0.7-0.2-3.3-0.2h-3.3V363.9 M-62.4,368.4c0,3.7,0,5.1,0,3.3s0-4.9,0-6.7
		C-62.4,363.2-62.4,364.7-62.4,368.4 M-158.4,364.1c-0.5,0.3-0.4,5.4,0,5.7c0.3,0.2,0.3,0.1,0.3-2.8c0-1.7,0-3,0-3
		C-158.1,364-158.2,364-158.4,364.1 M-172,365.3c1.5,1,1.7,3.3,0.3,4.6c-1.9,1.8-5,0.5-5-2.1C-176.7,365.4-174.1,364-172,365.3
		 M-181.3,365.9c1.3,0.5,0.8,0.4-0.7-0.1c-0.7-0.2-1.4-0.4-1.4-0.3c0,0,0.5,1.3,1.3,2.9c0.7,1.5,1.3,2.8,1.3,2.8
		c-0.1,0.1-2.9-5.7-2.9-6C-183.8,365.1-182.9,365.4-181.3,365.9 M-85,367.9l0,2.1l1.2,0.5c0.6,0.3,1.2,0.4,1.2,0.4
		c0.1-0.1,1.5-4.8,1.5-5c0-0.1-0.9-0.1-2-0.1h-2L-85,367.9 M-79.2,366.7c-0.8,2.9-1.3,4.8-1.3,5c0,0.2,3,1.7,4,2.1
		c0.1,0,0.2-1.6,0.2-4v-4h-1.3H-79L-79.2,366.7 M-218.6,371.2l0,3.7h0.5c0.4,0,0.5,0,0.4-0.5c0-0.3-0.2-1.5-0.3-2.8
		C-218.6,367.3-218.6,367.3-218.6,371.2"/>
	<path id="path28" class="st26" d="M-221,295.6c0.2,0,0.5,0,0.8,0c0.2,0,0-0.1-0.4-0.1C-221.1,295.5-221.2,295.5-221,295.6
		 M-163.8,337.8c0,0.4,0,0.6,0.1,0.4c0-0.2,0-0.5,0-0.8C-163.8,337.2-163.8,337.4-163.8,337.8 M-246.1,347.6c0.3,0,0.9,0,1.3,0
		c0.3,0,0.1-0.1-0.6-0.1C-246.2,347.5-246.5,347.5-246.1,347.6 M-159.3,351.4c0,0.5,0,0.6,0.1,0.4c0-0.3,0-0.6,0-0.8
		C-159.3,350.7-159.3,350.9-159.3,351.4 M-76.4,356.6c0.2,0,0.5,0,0.7,0c0.2,0,0-0.1-0.4-0.1C-76.4,356.5-76.6,356.5-76.4,356.6"/>
	<path id="path29" class="st27" d="M-120.6,327.8c0,9.2,0,13,0,8.4c0-4.6,0-12.1,0-16.8C-120.6,314.8-120.6,318.6-120.6,327.8
		 M-163.8,336.4c0,0.4,0,0.6,0.1,0.4c0-0.2,0-0.5,0-0.8C-163.8,335.9-163.8,336-163.8,336.4 M-149.7,348.1c0.9,0,2.4,0,3.3,0
		c0.9,0,0.1-0.1-1.7-0.1C-149.9,348-150.6,348-149.7,348.1 M-159.3,349.9c0,0.5,0,0.6,0.1,0.4c0-0.3,0-0.6,0-0.8
		C-159.3,349.2-159.3,349.4-159.3,349.9 M-270.9,352.1c0,1.3,0,1.9,0.1,1.2c0-0.7,0-1.8,0-2.4C-270.9,350.2-270.9,350.8-270.9,352.1
		 M-117.9,361.2c0,2.5,0,3.5,0.1,2.3c0-1.2,0-3.2,0-4.5C-117.9,357.7-117.9,358.7-117.9,361.2 M-157.9,359.4c0,0.8,0,1.2,0.1,0.8
		c0-0.4,0-1.1,0-1.5C-157.9,358.2-157.9,358.5-157.9,359.4"/>
	<path id="path30" class="st28" d="M-112.9,308.4c0.6,0,1.5,0,2.1,0c0.6,0,0.1-0.1-1-0.1C-113,308.3-113.4,308.4-112.9,308.4
		 M-99.4,308.4c0.6,0,1.5,0,2,0c0.5,0,0.1-0.1-1-0.1C-99.5,308.3-99.9,308.4-99.4,308.4 M-238.4,337.9l2.7,0.1l0,4.2l0,4.2l0-4.2
		l0-4.2L-238.4,337.9l-2.7-0.1L-238.4,337.9 M-277.2,343.4c0.5,0,1.3,0,1.8,0c0.5,0,0.1-0.1-0.9-0.1
		C-277.3,343.3-277.7,343.4-277.2,343.4 M-210.8,362c0,7.1,0,10.1,0,6.4c0-3.6,0-9.5,0-13C-210.7,351.9-210.8,354.9-210.8,362
		 M-28.8,361.7c0,6.5,0,9.2,0,6c0-3.2,0-8.5,0-11.8C-28.7,352.6-28.8,355.2-28.8,361.7 M-75.6,354.1c0,1.3,0,1.9,0.1,1.2
		c0-0.7,0-1.8,0-2.4C-75.6,352.2-75.6,352.8-75.6,354.1 M-211.8,363.8c0,6.2,0,8.7,0,5.6c0-3.1,0-8.2,0-11.3
		C-211.7,355.1-211.8,357.6-211.8,363.8 M-17.1,359.2c0,3.6,0,5,0,3.2c0-1.8,0-4.7,0-6.5C-17.1,354.1-17.1,355.6-17.1,359.2
		 M-68.2,355.7c0.5,0,1.2,0,1.7,0c0.4,0,0-0.1-0.9-0.1C-68.3,355.7-68.7,355.7-68.2,355.7 M-117,356.7c0.5,0,1.2,0,1.7,0
		c0.4,0,0-0.1-0.9-0.1C-117.2,356.7-117.5,356.7-117,356.7 M-166.6,365.9c0,4.4,0,6.3,0,4s0-5.9,0-8.1
		C-166.6,359.7-166.6,361.5-166.6,365.9 M-56.4,361.7c0.1,0.1,0.7,0.1,1.4,0.1l1.2-0.1l-1.4-0.1C-55.9,361.6-56.4,361.6-56.4,361.7
		 M-17.1,367.1c0,0.3,0,0.5,0.1,0.3c0-0.2,0-0.4,0-0.6C-17.1,366.7-17.1,366.8-17.1,367.1 M-17.1,372.4c0,1.4,0,2,0.1,1.3
		c0-0.7,0-1.9,0-2.6C-17.1,370.4-17.1,371-17.1,372.4"/>
	<path id="path31" class="st29" d="M-279,257.4c0,38.8,0,71.2,0.1,72l0.1,1.4h0.8h0.8v5.6v5.6h-0.4c-0.4,0-0.4,0.1-0.4,0.7v0.7h1.7
		h1.7v0.8v0.8l0.6-0.3c0.8-0.4,1.8-0.4,2.7,0.1l0.7,0.4v-0.9c0-0.9,0-0.9,0.5-0.9h0.5l0.1-2c0.1-1.1,0.2-2.1,0.2-2.3
		c0.1-0.2,0-0.1-0.2,0.1c-1.5,2.3-5.2,1.4-5.4-1.3c-0.3-3.2,3.7-4.6,5.4-1.9c0.4,0.7,0.5,0.7,0.7-0.3c0.1-0.8,1.2-5.1,1.4-5.7
		c0.1-0.2-0.1-0.1-0.5,0.2c-2.2,1.5-4.8,0-4.7-2.5c0.2-3.5,4.9-3.9,5.8-0.5l0.2,0.7l0.2-0.6c0.6-1.5,1-2.6,1.9-4.4l1-1.9l-0.5,0.3
		c-1.9,1.2-4.4-0.3-4.4-2.6c0-3.7,5.4-4,5.8-0.3l0.1,0.9l0.7-1.1c0.4-0.6,1.3-1.9,2.1-3c1.4-1.8,1.4-1.9,0.9-1.7
		c-2.2,0.9-4.5-1.2-3.9-3.6c0.9-3.3,5.8-2.7,5.8,0.7l0,1l2.3-2.2c1.2-1.2,2.4-2.3,2.5-2.4c0.2-0.2,0.2-0.2-0.3-0.1
		c-3.1,0.7-4.7-4.1-1.9-5.6c2.5-1.3,5.4,1.5,4.2,3.8c-0.2,0.4-0.2,0.4,1.6-0.8c0.7-0.5,2-1.4,2.8-1.8c1.2-0.7,1.4-0.9,1.1-0.9
		c-0.9-0.1-1.2-0.2-1.8-0.8c-2.6-2.4,0.6-6.6,3.6-4.6c1.3,0.8,1.8,2.8,1,3.9c-0.3,0.4-0.2,0.4,1.3-0.3c0.8-0.4,2.1-0.9,2.8-1.2
		c1.3-0.5,1.7-0.8,1.2-0.8c-0.5,0-1.6-1.2-1.8-2c-0.7-2.7,2.4-4.8,4.7-3.2c1.1,0.8,1.5,2.9,0.7,4l-0.4,0.5l1.2-0.3
		c1.2-0.3,4.4-0.9,5.9-1.1l0.8-0.1l-0.6-0.5c-2.9-2.4,0.3-6.8,3.5-4.7c1.6,1,1.8,3.5,0.3,4.6l-0.4,0.3l1.6-0.1c0.9,0,2.4,0,3.4,0.1
		l1.8,0.1l-0.5-0.5c-1.8-1.8-0.4-5,2.2-5c2.7,0,3.9,3.2,1.9,5.1l-0.7,0.7l1.7,0.3c0.9,0.2,2.3,0.5,3.1,0.7l1.4,0.4l-0.4-0.4
		c-1.7-1.8-0.5-4.7,2-4.9c3.6-0.3,4.5,5,0.9,5.7c-0.4,0.1-0.2,0.2,1.5,0.9c1.1,0.4,2.6,1.1,3.3,1.4l1.3,0.6l-0.3-0.7
		c-1.6-3.5,3.6-6.1,5.3-2.6c0.9,1.9-0.2,3.9-2.3,4.3l-0.7,0.1l0.9,0.6c1.3,0.8,2.8,1.8,4.3,2.9l1.3,1l-0.3-0.7c-1.7-3.2,3-6,5-3.1
		c1.5,2.2-0.5,5.2-3.1,4.6c-0.7-0.1-0.6-0.1,1.1,1.5c1,0.9,2.2,2.2,2.8,2.8l1,1.1l-0.3-0.7c-1.1-3.2,3.5-5.5,5.2-2.7
		c1.8,3-1.8,6.2-4.5,3.9c-0.3-0.3-0.3-0.2,0.1,0.2c6.6,7.5,11.2,19.8,11.2,30.5c0,1.5,0.1,2,0.3,2.5l0.3,0.5l0.3-0.5
		c1-1.4,3.6-1.4,4.7,0.2c1.4,2,0,4.7-2.5,4.7h-0.8v2v2l0.7,0.4c1.8,1.1,1.9,3.9,0.1,5l-0.7,0.4l0,1.3c0,1.1,0.1,1.6,0.6,2.8l0.6,1.5
		v4.2v4.2h0.5c0.4,0,0.5-0.1,0.5-0.5c0-0.3,0.1-0.5,0.3-0.5c0.2,0,0.3-1,0.3-8v-8h1.4h1.4l0.1-17.9c0.1-11.2,0.2-17.9,0.3-17.9
		c0.4-0.1-0.1-2.5-0.7-3.5c-0.4-0.7-0.3-1.1,0.2-1.3c0.3-0.1,0.6-0.4,0.8-1l0.4-0.9h-0.6c-0.3,0-0.6,0-0.6-0.1
		c0-0.2,0.4-0.8,0.7-1.2c0.2-0.2,0.3-0.7,0.4-1.1s0.2-0.9,0.2-1.1c0.1-0.2,0-0.2-0.1-0.1c-0.2,0.1-0.5-0.5-0.5-1.1
		c0-0.4,0.4-0.8,0.7-0.7c0.3,0.1,0.5-0.3,0.3-0.4c-0.3-0.2,0.1-1,0.5-1.3c0.3-0.2,0.4-0.2,0.7,0.3c0.5,0.6,0.5,0.8,0.1,0.9
		c-0.5,0.1-0.4,0.6,0.2,0.8c0.4,0.1,0.5,0.3,0.5,0.6c0,0.5,0.3,1.5,0.5,1.5c0.1,0,0.2,0.1,0.2,0.3s-0.1,0.3-0.1,0.3
		c-0.5,0-0.7,2.3-0.3,3.1c0.2,0.4,0.4,0.9,0.5,1.1c0,0.2,0.3,0.3,0.6,0.4c0.5,0.1,0.7,0.4,0.3,0.4c-0.1,0-0.1,0.1-0.1,0.1
		c0.1,0.1-0.1,0.6-0.3,1.1c-0.5,1.2-0.9,3-0.6,3.1c0.1,0.1,0.2,5.8,0.4,17.8c0.2,19.4,0.1,18,0.9,18h0.5l0.1,2.1
		c0.1,1.2,0.1,4.8,0.1,8v5.9h0.8c0.8,0,0.8,0,0.8,0.5c0,0.4,0.1,0.5,0.5,0.5h0.5v-12.8v-12.8h1.8h1.8v-0.8v-0.8h3.3h3.3v2.4v2.4h1.1
		h1.1v6.8c0,5.4,0,7,0.2,7.6c0.1,0.5,0.3,1.1,0.4,1.5c0.2,0.6,0.3,0.7,0.6,0.7h0.4l0-5.6c0-4.9,0-5.8-0.3-7.2
		c-0.4-1.7-0.7-5-0.6-5.3c0-0.1,0.3,0.3,0.5,0.9l0.4,1.2l0-4l0-4h0.5h0.5v-17.5v-17.5l2.1-6.3l2.1-6.3l2.7-4.5
		c2.4-3.9,2.8-4.4,2.9-4.2c0.2,0.3,4.8,7.6,5,8c0.1,0.1,1.1,3.3,2.4,7.2l2.2,6.9v16.5c0,10.9,0.1,16.5,0.2,16.5
		c0.1,0,0.2,2.2,0.2,6.1l0,6.1l0.8,1.7l0.8,1.7v2.8c0,2.4,0,2.8,0.2,2.8c0.2,0,0.3-0.6,0.3-4.5l0-4.5l1.6,0l1.6,0l0.1-2.4
		c0.1-1.3,0.2-2.7,0.2-3.1l0.1-0.8l0.2,0.8c0.1,0.5,0.2-5.1,0.2-21l0-21.8h2h2v2v2h4.8h4.8v-2v-2h1.9h1.9l0,24.5
		c0,13.5,0.1,21.8,0.1,18.4l0-6.1h3.6h3.6v3.4v3.4l1.4,0.8c1.4,0.8,1.6,0.8,1.7,0.3c0-0.2,0.1-0.6,0.3-0.9l0.3-0.7l-0.1,1.3
		l-0.1,1.3l2.1,1.2l2.1,1.2v4.7c0,6.5,0.1,6.5,2,0.2c1-3.2,1.6-5.1,2.2-6.3l0.8-1.7l-0.1,1.6l-0.1,1.6h0.5h0.5v-2.3v-2.3h3.3h3.3
		v1.9v1.9h1.6h1.6v9.7v9.7h1.7h1.7v-6.7v-6.7h1h1l1-7c0.7-5.2,1-6.9,1.1-6.5c0.1,0.6,0.2,1.4,1.4,9.1c0.3,2.2,0.6,4.1,0.7,4.2
		c0,0.1,0.5,0.2,1.3,0.2h1.3v6.7v6.7h1.7c1.7,0,1.8,0,1.8-0.4c0-0.2,0.2-1.9,0.3-3.7c0.2-1.8,0.4-4.5,0.5-6c0.1-1.5,0.4-4.5,0.6-6.7
		c0.2-2.2,0.4-4.8,0.5-5.8l0.2-1.8l1.9-2.9c1.6-2.5,1.9-2.9,2.2-2.8c0.2,0,1,0.1,1.8,0.1l1.5,0l2.1,2.8l2.1,2.8l0.1,2.2
		c0.2,5.1,0.6,12.6,0.8,16.2c0.1,2.1,0.2,4.3,0.3,5l0.1,1.1l2.2,0l2.2,0l1-0.6l1-0.6l0-11.9l0-11.9h4.7h4.7l0,8.6l0,8.6l1-0.7l1-0.7
		l0-6.5v-6.5h3.7h3.7l0,3.4l0,3.4l0.5-0.5c0.5-0.4,0.5-0.5,0.5-1.6c0-0.6,0.1-1.2,0.1-1.1c0.1,0,0.5,0.1,1,0.2
		c0.5,0.1,0.9,0.2,1,0.2c0,0,0-2.6,0.1-5.8c0-5.7,0-5.8,0.6-9c0.3-1.8,0.5-3.3,0.4-3.3c-0.2-0.1-0.2-0.7,0.1-0.7
		c0.1-0.1,0.3-0.7,0.4-1.6c0.3-2.1,0.5-2,0.8,0.5c0.1,0.6,0.2,1,0.4,1.1c0.2,0.1,0.2,0.2,0.1,0.5c-0.1,0.6,1,4.2,1.3,4.2
		c0.1,0,0.4-0.6,0.7-1.5c1.4-4.9,2.5-8.7,2.5-8.9c0-0.7,0.3,0.1,1,2.2c2.1,6.9,2.5,8.2,2.8,8.3c0.2,0,0.3-0.1,0.3-0.4
		c0-0.3,0.1-1.1,0.3-2c0.2-0.9,0.2-1.5,0.2-1.6c-0.2-0.1-0.2-0.5,0.1-0.5c0.2,0,0.3-0.4,0.4-1.5c0.4-2.6,0.5-2.7,0.8-0.2
		c0.2,1.2,0.3,1.7,0.4,1.7c0.3,0,0.3,0.4,0.1,0.5c-0.1,0,0,1.2,0.3,3.1c0.4,2.3,0.5,3.5,0.5,5.3l0,2.3l0.3-0.5l0.3-0.5l0.9,1.6
		c0.5,0.9,1,1.7,1,1.8c0.1,0.2,0.7,0.3,3.9,0.3h3.8v-0.4v-0.4h4h4v0.4c0,0.4,0.1,0.4,0.8,0.4h0.8V350v-2.1h6.5h6.5v2.1
		c0,1.7,0,2.1,0.3,2.1c0.2,0,0.3-0.2,0.3-0.5c0-0.5,0.4-1,0.9-1c0.4,0,0.6,0.3,0.6,0.8c0,0.3,0.1,0.4,0.3,0.3
		c0.1-0.1,0.5-0.1,0.7-0.1c0.5,0,0.4,0.1,0.1-1.5c-0.2-1,0.7-1.5,1.4-0.8c0.2,0.2,0.3,0.5,0.2,0.8c-0.4,1.5-0.4,1.5,0.4,1.5
		c0.5,0,0.7-0.1,0.7-0.3c0-0.4,0.3-0.7,0.8-0.7c0.5,0,0.8,0.3,0.8,1.1v0.7h3.2h3.2v-2.7v-2.7h4.3H63v2.7v2.7h1.2h1.2v-1.3v-1.3h5.3
		h5.3v1.3v1.3h2.4h2.4v-1.2c0-0.7,0.1-1.2,0.2-1.2c0.1,0,0.2-0.9,0.2-2.4c0-1.4,0.1-3,0.3-3.9c0.7-4,0.8-5.2,0.7-5.2
		c-0.2-0.1-0.2-0.5,0-0.5c0.2,0,0.4-0.9,0.6-2.2c0.2-1.3,0.4-1.2,0.6,0.5c0.1,0.9,0.3,1.5,0.5,1.7c0.2,0.2,0.2,0.3,0.1,0.3
		c-0.1,0-0.1,0.6,0.2,1.7l0.4,1.7H85h0.6l0.6-2c0.3-1.1,0.7-2.4,0.8-2.8c0.1-0.4,0.3-1.2,0.5-1.8c0.3-1.1,0.7-2.6,0.9-3
		c0.1-0.2,0.3,0.5,1.1,3.5c0.1,0.5,0.5,1.7,0.7,2.7c0.3,1,0.7,2.4,0.9,3.1c0.5,1.9,0.9,1.9,1.3-0.1c0.1-0.7,0.3-1.6,0.4-1.9
		c0.1-0.4,0.1-0.6,0-0.6c-0.2-0.1-0.2-0.7,0.1-0.7c0.2,0,0.6-1.8,0.6-2.8c0-1.2,0.4-0.5,0.6,1c0.1,1,0.3,1.6,0.5,1.7
		c0.3,0.2,0.3,0.7,0.1,0.8c-0.1,0,0.1,1.3,0.3,3c0.5,2.8,0.5,3.1,0.5,9.2l0,6.3l0.7,0.6l0.7,0.6v-4.7v-4.7l0.5,0.3
		c0.3,0.2,2.3,1.3,4.5,2.6l3.9,2.3l0,3.2l0,3.2h1h1l0,3.3l0,3.3l0.8,0.5l0.8,0.5l0-6.9l0-6.9h1.1h1.1v-2.4v-2.4h3.3h3.3v0.8
		c0,0.9,0,0.9,0.8,0.4c0.4-0.2,1-0.4,1.4-0.5l0.8-0.2v-81.6v-81.6H-79h-200L-279,257.4 M-223.8,296.3c-1.1,0.1-2,0.2-2.2,0.2
		c-0.2,0,0.2,0.7,1.4,2.4c0.9,1.3,1.6,2.4,1.6,2.4c0,0-0.8-1-1.6-2.2c-1-1.4-1.6-2.2-1.7-2.1c-0.1,0.1-0.1,0-0.1-0.2
		c0-0.4-0.1-0.4-3.8,0.3l-1.1,0.2l2.1,2.1c1.2,1.2,2.2,2.1,2.2,2.1c0,0,0.2-1,0.3-2l0.2-2l-0.1,1.6c0,0.9-0.1,1.9-0.2,2.2l-0.1,0.6
		l1.1-0.1c2.7-0.3,2.7-0.3,3-0.8l0.2-0.5l-0.1,0.5l-0.1,0.5l1.6,0c1.4,0,3,0.1,5.6,0.4c1,0.1,1,0.1,1-0.3l-0.1-0.4l0.2,0.4
		c0.1,0.2,0.2,0.3,0.3,0.3c0.4-0.5,3.3-4.9,3.2-4.9c-0.1,0-1.1-0.2-2.2-0.3c-1.1-0.2-2.3-0.3-2.7-0.3c-0.3,0-1.5-0.1-2.7-0.2
		c-1.1-0.1-2.1-0.1-2.2-0.1c-0.1,0.1,2.1,4.9,2.2,5.1c0,0,0.2-0.2,0.3-0.4c0.3-0.6,0.3-0.5,0.1,0.3c-0.3,0.9-0.3,1-2.3-3.5
		c-0.4-0.9-0.7-1.5-0.8-1.3c0,0.1-0.2,0.7-0.4,1.2c-0.2,0.5-0.3,0.8-0.3,0.7c0-0.1,0.1-0.5,0.2-0.9c0.3-0.9,0.3-1.2,0-1.1
		C-221.8,296.2-222.8,296.2-223.8,296.3 M-216.9,298.4c-0.6,1.4-1.1,2.4-0.8,1.7c0.3-0.8,1.3-3.4,1.4-3.3
		C-216.3,296.8-216.6,297.6-216.9,298.4 M-215.3,298.9c0.4,1.2,0.6,2.3,0.6,2.3c0,0-0.1-0.1-0.2-0.2c0-0.2-0.4-1.2-0.7-2.2
		c-0.3-1.1-0.6-2-0.6-2.1C-216.2,296.3-216,296.9-215.3,298.9 M-210.7,297.5c0,0.1,0,0.2-0.1,0.1s-0.8,1-1.7,2.2
		c-0.9,1.3-1.6,2.4-1.5,2.4c0.3,0.3,3.9,0.9,4.1,0.6c0.5-0.4,3.6-4.4,3.5-4.4c-0.1-0.1-3-0.9-3.7-1
		C-210.5,297.3-210.7,297.3-210.7,297.5 M-233.2,297.8c-5.8,1.7-10,3.6-14,6.3c-1.6,1.1-1.7,0.8,0.5,2.7l1.8,1.5l-0.1-2.4l-0.1-2.4
		l0.2,2.4c0.1,1.3,0.2,2.4,0.2,2.5c0.1,0.1,3.4-1.9,3.4-2c0-0.1-0.9-0.8-1.9-1.7c-1-0.9-1.9-1.6-1.8-1.6c0,0,0.5,0.3,0.9,0.7
		c1.1,0.9,2.7,2.2,2.9,2.3c0.1,0.1,0.2-0.4,0.1-1.4c0-0.8,0-1.1,0-0.5c0,0.5,0.1,1.2,0.1,1.5l0.1,0.5l1.5-0.7
		c0.8-0.4,1.7-0.8,1.9-0.8c0.4-0.1,0.1-0.5-2.5-2.6l-1.2-1l-0.1,0.7c-0.1,0.7-0.1,0.7-0.1-0.2c0-1.1-0.3-1.2,2.4,1.1
		c2.1,1.8,2,1.8,2.2-0.1c0.1-0.8,0.2-1.2,0.2-0.8c0,0.4,0,1.1-0.1,1.6c-0.2,1.1-0.2,1.1,0.5,0.8c0.3-0.1,1.3-0.4,2.1-0.7
		c0.9-0.3,1.6-0.5,1.7-0.5c0,0-0.8-0.9-1.8-1.9c-2-1.9-2.2-2-2.2-0.7c0,0.4-0.1,0.6-0.1,0.4c0-0.1,0-0.6,0-1.1l0.1-0.9l2.1,2.1
		l2.1,2.1l0.1-1.2l0.1-1.2l0,1.1l0,1.1l1.8-0.4c1-0.2,2.1-0.4,2.4-0.4l0.6,0l-2.2-2.3l-2.2-2.3l-0.1,1.1l-0.1,1.1l0-1.2
		C-231.7,297.3-231.6,297.3-233.2,297.8 M-210.2,300.9c0,0.3-0.1-0.1-0.2-0.8c-0.1-0.7-0.2-1.5-0.2-1.8s0.1,0.1,0.2,0.8
		C-210.3,299.8-210.2,300.6-210.2,300.9 M-208,300.8l-1.9,2.4l2,0.7c1.1,0.4,2.2,0.8,2.4,0.8c0.3,0.1,0.3,0.1,0.2-0.6
		c-0.3-2.4-0.3-3.1,0.1-0.9c0.1,0.9,0.2,1.2,0.4,1.1c0.5-0.3,4.4-3.4,4.4-3.6c0-0.2-5.3-2.3-5.7-2.3
		C-206.1,298.4-206.9,299.5-208,300.8 M-205.5,301.3c0,0.2-0.1-0.1-0.2-0.7c-0.1-0.6-0.2-1.3-0.2-1.5c0-0.2,0.1,0.1,0.2,0.7
		C-205.6,300.4-205.5,301.1-205.5,301.3 M-222.1,299.5c-0.1,0.2-0.1,0.4-0.2,0.4c0,0,0-0.3,0-0.5c0.1-0.2,0.1-0.4,0.2-0.4
		C-222,299-222,299.3-222.1,299.5 M-201,301.6c-3.1,2.4-4,3.1-4,3.1c0,0,0.7,0.4,1.6,0.8c0.9,0.4,2.1,1,2.8,1.4l1.2,0.7l0.1-0.6
		l0.1-0.6l0,0.6c0,0.5,0.1,0.7,0.8,1.2c0.4,0.3,1.3,0.9,2,1.4l1.2,0.9l2.1-1.6c3.1-2.3,2.9-2,1.8-2.8c-1.2-0.9-3.4-2.4-3.5-2.3
		c0,0-0.1,1.4-0.2,3.1l-0.2,3.1l0.1-3.1l0.1-3.1l-2.1,2l-2.1,2l2.1-2.1l2.1-2.1l-0.5-0.3c-0.6-0.4-1.7-1.1-3.2-1.8l-1.1-0.6
		l-0.1,0.6l-0.1,0.6l-0.1-0.6l-0.1-0.6L-201,301.6 M-224.9,302.1c-9.7,0.8-19.4,5.4-26.5,12.5c-2.9,2.9-3.7,4.1-2.8,4.1
		c1.6,0,4.4,2.7,5.8,5.4l0.8,1.7v17.6v17.6h0.5h0.5v-6.8v-6.8h1.2h1.2v-0.6v-0.6h1.6h1.6V342v-4.3l2.8,0l2.8,0l0,4.2l0,4.2h2h2
		l0,1.4l0,1.4l1.1-1.8c1.7-2.8,1.4-2.8,2.7-0.4l1.2,2.1l0,9.8l0,9.8l0-9.6l0-9.6h1.7h1.7l0.3-1.5l0.3-1.5l-0.7-0.6
		c-2.4-2.2-0.8-6.1,2.4-5.9c3.5,0.2,4.4,5.1,1.2,6.5c-0.3,0.1-0.5,0.3-0.5,0.5c0,0.6,0.5,2.4,0.6,2.5c0.1,0,0.2,0.5,0.2,1
		c0,0.8,0.4,3.3,0.6,3.9c0,0.1,0.5,0.1,1.5-0.2c0.8-0.2,2.2-0.6,3.1-0.8c0.9-0.2,1.8-0.5,1.9-0.5c0.2-0.1,0.2,2.2,0.2,11.1v11.2h0.4
		h0.4V362v-12.9h0.8c0.7,0,0.9-0.1,1.7-0.9c1.9-1.7,4.6-2.5,6.7-2c0.4,0.1,0.6,0.1,0.6,0c0-0.1,1.9-0.2,4.7-0.2h4.7v3.3v3.3h1.1
		c0.6,0,1.1,0,1.1,0.1c0,0.1,1.8,6.8,2.3,8.4c0.1,0.5,0.5,2,0.9,3.3c1,3.7,1,3.3,1-5.7v-7.6l2.9-5.8c1.6-3.2,2.9-5.8,3-5.9
		c0.2-0.1-0.1-2.5-0.7-5.1C-185,314.2-204,300.4-224.9,302.1 M-199.4,305.8c0,0.3-0.1-0.1-0.2-0.9c-0.1-0.8-0.2-1.8-0.2-2.1
		c0-0.3,0.1,0.1,0.2,0.9C-199.5,304.5-199.4,305.5-199.4,305.8 M-250.5,306.5c-1,0.7-2.6,2.2-3.6,3.2l-1.9,1.8l0.5,0.2
		c0.3,0.1,0.4,0.2,0.2,0.2c-0.2,0-0.3,0.1-0.3,0.1c0,0.1,2,3.9,2.1,4.1c0,0,1-0.9,2.2-2c1.2-1.1,2.5-2.3,2.9-2.7l0.7-0.6l-1.4-0.8
		c-0.8-0.5-1.7-1-2-1.2l-0.6-0.4l0.1,0.5c0.1,0.5,0.1,0.5-0.2-0.1c-0.3-0.9-0.4-0.9,1.4,0.2c0.9,0.5,1.8,1,2.1,1.2l0.5,0.2l-0.1-1.1
		l-0.1-1.1l0.2,1c0.2,1.3,0.2,1.3,1.8,0.2c1.6-1.1,1.5-0.9,0.4-1.9c-0.5-0.4-1.3-1.1-1.9-1.6l-0.9-0.8l0.1,0.5
		c0.1,0.3,0.1,0.9,0.2,1.4c0.1,0.5,0,0.3-0.2-0.6l-0.3-1.5L-250.5,306.5 M-192.7,309l-2.3,1.7l1,0.8c0.5,0.5,1.9,1.8,3.1,3
		c1.6,1.6,2.2,2.1,2.3,1.9c0.1-0.2,0.1-0.2,0.1,0c0,0.1,0.1,0.2,0.3,0.1c0.2,0,0.1,0-0.1,0.1l-0.4,0.2l0.9,1.1c0.8,1,3,4.3,3.7,5.6
		l0.3,0.6l2-2.3c2-2.2,2-2.3,1.6-2.3c-0.4-0.1-0.3-0.1,0.2-0.1l0.6,0l-0.6-1c-0.7-1.1-2.7-3.9-2.8-3.9c0,0-0.7,1.2-1.4,2.7l-1.3,2.7
		l1-0.1c0.5-0.1,1.6-0.1,2.4-0.2c0.9-0.1,0.5,0-1,0.2c-1.3,0.1-2.4,0.2-2.5,0.2c0,0,0.5-1.2,1.2-2.6c0.7-1.4,1.3-2.6,1.3-2.6
		c0-0.1-0.5,0-2.6,0.9c-1,0.4-1.9,0.7-2,0.7c0,0,1-0.5,2.4-1l2.5-1l-0.9-1c-2.1-2.4-5.9-6.1-6.3-6.1c-0.1,0-0.2,0.3-0.3,0.7
		l-0.2,0.7l0.1-0.7C-190.3,307.1-190.1,307-192.7,309 M-190.7,309.9c-0.1,0.5-0.2,0.9-0.3,0.9c0,0,0-0.5,0.1-1
		c0.1-0.5,0.2-0.9,0.3-0.9C-190.5,308.9-190.6,309.3-190.7,309.9 M-250.8,312.3c0.2,0.8,0.2,0.8-0.1,0.8c-0.3,0-0.3,0-0.1-0.1
		c0.2-0.1,0.1-0.4-0.2-1.7c-0.2-0.8-0.4-1.6-0.4-1.6C-251.6,309.5-251.2,310.8-250.8,312.3 M-186.5,310.6c0,0.3-0.9,2.7-1,2.6
		c0,0,0.1-0.6,0.4-1.3c0.6-1.5,0.7-1.5-2.1,0.2c-1.3,0.8-2.5,1.4-2.5,1.4c0,0,0-0.1,0.1-0.2c0.1,0,0.2-0.2,0.1-0.4
		c0-0.2,0-0.7,0.2-1.2c0.3-1,0.3-0.6,0.1,0.5c-0.3,1.1-0.2,1.1,2.2-0.4C-186.7,310.4-186.5,310.3-186.5,310.6 M-257.5,313.2
		c-2.1,2.5-4.2,5.4-4,5.6c0.1,0.1,0.4,0.2,0.8,0.2l0.7,0.1l-0.8-0.1l-0.8-0.1l0.8,1l0.8,1l0.8-0.7c0.9-0.8,0.9-0.8,0-1
		c-0.6-0.1-0.6-0.1,0.2-0.1c0.9,0.1,2.1-0.3,2.1-0.6c0-0.1-0.4-0.9-1-1.8c-1.2-2-1.2-1.9,0-1.6l0.9,0.2l-0.8-0.1l-0.8-0.1l0.9,1.7
		c1,1.8,1,1.8,2,1.5c0.5-0.1,2.1-2.2,1.8-2.3c-0.1,0-0.4-0.1-0.5-0.1c-0.3-0.1-0.3-0.1,0-0.1c0.3,0,0.3-0.1-0.6-1.9
		c-0.6-1.1-1-2-0.9-2c0-0.1-0.1-0.1-0.2-0.2C-256.2,311.8-256.7,312.3-257.5,313.2 M-253,312.4c0.9,0.2,1.7,0.5,1.6,0.5
		c-0.1,0.1-3.4-0.8-3.6-0.9C-255.1,311.9-254.7,312-253,312.4 M-160.7,313.2c0,0.6-0.2,1-0.3,1.1c-0.2,0.2-0.2,0.2,0,0.4
		c0.4,0.2,0.9-1.7,0.6-2.2C-160.6,312.3-160.6,312.4-160.7,313.2 M-187.9,314.9c-0.2,0.7-0.5,1.2-0.5,1.2c0,0,0.1-0.6,0.4-1.3
		c0.2-0.7,0.5-1.2,0.5-1.2C-187.5,313.6-187.7,314.2-187.9,314.9 M-255.4,315.7c0.5,0.1,0.7,0.2,0.5,0.2c-0.2,0-0.7-0.1-1.2-0.2
		C-257.1,315.4-256.5,315.4-255.4,315.7 M-173.7,316.6c2.8,1.4,1.9,5.6-1.3,5.6c-1.5,0-2.4-0.7-2.8-2.1
		C-178.6,317.7-175.9,315.4-173.7,316.6 M-262.5,320.3c-3,5.2-4.7,9.9-5.7,15.5c-0.3,1.5-0.8,5.6-0.7,5.7c0.1,0.1,4.9-2.5,4.9-2.7
		c0-0.1-0.6-0.4-1.3-0.7c-0.7-0.3-1.2-0.6-1.2-0.7c0,0,0.7,0.2,1.4,0.6c1.6,0.8,1.5,0.8,1.5,0.2c0-0.3,0.2-1.4,0.4-2.5
		c0.4-2,0.6-5.5,0.3-5.5c-0.1,0-0.6,0.2-1.2,0.3c-0.6,0.2-1.1,0.3-1.1,0.3c0,0,0.5-0.2,1.2-0.4c1.7-0.5,1.7-0.7-0.1-2.3
		c-1.4-1.2-1.5-1.6-0.3-1.3c0.3,0.1,0.2,0.1-0.1,0.1c-0.7,0-0.6,0.2,0.6,1.2c1.3,1.1,1.3,1.1,1.3-0.3v-1.2l-0.7,0.1l-0.7,0.1
		l0.7-0.2c0.6-0.2,0.7-0.2,0.9-1.1l0.3-1l-0.8-0.7l-0.8-0.7l1.1,0l1.1,0l0.7-1c0.4-0.6,0.6-1.1,0.6-1.2c-0.1-0.2-0.6-0.8-1.4-1.8
		C-261.7,319-262.1,319.6-262.5,320.3 M-181.4,321.8c-1.5,1.6-1.9,2.2-1.7,2.3c0.2,0.1,0.2,0.1-0.1,0.1c-0.4,0-0.4,0.1,0.4,1.9
		c1.2,2.5,2.8,7.1,2.8,7.9c0,0.5,0.4,0.3,2.7-1.4c1.3-1,2.4-1.7,2.4-1.7c0,0-1,0.8-2.3,1.8c-1.9,1.4-2.3,1.7-2,1.8
		c0.2,0,1,0.1,1.7,0.2c1.2,0.1,1.2,0.1-0.6,0.1c-1.8-0.1-1.9-0.1-1.8,0.2c0.1,0.3,0.4,1.8,0.7,3.9l0.1,0.7l2.1,0
		c1.8,0,2.2,0,2.5,0.2c0.2,0.2,0.3,0.3,0.2,0.3c-0.1,0-0.2,0.1-0.1,0.3c0.1,0.3,0.5,0.4,1,0.2c0.2-0.1,0.2-0.1-0.2-0.3
		c-0.5-0.2-0.2-0.2,0.6,0c0.3,0.1,0.3,0,0.3-0.3c0-0.4-0.7-4.7-0.7-4.8c-0.1-0.1-4.9,3-4.9,3.1c0,0.1,0.3,0.2,0.7,0.3
		c0.4,0.1,0.6,0.2,0.5,0.3c-0.1,0-0.5-0.1-1-0.3l-0.8-0.3l1-0.6c0.6-0.4,1.7-1.1,2.5-1.6c1.8-1.1,1.8-1.1,0.6-1.2
		c-0.9-0.1-0.8-0.1,0.2,0c0.9,0,1.1,0,1.1-0.3c0-0.7-1.8-6.8-2-7.1c0,0-1.1,0.7-2.4,1.6c-1.3,0.9-2.4,1.6-2.4,1.6c0,0,1-0.8,2.4-1.7
		c2.8-1.9,2.6-1.5,1.4-4.4l-0.9-1.9l-2,2.2l-2,2.2l2.4,0.1l2.4,0.1l-2.6,0l-2.6,0l0.7-0.8c0.4-0.4,1.3-1.4,2-2.2
		c1.5-1.6,1.5-1.6,0-1.2c-0.7,0.2-1.4,0.3-1.5,0.3c-0.1,0,0.5-0.2,1.5-0.5l1.7-0.4l-0.9-1.5c-0.5-0.8-0.9-1.5-1-1.5
		S-180.3,320.6-181.4,321.8 M-262.8,323.8c0.7,0.6,0.7,0.6,1,0.1c0.3-0.6,0.3-0.6-0.7-0.6l-0.9,0L-262.8,323.8 M-181.6,323.9
		c-0.4,0.1-0.8,0.2-1,0.2c-0.2,0,0-0.1,0.4-0.2C-181.2,323.6-180.7,323.6-181.6,323.9 M-170,325c3.1,1.3,2.2,5.7-1.1,5.7
		c-3.2,0-3.9-4.5-1-5.7C-171.4,324.7-170.8,324.7-170,325 M-265.8,331.2c-0.3,0.1-0.7,0.2-0.8,0.2c-0.1,0,0-0.1,0.3-0.2
		c0.3-0.1,0.7-0.2,0.8-0.2C-265.4,331-265.5,331.1-265.8,331.2 M-265.1,333c2.1,1.7,2.1,1.5-0.3,2.7c-2.4,1.3-2.3,1.2-1.7,1.4
		c0.3,0.1,0.4,0.2,0.4,0.3c-0.1,0.1-1.1-0.4-1.1-0.5c0,0,1-0.6,2.2-1.2c1.2-0.6,2.2-1.1,2.2-1.2s-0.8-0.7-1.8-1.5
		c-1-0.8-1.8-1.5-1.8-1.5C-267.2,331.4-266.9,331.6-265.1,333 M-167.3,335.4c1,0.5,1.8,2,1.6,3.2c-0.5,2.7-4.4,3.3-5.6,0.9
		C-172.6,336.8-169.9,334.1-167.3,335.4 M-263.1,337.2c-0.2,1.5-0.6,4.9-0.6,5.8c0,0.2,0.1,0.3,0.5,0.3h0.5v-3.9
		c0-2.2,0-3.9-0.1-3.9C-262.8,335.4-262.9,336.2-263.1,337.2 M-264.1,339.3c-0.1,0.1-1.2,0.7-2.5,1.4l-2.4,1.2l0,0.7l0,0.7l2.5,0
		l2.5,0l0.1-0.9C-263.6,339.3-263.6,338.8-264.1,339.3 M-176,339.3c0.2,0.1,0.2,0.2,0,0.2c-0.1,0-0.4-0.1-0.5-0.2
		c-0.2-0.1-0.2-0.2,0-0.2C-176.4,339.1-176.1,339.2-176,339.3 M-173.2,340.8c-0.7,0.2-0.7,0.2,0.2,2.1l0.6,1.3l0-1.1
		c0-0.6-0.1-1.4-0.1-1.8l-0.1-0.7L-173.2,340.8 M-267.4,341.9c0.4,0.1,0.5,0.1,0.1,0.1c-0.2,0-0.6-0.1-0.9-0.1
		c-0.4-0.1-0.5-0.1-0.1-0.1C-268.1,341.8-267.7,341.9-267.4,341.9 M-265.5,342.3c0.8,0.2,0.8,0.2,0.6,0.5c-0.3,0.4-0.7,0.4-0.4,0.1
		c0.2-0.3,0.2-0.3-0.9-0.6c-0.4-0.1-0.5-0.2-0.4-0.2C-266.5,342.1-266,342.2-265.5,342.3 M-221.2,347.4c-0.2,1-0.1,1.9,0.1,1.9
		c0.3,0,0.3-0.4,0.1-1.7l-0.1-0.8L-221.2,347.4 M-271.5,349.9c-0.9,0.5-1.7,0.5-2.6,0.1l-0.6-0.3v4.6v4.6h0.4c0.3,0,0.4-0.1,0.3-0.3
		c-0.3-0.9-0.3-1.2-0.1-1.8c0.3-1.2,1.4-2.2,2.5-2.2h0.5v-2.3c0-1.7,0.1-2.3,0.2-2.4c0.1,0,0.2-0.1,0.1-0.1
		C-270.7,349.6-271.1,349.7-271.5,349.9 M11.2,366.2v8.8h3.6h3.6v-8.8v-8.8h-3.6h-3.6V366.2 M26.3,366.2v8.8h0.8h0.8v-8.8v-8.8h-0.8
		h-0.8V366.2 M40.8,366.2v8.8h1.1H43v-3.8v-3.8h1.5H46v-2.3v-2.3h3.7h3.7v6.2v6.2h0.5h0.5v-8.8v-8.8h-6.8h-6.8V366.2 M63,359.9v2.5
		h0.9h0.9v6.3c0,5.4,0,6.3,0.3,6.3c0.2,0,0.3-1.1,0.3-8.8v-8.8h-1.2H63V359.9 M75.8,361.9v4.5h1.4h1.4v4.3v4.3h1h1v-8.8v-8.8h-2.4
		h-2.4V361.9 M95.3,358.5c0,0.1,0.3,0.5,0.7,0.9c0.6,0.6,0.7,0.6,0.7,0.3c0-0.2-0.3-0.6-0.7-0.9C95.6,358.4,95.3,358.3,95.3,358.5
		 M-9.1,360.3c-0.4,0.3-0.5,0.6-0.5,0.9v0.5l0.6-0.6C-8.2,360.3-8.3,359.5-9.1,360.3 M95.3,367.4v7.5H96h0.7v-6.9v-6.9l-0.6-0.6
		c-0.3-0.3-0.6-0.6-0.7-0.6C95.4,359.9,95.3,363.3,95.3,367.4 M-78.3,363.2c-0.3,1.1-0.6,2.2-0.6,2.3c-0.1,0.2,0,0.3,0.6,0.3h0.7
		v-2.3c0-1.3,0-2.3-0.1-2.3C-77.8,361.1-78,362-78.3,363.2 M-9.1,362.3l-0.5,0.5v6.1v6.1h0.6h0.6v-6.6c0-3.6,0-6.6,0-6.6
		C-8.6,361.8-8.8,362-9.1,362.3 M-17.8,367.1l-0.6,0.5l0.6,0c0.6,0,0.6,0,0.6-0.5C-17.2,366.5-17.1,366.5-17.8,367.1 M-185.5,367.6
		c0,0.3,0,0.5,0.1,0.3c0-0.2,0-0.4,0-0.6C-185.4,367.2-185.5,367.3-185.5,367.6 M-18.3,367.9l-0.8,0.1l0,1.3l0,1.3l0.6-0.5
		c0.5-0.4,1.4-1.9,1.4-2.3C-17.2,367.8-17.2,367.8-18.3,367.9 M107.7,369.4c0,0.7,0.1,1.3,0.2,1.3c0.1,0.1,0.2-0.4,0.2-1.2
		c0-0.8-0.1-1.3-0.2-1.3C107.7,368.1,107.7,368.6,107.7,369.4 M108.5,370c0,1.4,0.1,1.6,0.7,1.6c0.4,0,0.1-2.5-0.3-2.8l-0.4-0.2V370
		 M-18.3,371l-0.9,0.9v1.6v1.6h1h1v-2.4c0-1.3,0-2.4-0.1-2.4S-17.8,370.5-18.3,371 M107.7,373.4c0,0.9,0.1,1.6,0.2,1.6
		c0.1,0,0.2-0.6,0.2-1.6c0-0.9-0.1-1.6-0.2-1.6C107.7,371.8,107.7,372.4,107.7,373.4 M108.5,373.7c0,1.2,0,1.3,0.4,1.3
		c0.6,0,0.6-1.8,0-2.2l-0.4-0.3V373.7"/>
</g>
</svg>
