<svg xmlns="http://www.w3.org/2000/svg" viewBox="-1596.4 679.1 455.1 374.7"><path d="M-1181 1002.9V731.5c-1-5.2 1-10 5.2-13.1l34.1-38.3v-1h-121.8l-91.9 229.9 -104.5-229.9h-124.4v1l34.6 45.7c5.8 7.3 8.9 17.3 7.9 26.8v196.8c1.6 12.1-0.5 24.1-5.8 34.6l-48.8 65.1v1h130.2v-1L-1515 984c-5.2-11-7.3-23.1-5.8-34.6V770.9c1.6 4.7 2.6 5.2 5.2 11.5l121.8 271.4h1.6l117.6-295c-1.6 10.5-1.6 22.6-1.6 31.5v212.6c1 4.7-1 9.4-4.7 12.6l-35.2 33.1v1h174.8v-0.5l-34.6-33.1C-1180 1012.8-1182.1 1008.1-1181 1002.9z"/></svg>
