<svg xmlns="http://www.w3.org/2000/svg" viewBox="0 0 547.387 595.773" height="595.773" width="547.387">
  <g fill-rule="evenodd">
    <path d="M0 595.773h547.392V-.003H0z" fill="#fff"/>
    <path d="M144.192 273.885v-42.432h11.136l10.368 14.4 9.408-14.4h11.616v42.432h-8.256v-30.912l-12.768 18.144-13.056-18.144v30.912h-8.448m329.567 264.769l5.089.671c5.376.768 8.544 4.512 8.544 9.217 0 6.145-5.087 10.463-12.384 10.463-6.336 0-10.56-1.632-14.59-5.663l5.949-5.28c2.496 2.592 5.28 4.031 8.257 4.031 2.401 0 4.32-1.056 4.32-2.592 0-1.344-1.248-2.496-3.84-2.976l-5.28-1.056c-4.704-.864-7.488-4.415-7.488-8.64 0-6.142 4.801-9.982 12.576-9.982 4.32 0 7.968.67 12.192 4.512l-5.185 5.47c-2.111-2.496-4.415-3.264-7.104-3.264-2.398 0-4.031 1.346-4.031 2.784 0 1.056.576 2.015 2.975 2.305m-34.655-11.329c1.25-.671 2.784-.768 4.224-.768 6.624 0 11.616 5.087 11.616 11.232v20.066h-8.064V540.38c0-3.36-1.632-6.144-4.992-6.144-3.84 0-6.432 2.305-6.432 5.376v18.242h-8.064v-30.53h8.353v2.306c1.535-1.346 2.014-1.827 3.359-2.306m-28.992-7.776c0-2.495 2.016-4.702 4.608-4.702 2.592 0 4.704 2.207 4.704 4.797 0 2.498-2.112 4.61-4.704 4.61-2.592 0-4.608-2.112-4.608-4.705m.672 38.306V527.23h8.064v30.625h-8.064m-21.216-23.522c-3.552 0-5.28 2.592-5.28 5.856v17.666h-8.352V540.38c0-4.127-1.63-6.048-4.32-6.048-3.263 0-5.28 2.784-5.28 5.856v17.666h-8.064V527.42h8.064v2.305c2.496-2.305 4.224-3.168 6.912-3.168 3.937 0 5.184.576 8.256 3.84 3.264-3.264 5.57-3.936 9.024-3.936 6.528 0 11.424 6.048 11.424 12.386v19.008h-8.16V540.38c0-4.127-1.632-6.048-4.224-6.048m-68.448-11.52c-6.336 0-9.12 4.705-9.12 14.112 0 8.832 2.975 14.017 9.12 14.017 6.144 0 9.023-4.705 9.023-14.017 0-9.121-2.879-14.112-9.023-14.112m-.095 36.192c-11.905 0-17.952-7.68-17.952-21.984 0-14.976 6.239-22.273 17.854-22.273 12.289 0 18.048 7.873 18.048 22.273 0 14.209-5.95 21.984-17.95 21.984m-52.801-16.417h13.152v-17.663l-13.152 17.663m27.168 8.066h-5.28v7.2h-8.736v-7.2h-22.848v-7.777l20.545-27.36h11.039v27.07h5.28v8.067m-77.856-23.329c1.248-.671 2.784-.768 4.224-.768 6.624 0 11.616 5.087 11.616 11.232v20.066h-8.064V540.38c0-3.36-1.632-6.144-4.992-6.144-3.84 0-6.432 2.305-6.432 5.376v18.242h-8.064v-30.53h8.352v2.306c1.536-1.346 2.016-1.827 3.36-2.306m-28.992-7.776c0-2.495 2.016-4.702 4.608-4.702 2.592 0 4.704 2.207 4.704 4.797 0 2.498-2.112 4.61-4.704 4.61-2.592 0-4.608-2.112-4.608-4.705m.672 38.306V527.23h8.064v30.625h-8.064m-19.872-31.201c6.24 0 11.52 5.567 11.52 12.766v18.435h-8.256V539.23c0-3.169-1.632-4.897-5.28-4.897-3.744 0-5.664 2.976-5.664 6.336v17.186h-8.16v-42.53h8.16v14.112c3.168-2.4 4.992-2.783 7.68-2.783m-38.592 7.776h-4.8v-6.912h4.8v-9.697l8.352-2.303v12h7.776v6.912h-7.584v13.727c0 3.073 1.152 3.36 2.304 3.36 1.248 0 2.112-.287 4.512-.77l1.92 6.818c-3.84 1.056-7.296 1.44-9.504 1.44-2.88 0-7.776-1.536-7.776-7.296v-17.28m-19.968-14.88c0-2.495 2.112-4.702 4.608-4.702 2.688 0 4.704 2.207 4.704 4.797 0 2.498-2.016 4.61-4.608 4.61a4.712 4.712 0 0 1-4.704-4.705m.672 38.306V527.23h8.064v30.625h-8.064m-51.36-30.242h8.544l5.088 18.817 4.608-18.817h8.832l4.704 18.817 5.28-18.817h8.064l-8.352 30.242h-9.696l-4.416-18.722-4.512 18.722h-9.6l-8.544-30.242m337.632-60.576c1.247-.576 2.784-.768 4.224-.768 6.624 0 11.616 5.09 11.616 11.232v20.16H405.6V480.19c0-3.456-1.73-6.24-4.992-6.24-3.936 0-6.432 2.305-6.432 5.376v18.336h-8.16v-30.528h8.35v2.209c1.538-1.345 2.018-1.823 3.362-2.305m-28.992 3.072c1.728-2.4 4.8-3.552 7.967-3.552.384 0 .769 0 1.538.097v7.871c-2.689.096-3.457.096-3.457.096-3.456.192-6.24 2.592-6.24 7.488v15.552h-8.16v-30.624h8.16l.192 3.072m-28.896 27.36c-1.25.576-2.592.768-4.032.768-6.623 0-11.616-4.895-11.616-11.04v-20.064h8.063v17.376c0 3.552 1.633 6.048 4.993 6.048 3.937 0 6.432-2.015 6.432-5.088v-18.336h8.065v30.528h-8.353v-2.207c-1.44 1.345-2.207 1.535-3.552 2.015m-38.88-23.327h-4.8v-6.912h4.8v-9.6l8.352-2.305v11.905h7.775v6.912h-7.583v13.727c0 3.073 1.152 3.456 2.304 3.456 1.248 0 2.11-.288 4.512-.768l1.921 6.816c-3.841 1.057-7.201 1.345-9.505 1.345-2.879 0-7.776-1.44-7.776-7.2v-17.376m-29.856 4.895h12.384c-.19-3.072-3.264-5.76-6.24-5.76-3.072 0-5.664 2.4-6.144 5.76m14.4 8.928l4.896 5.28c-3.936 3.554-6.53 5.088-12.096 5.088-9.408 0-15.168-7.008-15.168-16.318 0-8.354 5.28-15.651 13.536-15.651 9.024 0 14.592 6.721 14.592 16.707v2.112h-20.16c.192 3.55 3.36 6.047 7.392 6.047 2.304 0 3.552-.383 7.008-3.265m-38.016-17.856c1.824-2.4 4.896-3.552 7.968-3.552.48 0 .864 0 1.536.097v7.871c-2.688.096-3.456.096-3.456.096-3.36.192-6.24 2.592-6.24 7.488v15.552h-8.16v-30.624h8.16l.192 3.072m-43.2 12.672c0-7.2-2.496-9.408-6.144-9.408-4.512 0-6.432 3.744-6.432 9.408 0 4.992 2.4 8.64 6.432 8.64s6.144-3.648 6.144-8.64m-21.024 0c0-12.384 7.296-16.896 14.496-16.896 6.528 0 14.784 4.512 14.784 16.896 0 9.122-5.952 15.937-14.4 15.937-9.216 0-14.88-6.337-14.88-15.937m-45.6-27.552h9.312l19.296 28.415V455.23h8.64v42.432h-9.408l-19.392-28.416v28.416h-8.448V455.23M372 399.261l4.992.672c5.375.767 8.64 4.512 8.64 9.216 0 6.144-5.184 10.464-12.48 10.464-6.337 0-10.561-1.632-14.592-5.664l6.048-5.28c2.4 2.592 5.184 4.031 8.16 4.031 2.4 0 4.319-1.055 4.319-2.59 0-1.345-1.247-2.497-3.743-2.977l-5.375-1.056c-4.705-.864-7.393-4.416-7.393-8.64 0-6.144 4.704-9.984 12.576-9.984 4.224 0 7.873.674 12.096 4.512l-5.184 5.472c-2.112-2.496-4.319-3.264-7.104-3.264-2.4 0-4.033 1.346-4.033 2.786 0 1.056.577 2.014 3.073 2.302m-34.752-11.328c1.248-.672 2.783-.768 4.224-.768 6.624 0 11.615 5.088 11.615 11.232v20.064h-7.967V400.99c0-3.358-1.728-6.142-4.992-6.142-3.936 0-6.432 2.302-6.432 5.374v18.24h-8.16v-30.528h8.352v2.304c1.536-1.344 2.016-1.822 3.36-2.304m-28.993-7.776c0-2.496 2.113-4.704 4.608-4.704 2.689 0 4.705 2.208 4.705 4.8 0 2.495-2.016 4.607-4.608 4.607a4.712 4.712 0 0 1-4.705-4.703m.672 38.304v-30.624h8.065v30.624h-8.065m-21.215-23.52c-3.552 0-5.184 2.591-5.184 5.858v17.662h-8.448V400.99c0-4.129-1.632-6.048-4.224-6.048-3.36 0-5.376 2.784-5.376 5.858v17.662h-8.064V388.03h8.064v2.304c2.496-2.304 4.224-3.168 7.008-3.168 3.84 0 5.184.578 8.256 3.84 3.264-3.262 5.472-3.934 8.928-3.934 6.625 0 11.424 6.046 11.424 12.382v19.008h-8.16V400.99c0-4.129-1.632-6.048-4.224-6.048m-69.12-11.521c-6.336 0-9.12 4.707-9.12 14.112 0 8.832 2.976 14.017 9.12 14.017 6.144 0 9.024-4.702 9.024-14.017 0-9.117-2.88-14.112-9.024-14.112m-.096 36.193c-11.904 0-17.952-7.68-17.952-21.982 0-14.978 6.24-22.274 17.952-22.274 12.192 0 17.952 7.872 17.952 22.274 0 14.206-5.856 21.982-17.952 21.982m-49.248-28.32v.96h-8.832v-2.016c0-10.176 7.776-14.976 15.744-14.976 5.76 0 16.224 1.538 16.224 14.304 0 6.338-2.304 11.424-11.136 17.954l-4.224 3.069h14.496v7.873h-29.664v-7.873c15.456-10.079 21.888-14.112 21.888-20.83 0-3.937-2.688-6.625-6.912-6.625-4.704 0-7.584 3.17-7.584 8.16m244.224-71.904c-3.553 0-5.28 2.592-5.28 5.856v17.76h-8.352v-17.473c0-4.223-1.632-6.143-4.32-6.143-3.265 0-5.279 2.784-5.279 5.856v17.76h-8.16v-30.529h8.16v2.305c2.495-2.305 4.126-3.168 6.911-3.168 3.935 0 5.184.576 8.257 3.936 3.263-3.264 5.566-4.03 9.023-4.03 6.528 0 11.425 6.046 11.425 12.384v19.102h-8.161v-17.473c0-4.223-1.632-6.143-4.224-6.143m-59.904 11.04c0 3.168 3.552 5.952 6.72 5.952 4.608 0 6.336-3.648 6.336-8.928 0-5.761-1.728-9.12-6.624-9.12-5.952 0-6.432 5.186-6.432 7.298v4.798m21.505-2.4c0 9.024-5.185 15.456-13.057 15.456-4.128 0-4.8-.384-8.448-2.785v11.33h-8.064v-39.745h8.064v1.631c2.592-2.112 4.224-3.07 7.68-3.07 9.119 0 13.825 6.815 13.825 17.183m-59.905 14.976h-9.41l14.211-34.56h-20.353v-7.776h29.57v7.584l-14.018 34.752m-33.983-15.072h-12.769v-6.624h12.77v6.624m-43.778-8.544c-3.552 0-5.184 2.592-5.184 5.856v17.76h-8.352v-17.473c0-4.223-1.632-6.143-4.32-6.143-3.264 0-5.376 2.784-5.376 5.856v17.76h-8.064v-30.529h8.064v2.305c2.592-2.305 4.224-3.168 7.008-3.168 3.936 0 5.184.576 8.256 3.936 3.264-3.264 5.568-4.03 8.928-4.03 6.624 0 11.52 6.046 11.52 12.384v19.102h-8.256v-17.473c0-4.223-1.632-6.143-4.224-6.143m-53.184 17.664c3.36 0 4.896-.96 4.896-3.552v-3.84l-6.24.864c-2.688.48-3.264 1.92-3.264 3.648 0 1.92 1.248 2.88 4.608 2.88m-2.592 6.816c-6.72 0-10.56-3.742-10.56-9.6 0-5.184 3.072-10.656 17.76-10.656v-1.728c0-1.824-1.728-2.974-4.512-2.974-2.4 0-6.336 1.438-9.216 3.166l-3.936-5.95c2.112-1.634 7.392-4.608 12.96-4.608 8.544 0 12.96 3.262 12.96 9.214v12.672c0 2.688.672 3.455 3.552 3.936l-2.88 6.432c-1.44 0-5.472-.576-7.488-3.168-2.688 2.592-5.28 3.264-8.64 3.264m-36.96-12.768c0-3.552-2.496-5.664-7.296-5.664-4.704 0-7.296 2.112-7.296 5.568 0 3.264 2.592 5.376 7.392 5.376 4.704 0 7.2-2.112 7.2-5.28m-.96-18.142c0-3.074-2.304-5.09-6.336-5.09-4.32 0-6.624 1.823-6.624 4.991 0 3.073 2.4 4.995 6.624 4.995 4.128 0 6.336-1.826 6.336-4.896m-22.176 17.566c0-4.416 1.728-7.392 5.952-9.312-4.032-2.112-5.28-4.798-5.28-8.737 0-5.855 5.376-12.287 15.264-12.287 10.464 0 15.072 5.376 15.072 12.386 0 3.84-1.248 6.526-5.184 8.734 4.32 2.016 5.856 4.896 5.856 9.216 0 8.352-5.472 13.632-15.744 13.632-10.368 0-15.936-5.28-15.936-13.632m269.088-80.16h-4.8v-6.912h4.8v-9.6l8.35-2.304v11.904h7.778v6.912h-7.679v13.728c0 3.072 1.151 3.456 2.399 3.456 1.152 0 2.112-.288 4.512-.768l1.824 6.816c-3.744 1.056-7.2 1.344-9.408 1.344-2.88 0-7.776-1.44-7.776-7.2v-17.376m-24.192 17.568c3.36 0 4.896-.96 4.896-3.456v-3.936l-6.241.96c-2.687.384-3.263 1.824-3.263 3.552 0 2.016 1.25 2.88 4.608 2.88m-2.592 6.816c-6.72 0-10.56-3.744-10.56-9.6 0-5.184 3.073-10.656 17.759-10.656v-1.632c0-1.824-1.727-2.976-4.511-2.976-2.4 0-6.336 1.344-9.216 3.072l-3.936-5.952c2.208-1.632 7.392-4.512 12.96-4.512 8.544 0 12.961 3.168 12.961 9.12v12.672c0 2.784.672 3.552 3.551 4.032l-2.879 6.336c-1.441 0-5.473-.48-7.489-3.072-2.688 2.592-5.28 3.168-8.64 3.168m-27.264-12.96c0-2.304-.96-3.84-5.472-4.704l-7.2-1.536c-4.32-.768-9.888-4.512-9.888-11.616 0-6.816 6.144-13.344 16.127-13.344 0 0 11.137 0 16.705 6.624l-6.145 6.048c-4.991-4.224-10.846-4.224-10.846-4.224-3.841 0-6.145 1.824-6.145 4.608 0 2.208 1.632 3.648 8.928 4.704 8.063 1.056 13.536 6.048 13.536 13.152.096 5.856-3.264 13.344-17.952 13.344-8.353 0-12.288-2.208-18.048-8.064l7.2-5.472c4.033 3.84 6.816 5.088 11.327 5.088 4.801 0 7.873-1.44 7.873-4.608m-45.408-2.976H278.4v-6.624h12.768v6.624m-48-15.552c1.248-.576 2.784-.768 4.224-.768 6.624 0 11.616 5.184 11.616 11.328v20.064h-7.968v-17.472c0-3.456-1.728-6.144-4.992-6.144-3.936 0-6.432 2.208-6.432 5.28v18.336h-8.16v-30.528h8.352v2.208c1.536-1.344 2.016-1.824 3.36-2.304m-27.264 15.744c0-7.2-2.4-9.408-6.048-9.408-4.608 0-6.432 3.744-6.432 9.408 0 4.992 2.4 8.64 6.432 8.64 3.936 0 6.048-3.648 6.048-8.64m-20.928 0c0-12.288 7.2-16.896 14.496-16.896 6.528 0 14.688 4.608 14.688 16.896 0 9.12-5.952 15.936-14.304 15.936-9.216 0-14.88-6.24-14.88-15.936" fill="#231f20"/>
    <path d="M198.517 199.395a9.874 9.874 0 0 0 9.888-9.888V54.339a9.874 9.874 0 0 0-9.888-9.888H62.773c-5.376 0-9.792 4.416-9.792 9.888v135.168c0 5.472 4.416 9.888 9.792 9.888h135.744" fill="#1476c6"/>
    <path d="M156.47 64.707c14.303 0 25.823 11.712 25.823 26.016v19.104c0 14.304-11.52 25.92-25.824 25.92h-37.727v46.56H93.685v-117.6h62.784" fill="#fcfdfd"/>
    <path d="M146.101 116.739c6.24 0 11.328-4.992 11.328-11.232v-10.08c0-6.24-5.088-11.328-11.328-11.328h-27.167v32.64H146.1" fill="#1476c6"/>
    <path d="M303.459 134.73c10.87 0 19.692 8.822 19.692 19.689 0 10.908-8.822 19.728-19.692 19.728-10.872 0-19.694-8.82-19.694-19.728 0-10.867 8.822-19.688 19.694-19.688m128.945-53.999l25.796 27.367h-48.483V80.732h22.687m-66.019 0l-17.724 27.367h55.692V80.732h-37.968m81.186 63.272c5.75 0 10.437 4.647 10.437 10.396 0 5.75-4.687 10.435-10.437 10.435-5.751 0-10.398-4.686-10.398-10.435 0-5.75 4.647-10.396 10.398-10.396m-144.056 0c5.749 0 10.398 4.647 10.398 10.396 0 5.75-4.649 10.435-10.398 10.435-5.751 0-10.438-4.686-10.438-10.435 0-5.75 4.687-10.396 10.438-10.396m-22.312 12.767c.788 0-.078-1.575-.078-2.363 0-12.325 10.003-22.365 22.371-22.365 12.367 0 22.37 10.04 22.37 22.365 0 .827-.04 1.575-.117 2.363h99.527a23.168 23.168 0 0 1-.117-2.363c0-12.325 10.004-22.365 22.37-22.365 12.368 0 22.372 10.04 22.372 22.365 0 .827-.04 1.575-.118 2.363l28.79-2.678v-31.068s1.024-4.685-5.75-6.142c-6.774-1.458-10.28-3.071-16.03-9.058L452.14 82.113s-10.635-12.481-32.376-12.481h-43.719s-10.161-1.261-15.833 7.48l-20.598 31.068-56.008 7.443s-11.264 1.062-11.264 11.025v20.239s.472 9.884 8.862 9.884m166.35-22.04c10.871 0 19.695 8.821 19.695 19.688 0 10.908-8.824 19.728-19.695 19.728-10.869 0-19.692-8.82-19.692-19.728 0-10.867 8.823-19.688 19.692-19.688" fill="#231f20"/>
    <path d="M0 11.325v573.12c0 6.242 5.088 11.328 11.328 11.328h524.736c6.241 0 11.328-5.086 11.328-11.328V11.325c0-6.24-5.087-11.328-11.328-11.328H11.328C5.088-.003 0 5.085 0 11.325m11.328 7.584v557.95a7.54 7.54 0 0 0 7.584 7.586H528.48a7.54 7.54 0 0 0 7.584-7.585V18.91a7.54 7.54 0 0 0-7.584-7.585H18.912a7.539 7.539 0 0 0-7.584 7.584" fill="#242021"/>
  </g>
</svg>
